<svg width="360" height="383" viewBox="0 0 360 383" fill="none" xmlns="http://www.w3.org/2000/svg">
<g clip-path="url(#clip0_31_2547)">
<g clip-path="url(#clip1_31_2547)">
<rect width="360" height="338" fill="#FAFAFA"/>
<path d="M360.603 337.565L311.765 292L409.441 292L360.603 337.565Z" fill="#4361EE"/>
<path d="M359.794 384.151L310.999 337.565L408.59 337.565L359.794 384.151Z" fill="#4361EE"/>
<rect x="-101" y="-98" width="198" height="198" rx="99" fill="#F72585"/>
<path d="M131.927 97.7758L15.9831 107.147L39.3311 137.497L129.445 122.403L131.927 97.7758Z" fill="#4361EE"/>
<path d="M69.3326 118.838C70.0402 118.726 70.6876 118.77 71.275 118.972C71.8718 119.16 72.3715 119.523 72.7742 120.06C73.1862 120.583 73.4642 121.299 73.6084 122.205L74.4204 127.313L71.8334 127.724L71.0847 123.014C70.9704 122.296 70.7368 121.789 70.3838 121.494C70.0309 121.198 69.5835 121.094 69.0418 121.18C68.6659 121.24 68.3428 121.382 68.0724 121.606C67.8003 121.819 67.6085 122.111 67.4972 122.48C67.3859 122.849 67.3724 123.299 67.4567 123.829L68.1686 128.307L65.5816 128.718L64.8329 124.008C64.7186 123.29 64.485 122.783 64.132 122.488C63.7901 122.191 63.3483 122.085 62.8066 122.171C62.4307 122.231 62.1076 122.373 61.8372 122.597C61.5651 122.811 61.3733 123.102 61.262 123.471C61.1506 123.84 61.1371 124.29 61.2215 124.821L61.9333 129.298L59.3464 129.709L57.928 120.788L60.3989 120.395L60.7864 122.833L60.2087 122.193C60.4216 121.536 60.7854 121.008 61.3 120.609C61.8239 120.197 62.4507 119.933 63.1803 119.817C63.9984 119.687 64.7449 119.783 65.4197 120.107C66.1038 120.417 66.6131 120.982 66.9474 121.802L65.9958 121.698C66.1836 120.954 66.5711 120.326 67.1583 119.813C67.7566 119.299 68.4814 118.974 69.3326 118.838ZM80.3588 126.505C79.6181 126.622 78.9319 126.584 78.3002 126.39C77.6797 126.194 77.1625 125.828 76.7487 125.293C76.3332 124.747 76.0525 124.016 75.9066 123.098L75.1052 118.057L77.6921 117.645L78.433 122.305C78.5507 123.046 78.7925 123.569 79.1583 123.873C79.5334 124.165 80.0084 124.265 80.5833 124.174C80.9812 124.11 81.3218 123.971 81.605 123.756C81.8865 123.53 82.0875 123.226 82.2081 122.844C82.327 122.451 82.3434 121.984 82.2573 121.442L81.556 117.031L84.1429 116.62L85.5613 125.542L83.107 125.932L82.7169 123.477L83.278 124.119C83.0779 124.786 82.7104 125.326 82.1754 125.74C81.6497 126.141 81.0442 126.396 80.3588 126.505ZM87.7921 125.187L86.3737 116.265L88.9607 115.854L90.3791 124.776L87.7921 125.187ZM87.4695 114.816C86.9941 114.891 86.5852 114.815 86.2428 114.586C85.9003 114.357 85.6966 114.038 85.6316 113.629C85.5665 113.22 85.6613 112.853 85.9159 112.529C86.1704 112.206 86.5354 112.006 87.0108 111.93C87.4861 111.855 87.8942 111.926 88.2348 112.144C88.5738 112.351 88.7757 112.659 88.8408 113.068C88.9093 113.499 88.8172 113.882 88.5644 114.217C88.3209 114.539 87.9559 114.738 87.4695 114.816ZM96.2835 123.973C95.2333 124.14 94.373 124.005 93.7027 123.567C93.0306 123.119 92.6103 122.364 92.4415 121.302L91.1971 113.475L93.7841 113.064L95.0232 120.858C95.083 121.234 95.229 121.511 95.4614 121.689C95.6921 121.857 95.9787 121.913 96.3215 121.859C96.7305 121.794 97.0612 121.628 97.3135 121.361L98.3 123.074C98.0645 123.304 97.7667 123.499 97.4067 123.658C97.0559 123.805 96.6815 123.91 96.2835 123.973ZM90.4825 117.856L90.1661 115.866L96.3516 114.883L96.668 116.873L90.4825 117.856ZM105.127 122.431L104.85 120.69L104.624 120.335L104.128 117.217C104.04 116.664 103.801 116.26 103.409 116.005C103.028 115.748 102.489 115.675 101.793 115.786C101.317 115.862 100.86 116.014 100.42 116.242C99.9895 116.458 99.6342 116.719 99.354 117.024L98.138 115.364C98.5699 114.944 99.1137 114.585 99.7692 114.289C100.425 113.992 101.106 113.787 101.814 113.674C103.174 113.458 104.28 113.611 105.134 114.133C105.988 114.654 106.523 115.595 106.739 116.955L107.548 122.046L105.127 122.431ZM102.429 122.996C101.732 123.107 101.117 123.085 100.582 122.932C100.046 122.768 99.613 122.503 99.2826 122.136C98.9523 121.769 98.7467 121.331 98.6658 120.823C98.5814 120.292 98.6348 119.808 98.8258 119.369C99.0278 118.929 99.3932 118.554 99.9218 118.243C100.449 117.921 101.165 117.688 102.072 117.544L104.443 117.167L104.683 118.676L102.594 119.008C101.986 119.105 101.582 119.271 101.381 119.507C101.192 119.741 101.121 120.007 101.168 120.306C101.221 120.638 101.39 120.883 101.676 121.041C101.971 121.187 102.345 121.224 102.799 121.152C103.23 121.083 103.601 120.922 103.912 120.669C104.221 120.404 104.422 120.061 104.513 119.638L105.101 120.769C105.005 121.374 104.731 121.865 104.281 122.242C103.831 122.62 103.214 122.871 102.429 122.996Z" fill="white"/>
<path d="M51.7602 111.68C51.8226 111.921 51.9588 112.114 52.1687 112.258C52.3808 112.399 52.6514 112.453 52.9803 112.421C53.2378 112.396 53.457 112.334 53.6379 112.236C53.8211 112.136 53.975 112.013 54.0996 111.866L54.5601 112.385C54.3533 112.637 54.1253 112.818 53.876 112.927C53.6294 113.037 53.3543 113.106 53.0509 113.136C52.7755 113.163 52.5147 113.143 52.2685 113.074C52.0224 113.006 51.8045 112.899 51.615 112.753C51.4253 112.604 51.2695 112.421 51.1477 112.204C51.0284 111.987 50.955 111.739 50.9276 111.461C50.9009 111.191 50.921 110.938 50.9879 110.702C51.057 110.464 51.165 110.253 51.3118 110.072C51.461 109.887 51.6458 109.737 51.8662 109.623C52.0863 109.506 52.3354 109.434 52.6133 109.406C52.9014 109.378 53.1677 109.402 53.4121 109.478C53.6562 109.552 53.8703 109.674 54.0544 109.843C54.2411 110.013 54.3949 110.228 54.5159 110.489C54.6367 110.748 54.7138 111.046 54.7473 111.385L51.7602 111.68ZM53.7836 110.778C53.7202 110.552 53.5835 110.38 53.3736 110.262C53.1634 110.141 52.9334 110.093 52.6835 110.118C52.4336 110.142 52.2162 110.235 52.0311 110.394C51.8458 110.552 51.7441 110.747 51.726 110.981L53.7836 110.778ZM58.8192 111.401C58.8421 111.633 58.8085 111.827 58.7183 111.982C58.6281 112.138 58.5045 112.268 58.3476 112.374C58.1932 112.479 58.0157 112.559 57.8149 112.612C57.617 112.668 57.4212 112.705 57.2274 112.724C56.9036 112.756 56.5764 112.741 56.2458 112.678C55.9152 112.615 55.6251 112.519 55.3754 112.389L55.6402 111.707C55.9368 111.842 56.2045 111.933 56.4433 111.979C56.6844 112.022 56.9223 112.032 57.1568 112.009C57.4756 111.977 57.7043 111.921 57.8431 111.841C57.9816 111.758 58.045 111.656 58.0332 111.536C58.0274 111.478 58.0022 111.431 57.9576 111.397C57.9131 111.363 57.8421 111.335 57.7447 111.314C57.6471 111.29 57.5191 111.27 57.3605 111.255C57.2042 111.237 57.0096 111.221 56.7766 111.208C56.59 111.196 56.4117 111.176 56.2417 111.149C56.074 111.119 55.9236 111.07 55.7906 111.001C55.6576 110.931 55.5467 110.838 55.4579 110.721C55.3716 110.603 55.3192 110.45 55.3006 110.261C55.2817 110.07 55.3138 109.899 55.3968 109.75C55.4822 109.597 55.5994 109.467 55.7484 109.36C55.9 109.252 56.0732 109.168 56.2681 109.107C56.4629 109.047 56.6598 109.007 56.8587 108.987C57.1391 108.96 57.4143 108.97 57.6843 109.018C57.9565 109.063 58.1987 109.143 58.4109 109.259L58.1577 109.902C57.9465 109.797 57.7444 109.732 57.5514 109.707C57.3608 109.679 57.1533 109.677 56.9289 109.699C56.8345 109.708 56.7369 109.723 56.6359 109.743C56.5349 109.763 56.4426 109.793 56.3589 109.832C56.275 109.869 56.2062 109.916 56.1526 109.972C56.1013 110.026 56.0791 110.089 56.0862 110.16C56.0955 110.255 56.186 110.324 56.3578 110.369C56.5319 110.411 56.8232 110.442 57.2319 110.461C57.4542 110.47 57.6583 110.489 57.8441 110.52C58.0296 110.548 58.1915 110.596 58.3295 110.665C58.4674 110.731 58.5783 110.825 58.6623 110.945C58.7485 111.063 58.8009 111.215 58.8192 111.401ZM63.0952 110.979C63.1181 111.211 63.0844 111.405 62.9942 111.56C62.904 111.716 62.7805 111.847 62.6235 111.952C62.4692 112.057 62.2916 112.137 62.0909 112.19C61.893 112.246 61.6971 112.283 61.5034 112.302C61.1795 112.334 60.8523 112.319 60.5218 112.256C60.1912 112.193 59.9011 112.097 59.6514 111.967L59.9161 111.285C60.2127 111.42 60.4804 111.511 60.7192 111.557C60.9604 111.6 61.1982 111.61 61.4328 111.587C61.7515 111.555 61.9803 111.499 62.1191 111.419C62.2576 111.336 62.321 111.234 62.3091 111.114C62.3034 111.056 62.2782 111.009 62.2336 110.975C62.189 110.941 62.1181 110.913 62.0207 110.892C61.9231 110.868 61.795 110.848 61.6365 110.833C61.4802 110.815 61.2856 110.799 61.0526 110.786C60.866 110.774 60.6877 110.754 60.5176 110.727C60.3499 110.697 60.1996 110.648 60.0666 110.579C59.9336 110.509 59.8227 110.416 59.7339 110.299C59.6476 110.181 59.5952 110.028 59.5765 109.839C59.5577 109.648 59.5898 109.477 59.6728 109.328C59.7582 109.175 59.8753 109.045 60.0244 108.938C60.176 108.83 60.3492 108.746 60.544 108.685C60.7389 108.625 60.9358 108.585 61.1346 108.565C61.4151 108.538 61.6903 108.548 61.9602 108.596C62.2325 108.641 62.4747 108.722 62.6869 108.837L62.4337 109.48C62.2224 109.375 62.0204 109.31 61.8274 109.285C61.6367 109.257 61.4292 109.255 61.2048 109.277C61.1105 109.286 61.0128 109.301 60.9118 109.321C60.8109 109.341 60.7185 109.371 60.6349 109.41C60.5509 109.447 60.4822 109.494 60.4286 109.55C60.3772 109.604 60.3551 109.667 60.3621 109.738C60.3715 109.833 60.462 109.902 60.6338 109.947C60.8078 109.989 61.0992 110.02 61.5079 110.039C61.7302 110.048 61.9342 110.067 62.12 110.098C62.3056 110.126 62.4674 110.174 62.6055 110.243C62.7433 110.309 62.8542 110.403 62.9382 110.523C63.0245 110.641 63.0768 110.793 63.0952 110.979ZM64.5881 110.414C64.6505 110.655 64.7867 110.848 64.9965 110.992C65.2087 111.133 65.4793 111.188 65.8082 111.155C66.0657 111.13 66.2849 111.068 66.4658 110.971C66.649 110.87 66.8029 110.747 66.9275 110.601L67.388 111.119C67.1812 111.371 66.9531 111.552 66.7039 111.661C66.4572 111.771 66.1822 111.84 65.8788 111.87C65.6034 111.898 65.3426 111.877 65.0964 111.809C64.8502 111.74 64.6324 111.633 64.4429 111.487C64.2532 111.338 64.0974 111.155 63.9756 110.938C63.8563 110.721 63.7829 110.473 63.7555 110.195C63.7288 109.925 63.7489 109.672 63.8158 109.436C63.8849 109.198 63.9929 108.988 64.1397 108.806C64.2889 108.621 64.4736 108.471 64.694 108.357C64.9142 108.24 65.1633 108.168 65.4412 108.14C65.7293 108.112 65.9956 108.136 66.24 108.212C66.4841 108.286 66.6982 108.408 66.8823 108.578C67.069 108.747 67.2228 108.962 67.3438 109.223C67.4646 109.482 67.5417 109.78 67.5752 110.12L64.5881 110.414ZM66.6115 109.512C66.5481 109.286 66.4114 109.114 66.2015 108.996C65.9913 108.875 65.7613 108.827 65.5114 108.852C65.2615 108.876 65.0441 108.969 64.859 109.129C64.6737 109.286 64.572 109.481 64.5538 109.715L66.6115 109.512ZM72.443 110.099C72.4223 109.89 72.4604 109.702 72.5573 109.535C72.6539 109.366 72.7875 109.22 72.9582 109.098C73.1315 108.975 73.3329 108.877 73.5625 108.803C73.7943 108.726 74.0326 108.675 74.2774 108.651C74.4125 108.638 74.5288 108.629 74.6262 108.624C74.7236 108.62 74.8225 108.618 74.9229 108.618L74.909 108.477C74.8906 108.291 74.8042 108.159 74.6498 108.081C74.498 108.004 74.3048 107.976 74.0702 108C73.856 108.021 73.641 108.073 73.4252 108.156C73.2092 108.236 73.0074 108.344 72.8198 108.478L72.4374 107.89C72.6587 107.732 72.8994 107.601 73.1596 107.499C73.422 107.393 73.7024 107.325 74.0008 107.296C74.1945 107.277 74.3866 107.28 74.577 107.305C74.77 107.329 74.9453 107.384 75.103 107.469C75.2633 107.554 75.396 107.672 75.501 107.824C75.6059 107.973 75.6699 108.165 75.693 108.399L75.9289 110.79L75.1449 110.867L75.0932 110.343C74.9873 110.549 74.8173 110.718 74.5831 110.849C74.3515 110.98 74.0954 111.06 73.8149 111.087C73.6415 111.104 73.4747 111.096 73.3144 111.063C73.1569 111.032 73.0173 110.975 72.8958 110.892C72.7743 110.809 72.6724 110.702 72.59 110.571C72.5098 110.437 72.4608 110.28 72.443 110.099ZM73.9478 110.36C74.1033 110.344 74.2468 110.311 74.3782 110.259C74.5118 110.205 74.6275 110.138 74.7253 110.059C74.8228 109.977 74.8959 109.884 74.9448 109.779C74.9961 109.673 75.0159 109.56 75.0041 109.441L74.9909 109.307C74.8639 109.299 74.7455 109.299 74.6356 109.307C74.5257 109.315 74.4287 109.324 74.3446 109.332C73.957 109.37 73.6688 109.45 73.48 109.572C73.2937 109.693 73.208 109.829 73.2229 109.979C73.2523 110.278 73.4939 110.404 73.9478 110.36ZM80.2125 110.367L79.4208 110.445L79.2038 108.246C79.1764 107.968 79.1051 107.781 78.99 107.684C78.8749 107.587 78.7179 107.549 78.519 107.568C78.2258 107.597 77.9978 107.739 77.8351 107.995C77.6749 108.25 77.6154 108.587 77.6567 109.005L77.8145 110.604L77.0228 110.682L76.671 107.117L77.4627 107.039L77.551 107.934C77.5996 107.618 77.7226 107.364 77.9199 107.172C78.117 106.977 78.3723 106.864 78.686 106.833C79.0506 106.797 79.3478 106.888 79.5778 107.105C79.8077 107.321 79.947 107.676 79.9955 108.168L80.2125 110.367ZM84.5922 108.139C84.6196 108.417 84.5999 108.674 84.5331 108.91C84.4688 109.145 84.3619 109.354 84.2125 109.536C84.0655 109.715 83.8817 109.862 83.6613 109.977C83.4409 110.091 83.1891 110.162 82.9061 110.19C82.6282 110.217 82.37 110.197 82.1314 110.127C81.8929 110.058 81.6827 109.95 81.5009 109.804C81.3213 109.654 81.1757 109.47 81.0641 109.252C80.955 109.034 80.8868 108.785 80.8593 108.507C80.8327 108.237 80.8513 107.983 80.9154 107.745C80.9817 107.504 81.0883 107.293 81.2352 107.111C81.3843 106.926 81.5692 106.778 81.7899 106.666C82.0103 106.552 82.2595 106.481 82.5374 106.453C82.8204 106.425 83.0812 106.446 83.3197 106.515C83.558 106.582 83.767 106.691 83.9468 106.843C84.1289 106.993 84.2748 107.179 84.3844 107.403C84.4962 107.623 84.5655 107.869 84.5922 108.139ZM83.8043 108.217C83.7885 108.056 83.748 107.907 83.6829 107.769C83.6201 107.629 83.5365 107.512 83.4321 107.419C83.3277 107.327 83.205 107.258 83.0641 107.212C82.9255 107.164 82.7733 107.148 82.6076 107.165C82.4393 107.181 82.2919 107.227 82.1653 107.301C82.0385 107.373 81.9343 107.464 81.8525 107.575C81.7708 107.686 81.7116 107.817 81.675 107.967C81.6406 108.115 81.6314 108.269 81.6472 108.43C81.6638 108.598 81.7031 108.749 81.7652 108.881C81.8297 109.014 81.9131 109.128 82.0152 109.224C82.1173 109.319 82.2375 109.39 82.3759 109.435C82.514 109.478 82.6673 109.491 82.8355 109.475C83.0013 109.458 83.1477 109.416 83.2747 109.347C83.4041 109.275 83.5108 109.182 83.5948 109.068C83.6788 108.954 83.7382 108.826 83.7731 108.683C83.8105 108.541 83.8209 108.385 83.8043 108.217ZM93.0438 108.587C92.8369 108.839 92.6102 109.02 92.3635 109.129C92.1194 109.238 91.8494 109.308 91.5536 109.337C91.2553 109.366 90.9794 109.348 90.7258 109.283C90.4748 109.218 90.2559 109.113 90.0692 108.97C89.8848 108.823 89.7354 108.639 89.621 108.419C89.5091 108.198 89.4392 107.947 89.4112 107.664C89.3846 107.393 89.4045 107.139 89.4711 106.901C89.54 106.66 89.6429 106.45 89.7798 106.272C89.919 106.091 90.0886 105.944 90.2886 105.831C90.4884 105.716 90.7056 105.647 90.9401 105.624C91.1849 105.6 91.4029 105.63 91.594 105.714C91.785 105.798 91.9311 105.934 92.032 106.123L91.9811 105.606L92.6887 105.537L92.8525 107.197L92.1449 107.266C92.1139 106.953 92.0026 106.711 91.8108 106.542C91.6214 106.371 91.389 106.298 91.1136 106.325C91.004 106.336 90.8902 106.371 90.7724 106.429C90.6568 106.484 90.5527 106.564 90.46 106.668C90.3699 106.772 90.2988 106.9 90.2469 107.052C90.1949 107.204 90.179 107.382 90.1991 107.586C90.2188 107.785 90.2676 107.954 90.3457 108.093C90.4235 108.229 90.5181 108.34 90.6294 108.424C90.743 108.505 90.8723 108.563 91.0173 108.598C91.1646 108.63 91.3135 108.638 91.4639 108.623C91.7215 108.598 91.9407 108.536 92.1216 108.439C92.3047 108.338 92.4586 108.215 92.5832 108.069L93.0438 108.587ZM97.4201 106.873C97.4475 107.151 97.4278 107.408 97.3609 107.644C97.2966 107.879 97.1898 108.088 97.0404 108.27C96.8933 108.449 96.7096 108.596 96.4892 108.711C96.2687 108.825 96.017 108.896 95.734 108.924C95.4561 108.952 95.1978 108.931 94.9593 108.862C94.7208 108.792 94.5106 108.684 94.3287 108.538C94.1492 108.388 94.0036 108.204 93.892 107.986C93.7829 107.768 93.7146 107.519 93.6872 107.242C93.6605 106.971 93.6792 106.717 93.7433 106.479C93.8096 106.238 93.9162 106.027 94.063 105.845C94.2122 105.66 94.3971 105.512 94.6177 105.4C94.8382 105.286 95.0873 105.215 95.3653 105.188C95.6483 105.16 95.9091 105.18 96.1476 105.249C96.3859 105.316 96.5949 105.425 96.7747 105.578C96.9568 105.727 97.1026 105.913 97.2122 106.137C97.3241 106.357 97.3934 106.603 97.4201 106.873ZM96.6322 106.951C96.6163 106.79 96.5759 106.641 96.5108 106.503C96.448 106.363 96.3644 106.246 96.26 106.154C96.1556 106.061 96.0329 105.992 95.892 105.947C95.7534 105.898 95.6012 105.883 95.4355 105.899C95.2672 105.916 95.1198 105.961 94.9932 106.035C94.8664 106.107 94.7621 106.198 94.6804 106.309C94.5987 106.42 94.5395 106.551 94.5028 106.702C94.4685 106.849 94.4592 107.003 94.4751 107.164C94.4917 107.332 94.531 107.483 94.593 107.616C94.6576 107.748 94.741 107.862 94.8431 107.958C94.9452 108.053 95.0654 108.124 95.2038 108.169C95.3419 108.212 95.4951 108.226 95.6634 108.209C95.8291 108.193 95.9755 108.15 96.1026 108.081C96.2319 108.009 96.3386 107.916 96.4227 107.802C96.5067 107.688 96.5661 107.56 96.601 107.417C96.6384 107.275 96.6488 107.119 96.6322 106.951ZM101.78 108.239L100.988 108.317L100.747 105.873C100.73 105.705 100.7 105.583 100.657 105.507C100.616 105.429 100.552 105.394 100.465 105.403C100.307 105.418 100.215 105.517 100.189 105.7C100.166 105.88 100.171 106.14 100.204 106.479L100.391 108.376L99.5997 108.454L99.3585 106.01C99.3419 105.842 99.3119 105.72 99.2684 105.644C99.2246 105.566 99.1581 105.532 99.0689 105.54C98.9133 105.556 98.824 105.655 98.8008 105.837C98.7799 106.017 98.7862 106.276 98.8197 106.615L99.0069 108.512L98.2152 108.591L97.8634 105.026L98.6628 104.947L98.7137 105.463C98.7504 105.262 98.8186 105.104 98.9182 104.991C99.0177 104.879 99.1593 104.813 99.3429 104.795C99.4959 104.78 99.628 104.814 99.7393 104.899C99.8529 104.98 99.9369 105.101 99.9912 105.26C100.063 105.073 100.142 104.932 100.228 104.839C100.316 104.743 100.46 104.685 100.659 104.665C100.903 104.641 101.1 104.713 101.248 104.881C101.398 105.047 101.491 105.312 101.527 105.676L101.78 108.239Z" fill="white"/>
<path d="M75.8561 168.528C73.4634 168.528 71.5995 167.924 70.2646 166.715C68.9297 165.48 68.2622 163.654 68.2622 161.236V143.404H74.156V161.161C74.156 162.017 74.3827 162.685 74.836 163.163C75.2894 163.617 75.9065 163.843 76.6873 163.843C77.6192 163.843 78.4126 163.591 79.0675 163.088L80.6542 167.244C80.0497 167.672 79.3193 167.999 78.463 168.226C77.6318 168.427 76.7628 168.528 75.8561 168.528ZM65.1265 152.887V148.353H79.2186V152.887H65.1265ZM92.6672 168.528C90.35 168.528 88.3099 168.075 86.5468 167.168C84.8089 166.261 83.4614 165.027 82.5043 163.465C81.5472 161.879 81.0686 160.078 81.0686 158.063C81.0686 156.023 81.5346 154.222 82.4665 152.66C83.4236 151.073 84.7207 149.839 86.3579 148.958C87.9951 148.051 89.8463 147.598 91.9116 147.598C93.9014 147.598 95.6897 148.026 97.2765 148.882C98.8884 149.713 100.16 150.922 101.092 152.509C102.024 154.071 102.49 155.947 102.49 158.138C102.49 158.365 102.478 158.63 102.452 158.932C102.427 159.209 102.402 159.473 102.377 159.725H85.8668V156.287H99.2788L97.012 157.307C97.012 156.249 96.7979 155.33 96.3697 154.549C95.9415 153.769 95.3497 153.164 94.594 152.736C93.8384 152.282 92.9569 152.056 91.9494 152.056C90.9419 152.056 90.0478 152.282 89.267 152.736C88.5114 153.164 87.9195 153.781 87.4913 154.587C87.0631 155.368 86.849 156.3 86.849 157.383V158.29C86.849 159.398 87.0883 160.38 87.5669 161.236C88.0706 162.068 88.7633 162.71 89.6448 163.163C90.5515 163.591 91.6094 163.806 92.8184 163.806C93.9014 163.806 94.8459 163.642 95.6519 163.314C96.4831 162.987 97.2387 162.496 97.9187 161.841L101.055 165.241C100.123 166.299 98.9514 167.118 97.5409 167.697C96.1305 168.251 94.5059 168.528 92.6672 168.528ZM115.481 168.528C113.29 168.528 111.338 168.087 109.625 167.206C107.913 166.299 106.565 165.052 105.583 163.465C104.626 161.879 104.147 160.078 104.147 158.063C104.147 156.023 104.626 154.222 105.583 152.66C106.565 151.073 107.913 149.839 109.625 148.958C111.338 148.051 113.29 147.598 115.481 147.598C117.622 147.598 119.486 148.051 121.073 148.958C122.66 149.839 123.831 151.111 124.586 152.774L120.015 155.229C119.486 154.272 118.819 153.567 118.013 153.114C117.232 152.66 116.375 152.434 115.444 152.434C114.436 152.434 113.529 152.66 112.723 153.114C111.917 153.567 111.275 154.209 110.797 155.04C110.343 155.872 110.117 156.879 110.117 158.063C110.117 159.247 110.343 160.254 110.797 161.085C111.275 161.916 111.917 162.559 112.723 163.012C113.529 163.465 114.436 163.692 115.444 163.692C116.375 163.692 117.232 163.478 118.013 163.05C118.819 162.597 119.486 161.879 120.015 160.896L124.586 163.39C123.831 165.027 122.66 166.299 121.073 167.206C119.486 168.087 117.622 168.528 115.481 168.528ZM139.578 147.598C141.19 147.598 142.626 147.925 143.885 148.58C145.17 149.21 146.177 150.192 146.908 151.527C147.638 152.837 148.004 154.524 148.004 156.589V168.226H142.11V157.496C142.11 155.859 141.745 154.65 141.014 153.869C140.309 153.088 139.301 152.698 137.992 152.698C137.06 152.698 136.216 152.9 135.46 153.303C134.73 153.68 134.151 154.272 133.723 155.078C133.32 155.884 133.118 156.917 133.118 158.176V168.226H127.224V147.9H132.854V153.529L131.796 151.829C132.526 150.469 133.571 149.424 134.931 148.693C136.292 147.963 137.841 147.598 139.578 147.598ZM162.41 168.528C160.244 168.528 158.317 168.075 156.629 167.168C154.967 166.261 153.645 165.027 152.662 163.465C151.705 161.879 151.227 160.078 151.227 158.063C151.227 156.023 151.705 154.222 152.662 152.66C153.645 151.073 154.967 149.839 156.629 148.958C158.317 148.051 160.244 147.598 162.41 147.598C164.551 147.598 166.465 148.051 168.152 148.958C169.84 149.839 171.162 151.061 172.119 152.622C173.076 154.184 173.555 155.998 173.555 158.063C173.555 160.078 173.076 161.879 172.119 163.465C171.162 165.027 169.84 166.261 168.152 167.168C166.465 168.075 164.551 168.528 162.41 168.528ZM162.41 163.692C163.392 163.692 164.274 163.465 165.054 163.012C165.835 162.559 166.452 161.916 166.906 161.085C167.359 160.229 167.586 159.221 167.586 158.063C167.586 156.879 167.359 155.872 166.906 155.04C166.452 154.209 165.835 153.567 165.054 153.114C164.274 152.66 163.392 152.434 162.41 152.434C161.427 152.434 160.546 152.66 159.765 153.114C158.984 153.567 158.355 154.209 157.876 155.04C157.423 155.872 157.196 156.879 157.196 158.063C157.196 159.221 157.423 160.229 157.876 161.085C158.355 161.916 158.984 162.559 159.765 163.012C160.546 163.465 161.427 163.692 162.41 163.692ZM176.739 168.226V140.193H182.633V168.226H176.739ZM197.019 168.528C194.853 168.528 192.926 168.075 191.238 167.168C189.576 166.261 188.254 165.027 187.271 163.465C186.314 161.879 185.836 160.078 185.836 158.063C185.836 156.023 186.314 154.222 187.271 152.66C188.254 151.073 189.576 149.839 191.238 148.958C192.926 148.051 194.853 147.598 197.019 147.598C199.16 147.598 201.074 148.051 202.761 148.958C204.449 149.839 205.771 151.061 206.728 152.622C207.685 154.184 208.164 155.998 208.164 158.063C208.164 160.078 207.685 161.879 206.728 163.465C205.771 165.027 204.449 166.261 202.761 167.168C201.074 168.075 199.16 168.528 197.019 168.528ZM197.019 163.692C198.001 163.692 198.882 163.465 199.663 163.012C200.444 162.559 201.061 161.916 201.515 161.085C201.968 160.229 202.195 159.221 202.195 158.063C202.195 156.879 201.968 155.872 201.515 155.04C201.061 154.209 200.444 153.567 199.663 153.114C198.882 152.66 198.001 152.434 197.019 152.434C196.036 152.434 195.155 152.66 194.374 153.114C193.593 153.567 192.964 154.209 192.485 155.04C192.032 155.872 191.805 156.879 191.805 158.063C191.805 159.221 192.032 160.229 192.485 161.085C192.964 161.916 193.593 162.559 194.374 163.012C195.155 163.465 196.036 163.692 197.019 163.692ZM220.906 175.857C218.992 175.857 217.141 175.618 215.353 175.14C213.589 174.686 212.116 173.994 210.932 173.062L213.275 168.83C214.131 169.536 215.214 170.09 216.524 170.493C217.859 170.921 219.168 171.135 220.453 171.135C222.543 171.135 224.055 170.669 224.987 169.737C225.944 168.805 226.422 167.42 226.422 165.581V162.521L226.8 157.421L226.724 152.282V147.9H232.316V164.826C232.316 168.604 231.334 171.387 229.369 173.175C227.404 174.963 224.584 175.857 220.906 175.857ZM220 167.244C218.11 167.244 216.398 166.841 214.861 166.035C213.35 165.203 212.129 164.057 211.197 162.597C210.29 161.111 209.837 159.385 209.837 157.421C209.837 155.431 210.29 153.706 211.197 152.245C212.129 150.759 213.35 149.613 214.861 148.807C216.398 148.001 218.11 147.598 220 147.598C221.712 147.598 223.223 147.95 224.533 148.656C225.843 149.336 226.863 150.406 227.593 151.867C228.324 153.303 228.689 155.154 228.689 157.421C228.689 159.662 228.324 161.514 227.593 162.974C226.863 164.41 225.843 165.48 224.533 166.186C223.223 166.891 221.712 167.244 220 167.244ZM221.171 162.408C222.203 162.408 223.123 162.206 223.929 161.803C224.735 161.375 225.364 160.783 225.818 160.027C226.271 159.272 226.498 158.403 226.498 157.421C226.498 156.413 226.271 155.544 225.818 154.814C225.364 154.058 224.735 153.479 223.929 153.076C223.123 152.648 222.203 152.434 221.171 152.434C220.138 152.434 219.219 152.648 218.413 153.076C217.607 153.479 216.964 154.058 216.486 154.814C216.033 155.544 215.806 156.413 215.806 157.421C215.806 158.403 216.033 159.272 216.486 160.027C216.964 160.783 217.607 161.375 218.413 161.803C219.219 162.206 220.138 162.408 221.171 162.408ZM237.046 168.226V147.9H242.94V168.226H237.046ZM239.993 145.066C238.91 145.066 238.028 144.752 237.348 144.122C236.668 143.492 236.328 142.711 236.328 141.78C236.328 140.848 236.668 140.067 237.348 139.437C238.028 138.807 238.91 138.493 239.993 138.493C241.076 138.493 241.957 138.795 242.637 139.399C243.317 139.979 243.657 140.734 243.657 141.666C243.657 142.648 243.317 143.467 242.637 144.122C241.983 144.752 241.101 145.066 239.993 145.066ZM260.121 168.226V164.259L259.744 163.39V156.287C259.744 155.028 259.353 154.046 258.572 153.34C257.817 152.635 256.646 152.282 255.059 152.282C253.976 152.282 252.905 152.459 251.848 152.811C250.815 153.139 249.933 153.592 249.203 154.171L247.087 150.053C248.195 149.273 249.53 148.668 251.092 148.24C252.654 147.812 254.24 147.598 255.852 147.598C258.95 147.598 261.356 148.328 263.068 149.789C264.781 151.25 265.637 153.529 265.637 156.627V168.226H260.121ZM253.925 168.528C252.339 168.528 250.979 168.264 249.845 167.735C248.712 167.181 247.843 166.438 247.238 165.506C246.634 164.574 246.332 163.528 246.332 162.37C246.332 161.161 246.621 160.103 247.201 159.196C247.805 158.29 248.75 157.584 250.034 157.081C251.319 156.552 252.994 156.287 255.059 156.287H260.462V159.725H255.701C254.316 159.725 253.359 159.952 252.83 160.405C252.326 160.859 252.074 161.425 252.074 162.105C252.074 162.861 252.364 163.465 252.943 163.919C253.548 164.347 254.366 164.561 255.399 164.561C256.381 164.561 257.263 164.334 258.044 163.881C258.824 163.403 259.391 162.71 259.744 161.803L260.65 164.523C260.222 165.833 259.441 166.828 258.308 167.508C257.175 168.188 255.714 168.528 253.925 168.528ZM79.8986 185.598C81.5106 185.598 82.9462 185.925 84.2056 186.58C85.4901 187.21 86.4976 188.192 87.228 189.527C87.9585 190.837 88.3237 192.524 88.3237 194.589V206.226H82.4299V195.496C82.4299 193.859 82.0647 192.65 81.3343 191.869C80.629 191.088 79.6216 190.698 78.3118 190.698C77.3799 190.698 76.5362 190.9 75.7806 191.303C75.0501 191.68 74.4708 192.272 74.0427 193.078C73.6397 193.884 73.4382 194.917 73.4382 196.176V206.226H67.5444V185.9H73.1737V191.529L72.1158 189.829C72.8463 188.469 73.8915 187.424 75.2516 186.693C76.6117 185.963 78.1607 185.598 79.8986 185.598ZM103.145 206.528C100.828 206.528 98.7881 206.075 97.025 205.168C95.2871 204.261 93.9396 203.027 92.9825 201.465C92.0254 199.879 91.5468 198.078 91.5468 196.063C91.5468 194.023 92.0128 192.222 92.9447 190.66C93.9018 189.073 95.1989 187.839 96.8361 186.958C98.4732 186.051 100.324 185.598 102.39 185.598C104.38 185.598 106.168 186.026 107.755 186.882C109.367 187.713 110.639 188.922 111.57 190.509C112.502 192.071 112.968 193.947 112.968 196.138C112.968 196.365 112.956 196.63 112.931 196.932C112.905 197.209 112.88 197.473 112.855 197.725H96.3449V194.287H109.757L107.49 195.307C107.49 194.249 107.276 193.33 106.848 192.549C106.42 191.769 105.828 191.164 105.072 190.736C104.317 190.282 103.435 190.056 102.428 190.056C101.42 190.056 100.526 190.282 99.7452 190.736C98.9896 191.164 98.3977 191.781 97.9695 192.587C97.5413 193.368 97.3272 194.3 97.3272 195.383V196.29C97.3272 197.398 97.5665 198.38 98.0451 199.236C98.5488 200.068 99.2414 200.71 100.123 201.163C101.03 201.591 102.088 201.806 103.297 201.806C104.38 201.806 105.324 201.642 106.13 201.314C106.961 200.987 107.717 200.496 108.397 199.841L111.533 203.241C110.601 204.299 109.43 205.118 108.019 205.697C106.609 206.251 104.984 206.528 103.145 206.528ZM124.448 206.528C122.056 206.528 120.192 205.924 118.857 204.715C117.522 203.48 116.854 201.654 116.854 199.236V181.404H122.748V199.161C122.748 200.017 122.975 200.685 123.428 201.163C123.882 201.617 124.499 201.843 125.279 201.843C126.211 201.843 127.005 201.591 127.66 201.088L129.246 205.244C128.642 205.672 127.911 205.999 127.055 206.226C126.224 206.427 125.355 206.528 124.448 206.528ZM113.719 190.887V186.353H127.811V190.887H113.719ZM136.077 206.226L128.748 185.9H134.302L140.384 203.392H137.74L144.087 185.9H149.074L155.232 203.392H152.587L158.859 185.9H164.073L156.705 206.226H151.001L145.598 191.227H147.336L141.744 206.226H136.077ZM175.175 206.528C173.009 206.528 171.082 206.075 169.395 205.168C167.733 204.261 166.41 203.027 165.428 201.465C164.471 199.879 163.992 198.078 163.992 196.063C163.992 194.023 164.471 192.222 165.428 190.66C166.41 189.073 167.733 187.839 169.395 186.958C171.082 186.051 173.009 185.598 175.175 185.598C177.316 185.598 179.23 186.051 180.918 186.958C182.606 187.839 183.928 189.061 184.885 190.622C185.842 192.184 186.321 193.998 186.321 196.063C186.321 198.078 185.842 199.879 184.885 201.465C183.928 203.027 182.606 204.261 180.918 205.168C179.23 206.075 177.316 206.528 175.175 206.528ZM175.175 201.692C176.158 201.692 177.039 201.465 177.82 201.012C178.601 200.559 179.218 199.916 179.671 199.085C180.125 198.229 180.351 197.221 180.351 196.063C180.351 194.879 180.125 193.872 179.671 193.04C179.218 192.209 178.601 191.567 177.82 191.114C177.039 190.66 176.158 190.434 175.175 190.434C174.193 190.434 173.312 190.66 172.531 191.114C171.75 191.567 171.12 192.209 170.642 193.04C170.188 193.872 169.962 194.879 169.962 196.063C169.962 197.221 170.188 198.229 170.642 199.085C171.12 199.916 171.75 200.559 172.531 201.012C173.312 201.465 174.193 201.692 175.175 201.692ZM189.504 206.226V185.9H195.134V191.643L194.34 189.98C194.945 188.545 195.915 187.462 197.249 186.731C198.584 185.976 200.209 185.598 202.123 185.598V191.038C201.871 191.013 201.645 191 201.443 191C201.242 190.975 201.028 190.963 200.801 190.963C199.189 190.963 197.879 191.428 196.872 192.36C195.889 193.267 195.398 194.69 195.398 196.63V206.226H189.504ZM209.783 202.07L209.934 194.892L219.417 185.9H226.444L217.339 195.156L214.278 197.65L209.783 202.07ZM204.909 206.226V178.193H210.803V206.226H204.909ZM220.059 206.226L213.183 197.687L216.885 193.116L227.199 206.226H220.059ZM229.094 206.226V185.9H234.988V206.226H229.094ZM232.041 183.066C230.958 183.066 230.077 182.752 229.397 182.122C228.716 181.492 228.376 180.711 228.376 179.78C228.376 178.848 228.716 178.067 229.397 177.437C230.077 176.807 230.958 176.493 232.041 176.493C233.124 176.493 234.006 176.795 234.686 177.399C235.366 177.979 235.706 178.734 235.706 179.666C235.706 180.648 235.366 181.467 234.686 182.122C234.031 182.752 233.149 183.066 232.041 183.066ZM252.057 185.598C253.668 185.598 255.104 185.925 256.363 186.58C257.648 187.21 258.656 188.192 259.386 189.527C260.116 190.837 260.482 192.524 260.482 194.589V206.226H254.588V195.496C254.588 193.859 254.223 192.65 253.492 191.869C252.787 191.088 251.779 190.698 250.47 190.698C249.538 190.698 248.694 190.9 247.938 191.303C247.208 191.68 246.629 192.272 246.201 193.078C245.798 193.884 245.596 194.917 245.596 196.176V206.226H239.702V185.9H245.332V191.529L244.274 189.829C245.004 188.469 246.049 187.424 247.41 186.693C248.77 185.963 250.319 185.598 252.057 185.598ZM274.774 213.857C272.86 213.857 271.009 213.618 269.221 213.14C267.458 212.686 265.984 211.994 264.8 211.062L267.143 206.83C267.999 207.536 269.082 208.09 270.392 208.493C271.727 208.921 273.036 209.135 274.321 209.135C276.412 209.135 277.923 208.669 278.855 207.737C279.812 206.805 280.29 205.42 280.29 203.581V200.521L280.668 195.421L280.593 190.282V185.9H286.184V202.826C286.184 206.604 285.202 209.387 283.237 211.175C281.273 212.963 278.452 213.857 274.774 213.857ZM273.868 205.244C271.979 205.244 270.266 204.841 268.73 204.035C267.218 203.203 265.997 202.057 265.065 200.597C264.158 199.111 263.705 197.385 263.705 195.421C263.705 193.431 264.158 191.706 265.065 190.245C265.997 188.759 267.218 187.613 268.73 186.807C270.266 186.001 271.979 185.598 273.868 185.598C275.58 185.598 277.092 185.95 278.401 186.656C279.711 187.336 280.731 188.406 281.462 189.867C282.192 191.303 282.557 193.154 282.557 195.421C282.557 197.662 282.192 199.514 281.462 200.974C280.731 202.41 279.711 203.48 278.401 204.186C277.092 204.891 275.58 205.244 273.868 205.244ZM275.039 200.408C276.072 200.408 276.991 200.206 277.797 199.803C278.603 199.375 279.232 198.783 279.686 198.027C280.139 197.272 280.366 196.403 280.366 195.421C280.366 194.413 280.139 193.544 279.686 192.814C279.232 192.058 278.603 191.479 277.797 191.076C276.991 190.648 276.072 190.434 275.039 190.434C274.006 190.434 273.087 190.648 272.281 191.076C271.475 191.479 270.833 192.058 270.354 192.814C269.901 193.544 269.674 194.413 269.674 195.421C269.674 196.403 269.901 197.272 270.354 198.027C270.833 198.783 271.475 199.375 272.281 199.803C273.087 200.206 274.006 200.408 275.039 200.408ZM80.012 244.226V240.259L79.6342 239.39V232.287C79.6342 231.028 79.2438 230.046 78.463 229.34C77.7074 228.635 76.5362 228.282 74.9494 228.282C73.8663 228.282 72.7959 228.459 71.738 228.811C70.7054 229.139 69.8238 229.592 69.0934 230.171L66.9777 226.053C68.0859 225.273 69.4208 224.668 70.9824 224.24C72.544 223.812 74.1308 223.598 75.7428 223.598C78.8408 223.598 81.2461 224.328 82.9588 225.789C84.6716 227.25 85.5279 229.529 85.5279 232.627V244.226H80.012ZM73.816 244.528C72.2292 244.528 70.8691 244.264 69.7357 243.735C68.6023 243.181 67.7333 242.438 67.1288 241.506C66.5243 240.574 66.2221 239.528 66.2221 238.37C66.2221 237.161 66.5117 236.103 67.091 235.196C67.6955 234.29 68.64 233.584 69.9246 233.081C71.2091 232.552 72.8841 232.287 74.9494 232.287H80.352V235.725H75.5917C74.2064 235.725 73.2493 235.952 72.7203 236.405C72.2166 236.859 71.9647 237.425 71.9647 238.105C71.9647 238.861 72.2544 239.465 72.8337 239.919C73.4382 240.347 74.2567 240.561 75.2894 240.561C76.2717 240.561 77.1532 240.334 77.934 239.881C78.7148 239.403 79.2815 238.71 79.6342 237.803L80.5409 240.523C80.1127 241.833 79.3319 242.828 78.1985 243.508C77.0651 244.188 75.6042 244.528 73.816 244.528ZM102.121 244.528C100.408 244.528 98.9093 244.15 97.6247 243.395C96.3402 242.639 95.3327 241.493 94.6023 239.957C93.8971 238.395 93.5445 236.43 93.5445 234.063C93.5445 231.67 93.8845 229.706 94.5645 228.169C95.2446 226.633 96.2269 225.487 97.5114 224.731C98.7959 223.976 100.332 223.598 102.121 223.598C104.035 223.598 105.748 224.038 107.259 224.92C108.795 225.776 110.004 226.985 110.886 228.547C111.792 230.109 112.246 231.947 112.246 234.063C112.246 236.204 111.792 238.055 110.886 239.617C110.004 241.178 108.795 242.387 107.259 243.244C105.748 244.1 104.035 244.528 102.121 244.528ZM90.1064 251.555V223.9H95.7357V228.056L95.6224 234.101L96.0002 240.108V251.555H90.1064ZM101.101 239.692C102.083 239.692 102.952 239.465 103.707 239.012C104.488 238.559 105.105 237.916 105.559 237.085C106.037 236.229 106.276 235.221 106.276 234.063C106.276 232.879 106.037 231.872 105.559 231.04C105.105 230.209 104.488 229.567 103.707 229.114C102.952 228.66 102.083 228.434 101.101 228.434C100.118 228.434 99.2367 228.66 98.4559 229.114C97.6751 229.567 97.058 230.209 96.6047 231.04C96.1513 231.872 95.9246 232.879 95.9246 234.063C95.9246 235.221 96.1513 236.229 96.6047 237.085C97.058 237.916 97.6751 238.559 98.4559 239.012C99.2367 239.465 100.118 239.692 101.101 239.692ZM115.436 244.226V223.9H121.065V229.643L120.271 227.98C120.876 226.545 121.846 225.462 123.181 224.731C124.515 223.976 126.14 223.598 128.054 223.598V229.038C127.802 229.013 127.576 229 127.374 229C127.173 228.975 126.959 228.963 126.732 228.963C125.12 228.963 123.81 229.428 122.803 230.36C121.82 231.267 121.329 232.69 121.329 234.63V244.226H115.436ZM140.743 244.528C138.426 244.528 136.386 244.075 134.622 243.168C132.885 242.261 131.537 241.027 130.58 239.465C129.623 237.879 129.144 236.078 129.144 234.063C129.144 232.023 129.61 230.222 130.542 228.66C131.499 227.073 132.796 225.839 134.434 224.958C136.071 224.051 137.922 223.598 139.987 223.598C141.977 223.598 143.765 224.026 145.352 224.882C146.964 225.713 148.236 226.922 149.168 228.509C150.1 230.071 150.566 231.947 150.566 234.138C150.566 234.365 150.553 234.63 150.528 234.932C150.503 235.209 150.478 235.473 150.452 235.725H133.942V232.287H147.354L145.088 233.307C145.088 232.249 144.874 231.33 144.445 230.549C144.017 229.769 143.425 229.164 142.67 228.736C141.914 228.282 141.033 228.056 140.025 228.056C139.018 228.056 138.123 228.282 137.343 228.736C136.587 229.164 135.995 229.781 135.567 230.587C135.139 231.368 134.925 232.3 134.925 233.383V234.29C134.925 235.398 135.164 236.38 135.643 237.236C136.146 238.068 136.839 238.71 137.72 239.163C138.627 239.591 139.685 239.806 140.894 239.806C141.977 239.806 142.922 239.642 143.728 239.314C144.559 238.987 145.314 238.496 145.994 237.841L149.13 241.241C148.198 242.299 147.027 243.118 145.617 243.697C144.206 244.251 142.582 244.528 140.743 244.528ZM166.088 223.598C167.7 223.598 169.136 223.925 170.395 224.58C171.68 225.21 172.687 226.192 173.418 227.527C174.148 228.837 174.513 230.524 174.513 232.589V244.226H168.62V233.496C168.62 231.859 168.254 230.65 167.524 229.869C166.819 229.088 165.811 228.698 164.501 228.698C163.57 228.698 162.726 228.9 161.97 229.303C161.24 229.68 160.66 230.272 160.232 231.078C159.829 231.884 159.628 232.917 159.628 234.176V244.226H153.734V223.9H159.363V229.529L158.305 227.829C159.036 226.469 160.081 225.424 161.441 224.693C162.801 223.963 164.35 223.598 166.088 223.598ZM187.975 244.528C186.061 244.528 184.335 244.1 182.799 243.244C181.263 242.362 180.041 241.14 179.134 239.579C178.253 238.017 177.812 236.179 177.812 234.063C177.812 231.922 178.253 230.071 179.134 228.509C180.041 226.948 181.263 225.739 182.799 224.882C184.335 224.026 186.061 223.598 187.975 223.598C189.688 223.598 191.186 223.976 192.471 224.731C193.755 225.487 194.75 226.633 195.455 228.169C196.161 229.706 196.513 231.67 196.513 234.063C196.513 236.43 196.173 238.395 195.493 239.957C194.813 241.493 193.831 242.639 192.546 243.395C191.287 244.15 189.763 244.528 187.975 244.528ZM188.995 239.692C189.952 239.692 190.821 239.465 191.602 239.012C192.383 238.559 193 237.916 193.453 237.085C193.932 236.229 194.171 235.221 194.171 234.063C194.171 232.879 193.932 231.872 193.453 231.04C193 230.209 192.383 229.567 191.602 229.114C190.821 228.66 189.952 228.434 188.995 228.434C188.013 228.434 187.131 228.66 186.35 229.114C185.57 229.567 184.94 230.209 184.461 231.04C184.008 231.872 183.781 232.879 183.781 234.063C183.781 235.221 184.008 236.229 184.461 237.085C184.94 237.916 185.57 238.559 186.35 239.012C187.131 239.465 188.013 239.692 188.995 239.692ZM194.322 244.226V240.07L194.435 234.025L194.058 228.018V216.193H199.951V244.226H194.322ZM204.651 244.226V223.9H210.544V244.226H204.651ZM207.597 221.066C206.514 221.066 205.633 220.752 204.953 220.122C204.273 219.492 203.933 218.711 203.933 217.78C203.933 216.848 204.273 216.067 204.953 215.437C205.633 214.807 206.514 214.493 207.597 214.493C208.681 214.493 209.562 214.795 210.242 215.399C210.922 215.979 211.262 216.734 211.262 217.666C211.262 218.648 210.922 219.467 210.242 220.122C209.587 220.752 208.706 221.066 207.597 221.066ZM213.861 244.226V240.674L225.875 226.469L226.895 228.434H214.125V223.9H231.655V227.451L219.641 241.657L218.583 239.692H231.995V244.226H213.861ZM247.484 244.226V240.259L247.106 239.39V232.287C247.106 231.028 246.716 230.046 245.935 229.34C245.18 228.635 244.008 228.282 242.422 228.282C241.339 228.282 240.268 228.459 239.21 228.811C238.178 229.139 237.296 229.592 236.566 230.171L234.45 226.053C235.558 225.273 236.893 224.668 238.455 224.24C240.016 223.812 241.603 223.598 243.215 223.598C246.313 223.598 248.718 224.328 250.431 225.789C252.144 227.25 253 229.529 253 232.627V244.226H247.484ZM241.288 244.528C239.701 244.528 238.341 244.264 237.208 243.735C236.075 243.181 235.206 242.438 234.601 241.506C233.997 240.574 233.694 239.528 233.694 238.37C233.694 237.161 233.984 236.103 234.563 235.196C235.168 234.29 236.112 233.584 237.397 233.081C238.681 232.552 240.356 232.287 242.422 232.287H247.824V235.725H243.064C241.679 235.725 240.722 235.952 240.193 236.405C239.689 236.859 239.437 237.425 239.437 238.105C239.437 238.861 239.727 239.465 240.306 239.919C240.91 240.347 241.729 240.561 242.762 240.561C243.744 240.561 244.625 240.334 245.406 239.881C246.187 239.403 246.754 238.71 247.106 237.803L248.013 240.523C247.585 241.833 246.804 242.828 245.671 243.508C244.537 244.188 243.076 244.528 241.288 244.528ZM267.285 251.857C265.37 251.857 263.519 251.618 261.731 251.14C259.968 250.686 258.494 249.994 257.311 249.062L259.653 244.83C260.509 245.536 261.592 246.09 262.902 246.493C264.237 246.921 265.547 247.135 266.831 247.135C268.922 247.135 270.433 246.669 271.365 245.737C272.322 244.805 272.801 243.42 272.801 241.581V238.521L273.178 233.421L273.103 228.282V223.9H278.694V240.826C278.694 244.604 277.712 247.387 275.748 249.175C273.783 250.963 270.962 251.857 267.285 251.857ZM266.378 243.244C264.489 243.244 262.776 242.841 261.24 242.035C259.729 241.203 258.507 240.057 257.575 238.597C256.668 237.111 256.215 235.385 256.215 233.421C256.215 231.431 256.668 229.706 257.575 228.245C258.507 226.759 259.729 225.613 261.24 224.807C262.776 224.001 264.489 223.598 266.378 223.598C268.091 223.598 269.602 223.95 270.912 224.656C272.221 225.336 273.241 226.406 273.972 227.867C274.702 229.303 275.067 231.154 275.067 233.421C275.067 235.662 274.702 237.514 273.972 238.974C273.241 240.41 272.221 241.48 270.912 242.186C269.602 242.891 268.091 243.244 266.378 243.244ZM267.549 238.408C268.582 238.408 269.501 238.206 270.307 237.803C271.113 237.375 271.743 236.783 272.196 236.027C272.65 235.272 272.876 234.403 272.876 233.421C272.876 232.413 272.65 231.544 272.196 230.814C271.743 230.058 271.113 229.479 270.307 229.076C269.501 228.648 268.582 228.434 267.549 228.434C266.517 228.434 265.597 228.648 264.791 229.076C263.985 229.479 263.343 230.058 262.864 230.814C262.411 231.544 262.184 232.413 262.184 233.421C262.184 234.403 262.411 235.272 262.864 236.027C263.343 236.783 263.985 237.375 264.791 237.803C265.597 238.206 266.517 238.408 267.549 238.408ZM293.512 244.528C291.195 244.528 289.154 244.075 287.391 243.168C285.653 242.261 284.306 241.027 283.349 239.465C282.392 237.879 281.913 236.078 281.913 234.063C281.913 232.023 282.379 230.222 283.311 228.66C284.268 227.073 285.565 225.839 287.202 224.958C288.84 224.051 290.691 223.598 292.756 223.598C294.746 223.598 296.534 224.026 298.121 224.882C299.733 225.713 301.005 226.922 301.937 228.509C302.869 230.071 303.335 231.947 303.335 234.138C303.335 234.365 303.322 234.63 303.297 234.932C303.272 235.209 303.247 235.473 303.221 235.725H286.711V232.287H300.123L297.856 233.307C297.856 232.249 297.642 231.33 297.214 230.549C296.786 229.769 296.194 229.164 295.439 228.736C294.683 228.282 293.801 228.056 292.794 228.056C291.786 228.056 290.892 228.282 290.111 228.736C289.356 229.164 288.764 229.781 288.336 230.587C287.908 231.368 287.694 232.3 287.694 233.383V234.29C287.694 235.398 287.933 236.38 288.411 237.236C288.915 238.068 289.608 238.71 290.489 239.163C291.396 239.591 292.454 239.806 293.663 239.806C294.746 239.806 295.69 239.642 296.496 239.314C297.328 238.987 298.083 238.496 298.763 237.841L301.899 241.241C300.967 242.299 299.796 243.118 298.385 243.697C296.975 244.251 295.35 244.528 293.512 244.528ZM332.534 223.598C334.146 223.598 335.569 223.925 336.803 224.58C338.062 225.21 339.044 226.192 339.75 227.527C340.48 228.837 340.845 230.524 340.845 232.589V244.226H334.952V233.496C334.952 231.859 334.612 230.65 333.932 229.869C333.251 229.088 332.294 228.698 331.06 228.698C330.204 228.698 329.436 228.9 328.756 229.303C328.076 229.68 327.547 230.26 327.169 231.04C326.791 231.821 326.602 232.816 326.602 234.025V244.226H320.708V233.496C320.708 231.859 320.368 230.65 319.688 229.869C319.033 229.088 318.089 228.698 316.855 228.698C315.998 228.698 315.23 228.9 314.55 229.303C313.87 229.68 313.341 230.26 312.963 231.04C312.586 231.821 312.397 232.816 312.397 234.025V244.226H306.503V223.9H312.132V229.454L311.074 227.829C311.78 226.444 312.774 225.399 314.059 224.693C315.369 223.963 316.855 223.598 318.517 223.598C320.381 223.598 322.005 224.076 323.391 225.033C324.801 225.965 325.733 227.401 326.187 229.34L324.109 228.774C324.789 227.187 325.872 225.927 327.358 224.996C328.869 224.064 330.594 223.598 332.534 223.598Z" fill="black"/>
<path d="M278.943 168.679C277.004 168.679 275.279 168.364 273.767 167.735C272.256 167.105 271.06 166.249 270.178 165.166C269.297 164.083 268.856 162.836 268.856 161.425C268.856 160.116 269.146 158.944 269.725 157.912C270.304 156.854 271.223 155.872 272.483 154.965C273.742 154.033 275.342 153.126 277.281 152.245C278.691 151.59 279.8 151.011 280.606 150.507C281.412 150.003 281.978 149.524 282.306 149.071C282.633 148.593 282.797 148.114 282.797 147.635C282.797 146.981 282.57 146.452 282.117 146.049C281.689 145.646 281.046 145.444 280.19 145.444C279.283 145.444 278.578 145.671 278.074 146.124C277.571 146.578 277.319 147.157 277.319 147.862C277.319 148.24 277.394 148.618 277.545 148.996C277.696 149.348 277.986 149.764 278.414 150.242C278.842 150.696 279.447 151.288 280.228 152.018L294.169 164.939L290.957 168.679L275.581 154.398C274.699 153.592 273.994 152.837 273.465 152.131C272.936 151.426 272.546 150.733 272.294 150.053C272.067 149.373 271.954 148.668 271.954 147.938C271.954 146.653 272.294 145.52 272.974 144.537C273.654 143.555 274.611 142.8 275.845 142.271C277.079 141.717 278.528 141.439 280.19 141.439C281.726 141.439 283.049 141.691 284.157 142.195C285.29 142.674 286.172 143.366 286.802 144.273C287.456 145.18 287.784 146.263 287.784 147.522C287.784 148.63 287.507 149.65 286.953 150.582C286.399 151.489 285.53 152.345 284.346 153.151C283.187 153.957 281.663 154.776 279.774 155.607C278.49 156.186 277.47 156.753 276.714 157.307C275.984 157.836 275.455 158.378 275.127 158.932C274.8 159.486 274.636 160.103 274.636 160.783C274.636 161.413 274.825 161.979 275.203 162.483C275.606 162.987 276.16 163.377 276.865 163.654C277.571 163.931 278.402 164.07 279.359 164.07C280.895 164.07 282.306 163.717 283.59 163.012C284.875 162.282 285.958 161.211 286.839 159.801C287.746 158.365 288.388 156.627 288.766 154.587L293.489 156.061C292.96 158.63 292.015 160.859 290.655 162.748C289.295 164.637 287.62 166.098 285.63 167.13C283.641 168.163 281.412 168.679 278.943 168.679ZM299.641 206.679C297.702 206.679 295.977 206.364 294.465 205.735C292.954 205.105 291.758 204.249 290.876 203.166C289.995 202.083 289.554 200.836 289.554 199.425C289.554 198.116 289.844 196.944 290.423 195.912C291.002 194.854 291.922 193.872 293.181 192.965C294.44 192.033 296.04 191.126 297.979 190.245C299.389 189.59 300.498 189.011 301.304 188.507C302.11 188.003 302.676 187.524 303.004 187.071C303.331 186.593 303.495 186.114 303.495 185.635C303.495 184.981 303.268 184.452 302.815 184.049C302.387 183.646 301.744 183.444 300.888 183.444C299.981 183.444 299.276 183.671 298.772 184.124C298.269 184.578 298.017 185.157 298.017 185.862C298.017 186.24 298.092 186.618 298.243 186.996C298.395 187.348 298.684 187.764 299.112 188.242C299.541 188.696 300.145 189.288 300.926 190.018L314.867 202.939L311.656 206.679L296.279 192.398C295.397 191.592 294.692 190.837 294.163 190.131C293.634 189.426 293.244 188.733 292.992 188.053C292.765 187.373 292.652 186.668 292.652 185.938C292.652 184.653 292.992 183.52 293.672 182.537C294.352 181.555 295.309 180.8 296.543 180.271C297.777 179.717 299.226 179.439 300.888 179.439C302.424 179.439 303.747 179.691 304.855 180.195C305.988 180.674 306.87 181.366 307.5 182.273C308.155 183.18 308.482 184.263 308.482 185.522C308.482 186.63 308.205 187.65 307.651 188.582C307.097 189.489 306.228 190.345 305.044 191.151C303.885 191.957 302.362 192.776 300.472 193.607C299.188 194.186 298.168 194.753 297.412 195.307C296.682 195.836 296.153 196.378 295.825 196.932C295.498 197.486 295.334 198.103 295.334 198.783C295.334 199.413 295.523 199.979 295.901 200.483C296.304 200.987 296.858 201.377 297.563 201.654C298.269 201.931 299.1 202.07 300.057 202.07C301.593 202.07 303.004 201.717 304.288 201.012C305.573 200.282 306.656 199.211 307.537 197.801C308.444 196.365 309.086 194.627 309.464 192.587L314.187 194.061C313.658 196.63 312.713 198.859 311.353 200.748C309.993 202.637 308.318 204.098 306.328 205.13C304.339 206.163 302.11 206.679 299.641 206.679Z" fill="#4BC9F1"/>
</g>
<g clip-path="url(#clip2_31_2547)">
<path d="M360 384L311 338L409 338L360 384Z" fill="#4361EE"/>
</g>
</g>
<defs>
<clipPath id="clip0_31_2547">
<rect width="360" height="383" fill="white"/>
</clipPath>
<clipPath id="clip1_31_2547">
<rect width="360" height="338" fill="white"/>
</clipPath>
<clipPath id="clip2_31_2547">
<rect width="360" height="77" fill="white" transform="translate(0 316)"/>
</clipPath>
</defs>
</svg>
