<svg width="1280" height="580" viewBox="0 0 1280 580" fill="none" xmlns="http://www.w3.org/2000/svg">
<g clip-path="url(#clip0_31_2547)">
<rect width="1280" height="440" fill="#FAFAFA"/>
<g clip-path="url(#clip1_31_2547)">
<path d="M1281.15 439.967L1134.3 303L1428 303L1281.15 439.967Z" fill="#4361EE"/>
</g>
<path d="M556.265 97.3833L353.999 111.6L394.394 165.95L551.682 141.038L556.265 97.3833Z" fill="#4361EE"/>
<path d="M446.317 133.849C447.581 133.649 448.738 133.729 449.787 134.089C450.853 134.427 451.746 135.075 452.464 136.034C453.2 136.971 453.696 138.249 453.953 139.869L455.398 148.995L450.776 149.727L449.443 141.312C449.24 140.028 448.823 139.122 448.192 138.594C447.562 138.066 446.763 137.879 445.795 138.032C445.123 138.139 444.546 138.392 444.063 138.793C443.576 139.173 443.233 139.694 443.034 140.353C442.835 141.012 442.81 141.816 442.96 142.764L444.227 150.764L439.605 151.496L438.272 143.081C438.069 141.797 437.652 140.891 437.022 140.363C436.411 139.832 435.622 139.644 434.654 139.797C433.982 139.903 433.405 140.157 432.921 140.557C432.435 140.938 432.092 141.458 431.893 142.117C431.693 142.777 431.669 143.58 431.819 144.529L433.086 152.529L428.464 153.261L425.939 137.32L430.354 136.62L431.044 140.976L430.012 139.833C430.393 138.659 431.044 137.716 431.964 137.003C432.9 136.268 434.02 135.797 435.324 135.59C436.786 135.359 438.119 135.532 439.325 136.111C440.547 136.667 441.456 137.677 442.052 139.141L440.352 138.955C440.688 137.626 441.381 136.504 442.431 135.588C443.501 134.67 444.796 134.09 446.317 133.849ZM466.009 147.557C464.685 147.767 463.459 147.698 462.331 147.35C461.222 146.999 460.299 146.346 459.56 145.39C458.818 144.414 458.318 143.106 458.058 141.466L456.631 132.459L461.254 131.726L462.572 140.053C462.782 141.376 463.213 142.31 463.867 142.855C464.536 143.376 465.385 143.556 466.412 143.393C467.123 143.28 467.732 143.032 468.238 142.648C468.741 142.245 469.101 141.702 469.317 141.02C469.529 140.318 469.559 139.483 469.406 138.515L468.158 130.633L472.78 129.901L475.305 145.842L470.919 146.537L470.225 142.151L471.227 143.299C470.869 144.489 470.211 145.454 469.255 146.193C468.316 146.909 467.233 147.363 466.009 147.557ZM479.291 145.211L476.766 129.27L481.388 128.537L483.913 144.479L479.291 145.211ZM478.725 126.681C477.876 126.816 477.145 126.678 476.534 126.269C475.922 125.86 475.558 125.289 475.443 124.559C475.327 123.828 475.497 123.173 475.952 122.595C476.407 122.016 477.059 121.66 477.909 121.525C478.758 121.391 479.487 121.518 480.095 121.908C480.701 122.278 481.061 122.828 481.177 123.559C481.299 124.33 481.134 125.014 480.682 125.612C480.247 126.187 479.594 126.543 478.725 126.681ZM494.463 143.051C492.587 143.348 491.05 143.105 489.853 142.323C488.652 141.521 487.902 140.172 487.602 138.275L485.386 124.29L490.009 123.558L492.215 137.484C492.321 138.156 492.582 138.651 492.997 138.97C493.409 139.269 493.921 139.37 494.533 139.273C495.264 139.158 495.855 138.861 496.306 138.385L498.067 141.447C497.646 141.858 497.114 142.206 496.47 142.49C495.843 142.751 495.174 142.938 494.463 143.051ZM484.105 132.116L483.542 128.561L494.594 126.81L495.157 130.366L484.105 132.116ZM510.265 140.305L509.772 137.194L509.368 136.559L508.486 130.989C508.33 130.001 507.901 129.279 507.201 128.823C506.521 128.364 505.559 128.233 504.314 128.43C503.465 128.564 502.647 128.835 501.861 129.243C501.092 129.628 500.457 130.094 499.956 130.639L497.785 127.672C498.557 126.922 499.529 126.282 500.701 125.752C501.872 125.222 503.09 124.857 504.355 124.657C506.784 124.272 508.762 124.546 510.286 125.479C511.811 126.412 512.766 128.093 513.151 130.523L514.591 139.62L510.265 140.305ZM505.443 141.312C504.199 141.509 503.099 141.47 502.145 141.196C501.187 140.902 500.413 140.428 499.823 139.772C499.233 139.116 498.867 138.334 498.723 137.425C498.572 136.477 498.668 135.611 499.01 134.828C499.371 134.042 500.025 133.372 500.969 132.817C501.911 132.243 503.192 131.827 504.812 131.571L509.049 130.899L509.476 133.596L505.743 134.187C504.656 134.359 503.934 134.656 503.575 135.077C503.236 135.495 503.109 135.971 503.194 136.504C503.288 137.097 503.59 137.535 504.1 137.819C504.628 138.079 505.296 138.146 506.106 138.017C506.877 137.895 507.54 137.608 508.096 137.156C508.649 136.683 509.007 136.07 509.171 135.315L510.22 137.335C510.047 138.416 509.558 139.293 508.754 139.967C507.949 140.641 506.846 141.089 505.443 141.312Z" fill="white"/>
<path d="M416.866 121.459C416.98 121.886 417.224 122.227 417.599 122.481C417.978 122.73 418.46 122.824 419.045 122.762C419.503 122.714 419.892 122.602 420.212 122.427C420.537 122.246 420.809 122.025 421.029 121.763L421.854 122.68C421.489 123.131 421.086 123.455 420.644 123.653C420.206 123.85 419.718 123.977 419.178 124.034C418.689 124.085 418.225 124.051 417.786 123.933C417.347 123.814 416.959 123.625 416.62 123.368C416.281 123.106 416.002 122.782 415.783 122.397C415.568 122.012 415.435 121.572 415.383 121.078C415.332 120.598 415.365 120.148 415.481 119.728C415.602 119.303 415.791 118.927 416.051 118.602C416.314 118.272 416.641 118.004 417.031 117.798C417.422 117.588 417.864 117.456 418.358 117.404C418.87 117.351 419.344 117.39 419.779 117.523C420.215 117.651 420.597 117.866 420.926 118.166C421.26 118.465 421.536 118.846 421.754 119.309C421.972 119.767 422.113 120.298 422.176 120.9L416.866 121.459ZM420.455 119.83C420.34 119.43 420.095 119.126 419.72 118.918C419.345 118.705 418.935 118.622 418.491 118.669C418.047 118.716 417.661 118.882 417.334 119.169C417.006 119.451 416.827 119.799 416.797 120.215L420.455 119.83ZM429.419 120.882C429.462 121.294 429.404 121.639 429.246 121.917C429.087 122.195 428.869 122.429 428.591 122.618C428.317 122.807 428.002 122.95 427.646 123.047C427.295 123.149 426.947 123.217 426.602 123.253C426.027 123.314 425.445 123.29 424.856 123.183C424.267 123.075 423.75 122.907 423.304 122.679L423.768 121.462C424.297 121.699 424.774 121.858 425.199 121.937C425.629 122.011 426.052 122.026 426.469 121.982C427.035 121.923 427.441 121.82 427.687 121.675C427.933 121.526 428.044 121.344 428.022 121.131C428.011 121.027 427.966 120.945 427.886 120.885C427.806 120.824 427.68 120.776 427.507 120.739C427.333 120.698 427.105 120.664 426.822 120.639C426.544 120.609 426.198 120.583 425.783 120.563C425.451 120.542 425.134 120.509 424.831 120.463C424.533 120.412 424.265 120.326 424.027 120.204C423.79 120.082 423.592 119.918 423.432 119.71C423.278 119.502 423.183 119.23 423.147 118.894C423.112 118.554 423.167 118.251 423.313 117.983C423.463 117.711 423.67 117.478 423.934 117.286C424.202 117.093 424.509 116.941 424.855 116.832C425.201 116.722 425.551 116.648 425.904 116.611C426.403 116.559 426.892 116.574 427.373 116.656C427.858 116.734 428.289 116.874 428.668 117.077L428.225 118.223C427.848 118.038 427.488 117.925 427.145 117.883C426.805 117.836 426.436 117.834 426.037 117.876C425.869 117.893 425.696 117.921 425.516 117.958C425.337 117.995 425.173 118.049 425.025 118.12C424.876 118.186 424.754 118.27 424.659 118.371C424.569 118.468 424.53 118.579 424.543 118.706C424.561 118.874 424.723 118.997 425.029 119.075C425.339 119.147 425.858 119.198 426.585 119.227C426.98 119.241 427.343 119.274 427.674 119.326C428.005 119.374 428.293 119.458 428.539 119.579C428.785 119.695 428.984 119.86 429.134 120.073C429.289 120.281 429.384 120.551 429.419 120.882ZM437.019 120.083C437.063 120.495 437.005 120.84 436.846 121.118C436.688 121.396 436.469 121.63 436.191 121.819C435.918 122.008 435.603 122.152 435.247 122.249C434.895 122.35 434.547 122.418 434.203 122.455C433.627 122.515 433.045 122.491 432.457 122.384C431.868 122.276 431.351 122.108 430.905 121.88L431.368 120.663C431.897 120.901 432.375 121.059 432.8 121.138C433.229 121.212 433.652 121.227 434.069 121.183C434.636 121.124 435.042 121.021 435.288 120.876C435.534 120.727 435.645 120.546 435.623 120.333C435.612 120.228 435.567 120.146 435.487 120.086C435.407 120.025 435.281 119.977 435.107 119.94C434.933 119.899 434.705 119.865 434.423 119.84C434.145 119.81 433.799 119.784 433.384 119.764C433.052 119.744 432.735 119.71 432.432 119.664C432.133 119.613 431.865 119.527 431.628 119.405C431.391 119.284 431.192 119.119 431.033 118.911C430.878 118.703 430.783 118.431 430.748 118.095C430.712 117.756 430.767 117.452 430.913 117.185C431.064 116.912 431.27 116.68 431.534 116.487C431.803 116.294 432.11 116.142 432.456 116.033C432.802 115.923 433.151 115.85 433.505 115.812C434.003 115.76 434.493 115.775 434.974 115.857C435.458 115.935 435.89 116.075 436.269 116.278L435.826 117.424C435.449 117.239 435.089 117.126 434.745 117.084C434.406 117.037 434.037 117.035 433.638 117.077C433.47 117.095 433.297 117.122 433.117 117.159C432.938 117.196 432.774 117.25 432.626 117.321C432.477 117.387 432.355 117.471 432.26 117.572C432.17 117.669 432.131 117.781 432.144 117.908C432.162 118.075 432.324 118.198 432.63 118.276C432.94 118.349 433.458 118.399 434.185 118.428C434.581 118.442 434.944 118.475 435.275 118.527C435.605 118.575 435.894 118.659 436.14 118.78C436.386 118.896 436.584 119.061 436.735 119.274C436.89 119.482 436.985 119.752 437.019 120.083ZM439.668 119.062C439.782 119.49 440.026 119.831 440.401 120.085C440.78 120.334 441.262 120.427 441.847 120.366C442.305 120.318 442.694 120.206 443.014 120.03C443.339 119.849 443.611 119.628 443.831 119.367L444.656 120.284C444.291 120.734 443.888 121.059 443.446 121.256C443.008 121.453 442.52 121.58 441.98 121.637C441.491 121.689 441.027 121.655 440.588 121.536C440.15 121.417 439.761 121.229 439.422 120.971C439.083 120.709 438.804 120.385 438.585 120.001C438.37 119.615 438.237 119.176 438.185 118.682C438.134 118.201 438.167 117.751 438.284 117.331C438.404 116.906 438.594 116.531 438.853 116.206C439.116 115.876 439.443 115.608 439.834 115.402C440.224 115.191 440.666 115.06 441.16 115.008C441.672 114.954 442.146 114.994 442.582 115.126C443.017 115.255 443.399 115.469 443.728 115.769C444.062 116.068 444.338 116.449 444.556 116.912C444.774 117.371 444.915 117.901 444.978 118.504L439.668 119.062ZM443.257 117.434C443.142 117.033 442.897 116.729 442.522 116.521C442.147 116.309 441.737 116.226 441.293 116.272C440.849 116.319 440.463 116.486 440.136 116.772C439.808 117.054 439.629 117.403 439.6 117.818L443.257 117.434ZM453.636 118.412C453.597 118.04 453.663 117.706 453.833 117.408C454.003 117.106 454.239 116.845 454.541 116.626C454.848 116.406 455.205 116.228 455.612 116.094C456.024 115.954 456.447 115.862 456.882 115.816C457.123 115.791 457.329 115.774 457.502 115.765C457.676 115.756 457.852 115.751 458.03 115.75L458.004 115.499C457.969 115.168 457.814 114.935 457.538 114.799C457.267 114.662 456.923 114.616 456.507 114.66C456.126 114.7 455.744 114.795 455.361 114.945C454.978 115.091 454.62 115.284 454.288 115.525L453.601 114.484C453.993 114.2 454.42 113.965 454.881 113.779C455.347 113.588 455.845 113.464 456.375 113.409C456.719 113.372 457.061 113.375 457.4 113.418C457.744 113.46 458.056 113.555 458.338 113.704C458.624 113.853 458.861 114.062 459.05 114.33C459.238 114.595 459.354 114.935 459.397 115.352L459.844 119.601L458.45 119.748L458.353 118.817C458.167 119.184 457.866 119.486 457.451 119.722C457.04 119.958 456.586 120.102 456.087 120.154C455.779 120.187 455.482 120.174 455.197 120.117C454.916 120.064 454.667 119.965 454.45 119.818C454.233 119.671 454.051 119.482 453.903 119.25C453.759 119.013 453.67 118.734 453.636 118.412ZM456.315 118.859C456.592 118.83 456.847 118.769 457.08 118.675C457.317 118.577 457.522 118.457 457.695 118.315C457.867 118.169 457.996 118.002 458.082 117.814C458.172 117.626 458.206 117.425 458.184 117.212L458.159 116.974C457.933 116.961 457.722 116.963 457.527 116.979C457.332 116.995 457.159 117.01 457.01 117.026C456.321 117.099 455.809 117.244 455.474 117.462C455.145 117.68 454.994 117.923 455.022 118.191C455.077 118.721 455.509 118.944 456.315 118.859ZM467.458 118.801L466.051 118.949L465.64 115.04C465.588 114.546 465.459 114.213 465.254 114.043C465.048 113.872 464.768 113.805 464.415 113.842C463.893 113.897 463.489 114.152 463.203 114.609C462.921 115.065 462.819 115.664 462.897 116.407L463.196 119.249L461.788 119.397L461.122 113.061L462.53 112.913L462.697 114.504C462.78 113.941 462.996 113.487 463.344 113.144C463.693 112.795 464.146 112.592 464.703 112.533C465.351 112.465 465.881 112.623 466.292 113.006C466.704 113.388 466.956 114.017 467.048 114.892L467.458 118.801ZM475.223 114.789C475.275 115.283 475.243 115.74 475.127 116.16C475.015 116.58 474.827 116.952 474.564 117.278C474.304 117.598 473.979 117.861 473.588 118.068C473.197 118.274 472.75 118.403 472.247 118.456C471.753 118.508 471.294 118.474 470.869 118.353C470.444 118.233 470.069 118.043 469.744 117.784C469.422 117.52 469.161 117.195 468.96 116.808C468.764 116.421 468.64 115.98 468.588 115.486C468.537 115.006 468.568 114.554 468.679 114.129C468.794 113.7 468.981 113.323 469.24 112.998C469.504 112.668 469.831 112.402 470.222 112.201C470.613 111.995 471.055 111.866 471.549 111.814C472.052 111.761 472.516 111.795 472.941 111.915C473.366 112.031 473.739 112.223 474.061 112.491C474.386 112.755 474.648 113.085 474.845 113.481C475.047 113.873 475.173 114.308 475.223 114.789ZM473.823 114.936C473.793 114.65 473.719 114.386 473.602 114.141C473.488 113.892 473.338 113.686 473.152 113.522C472.965 113.358 472.746 113.237 472.495 113.158C472.248 113.074 471.977 113.047 471.682 113.078C471.383 113.11 471.121 113.192 470.897 113.326C470.672 113.455 470.488 113.619 470.344 113.817C470.2 114.015 470.096 114.249 470.032 114.516C469.973 114.779 469.958 115.053 469.988 115.339C470.02 115.638 470.091 115.906 470.203 116.141C470.32 116.376 470.469 116.578 470.652 116.747C470.835 116.916 471.049 117.04 471.296 117.119C471.542 117.194 471.815 117.216 472.114 117.185C472.408 117.154 472.668 117.076 472.893 116.951C473.123 116.822 473.311 116.655 473.46 116.452C473.608 116.249 473.712 116.02 473.772 115.766C473.837 115.512 473.854 115.235 473.823 114.936ZM490.261 115.49C489.896 115.941 489.494 116.265 489.057 116.462C488.624 116.659 488.145 116.785 487.619 116.84C487.088 116.896 486.597 116.867 486.146 116.755C485.698 116.641 485.308 116.458 484.974 116.204C484.645 115.945 484.377 115.621 484.171 115.23C483.969 114.839 483.842 114.392 483.789 113.888C483.739 113.408 483.771 112.956 483.887 112.531C484.007 112.101 484.188 111.727 484.429 111.409C484.675 111.085 484.975 110.822 485.329 110.62C485.683 110.413 486.069 110.288 486.486 110.244C486.921 110.198 487.309 110.249 487.649 110.397C487.99 110.544 488.252 110.785 488.433 111.118L488.337 110.201L489.595 110.068L489.905 113.019L488.647 113.151C488.588 112.594 488.388 112.166 488.045 111.867C487.706 111.564 487.291 111.438 486.802 111.489C486.607 111.51 486.405 111.572 486.196 111.677C485.991 111.776 485.807 111.919 485.643 112.106C485.484 112.292 485.359 112.521 485.269 112.791C485.178 113.062 485.152 113.379 485.19 113.741C485.227 114.095 485.316 114.395 485.456 114.641C485.596 114.883 485.766 115.078 485.964 115.227C486.167 115.371 486.398 115.472 486.656 115.532C486.919 115.587 487.184 115.601 487.451 115.573C487.909 115.524 488.298 115.413 488.619 115.237C488.943 115.056 489.216 114.835 489.436 114.574L490.261 115.49ZM498.025 112.392C498.077 112.886 498.045 113.343 497.929 113.763C497.817 114.183 497.629 114.555 497.366 114.881C497.106 115.202 496.781 115.465 496.39 115.671C496 115.877 495.553 116.006 495.05 116.059C494.555 116.111 494.096 116.077 493.671 115.957C493.246 115.836 492.871 115.647 492.546 115.388C492.225 115.124 491.964 114.798 491.763 114.411C491.566 114.024 491.442 113.584 491.39 113.09C491.339 112.609 491.37 112.157 491.481 111.733C491.596 111.304 491.784 110.927 492.043 110.602C492.306 110.271 492.633 110.006 493.024 109.804C493.415 109.598 493.857 109.469 494.351 109.417C494.854 109.364 495.319 109.398 495.744 109.518C496.168 109.634 496.541 109.826 496.863 110.095C497.188 110.359 497.45 110.688 497.647 111.085C497.849 111.476 497.975 111.912 498.025 112.392ZM496.625 112.539C496.595 112.254 496.521 111.989 496.404 111.745C496.291 111.495 496.14 111.289 495.954 111.125C495.767 110.962 495.548 110.84 495.297 110.761C495.05 110.677 494.779 110.651 494.484 110.682C494.185 110.713 493.923 110.796 493.699 110.929C493.474 111.058 493.29 111.222 493.146 111.42C493.002 111.619 492.898 111.852 492.835 112.12C492.775 112.383 492.76 112.657 492.79 112.942C492.822 113.242 492.894 113.509 493.005 113.745C493.122 113.98 493.271 114.182 493.454 114.351C493.637 114.519 493.851 114.643 494.098 114.723C494.344 114.798 494.617 114.819 494.916 114.788C495.21 114.757 495.47 114.679 495.696 114.555C495.925 114.425 496.114 114.259 496.262 114.055C496.41 113.852 496.514 113.623 496.575 113.37C496.639 113.115 496.656 112.839 496.625 112.539ZM505.795 114.772L504.388 114.92L503.931 110.575C503.9 110.276 503.845 110.06 503.767 109.926C503.693 109.787 503.578 109.726 503.424 109.742C503.143 109.772 502.981 109.949 502.937 110.274C502.898 110.595 502.909 111.056 502.973 111.659L503.327 115.031L501.92 115.179L501.463 110.835C501.432 110.536 501.377 110.319 501.299 110.185C501.22 110.047 501.101 109.986 500.943 110.003C500.666 110.032 500.509 110.209 500.469 110.534C500.434 110.854 500.448 111.315 500.512 111.918L500.866 115.29L499.459 115.438L498.793 109.102L500.214 108.952L500.31 109.87C500.373 109.511 500.493 109.23 500.669 109.028C500.844 108.826 501.095 108.708 501.422 108.674C501.694 108.645 501.929 108.705 502.128 108.854C502.331 108.998 502.482 109.211 502.58 109.494C502.706 109.16 502.844 108.909 502.996 108.742C503.152 108.57 503.407 108.465 503.76 108.428C504.196 108.383 504.546 108.508 504.811 108.806C505.08 109.098 505.248 109.569 505.316 110.217L505.795 114.772Z" fill="white"/>
<path d="M458.784 219.528C454.604 219.528 451.348 218.472 449.016 216.36C446.684 214.204 445.518 211.014 445.518 206.79V175.638H455.814V206.658C455.814 208.154 456.21 209.32 457.002 210.156C457.794 210.948 458.872 211.344 460.236 211.344C461.864 211.344 463.25 210.904 464.394 210.024L467.166 217.284C466.11 218.032 464.834 218.604 463.338 219C461.886 219.352 460.368 219.528 458.784 219.528ZM440.04 192.204V184.284H464.658V192.204H440.04ZM488.152 219.528C484.104 219.528 480.54 218.736 477.46 217.152C474.424 215.568 472.07 213.412 470.398 210.684C468.726 207.912 467.89 204.766 467.89 201.246C467.89 197.682 468.704 194.536 470.332 191.808C472.004 189.036 474.27 186.88 477.13 185.34C479.99 183.756 483.224 182.964 486.832 182.964C490.308 182.964 493.432 183.712 496.204 185.208C499.02 186.66 501.242 188.772 502.87 191.544C504.498 194.272 505.312 197.55 505.312 201.378C505.312 201.774 505.29 202.236 505.246 202.764C505.202 203.248 505.158 203.71 505.114 204.15H476.272V198.144H499.702L495.742 199.926C495.742 198.078 495.368 196.472 494.62 195.108C493.872 193.744 492.838 192.688 491.518 191.94C490.198 191.148 488.658 190.752 486.898 190.752C485.138 190.752 483.576 191.148 482.212 191.94C480.892 192.688 479.858 193.766 479.11 195.174C478.362 196.538 477.988 198.166 477.988 200.058V201.642C477.988 203.578 478.406 205.294 479.242 206.79C480.122 208.242 481.332 209.364 482.872 210.156C484.456 210.904 486.304 211.278 488.416 211.278C490.308 211.278 491.958 210.992 493.366 210.42C494.818 209.848 496.138 208.99 497.326 207.846L502.804 213.786C501.176 215.634 499.13 217.064 496.666 218.076C494.202 219.044 491.364 219.528 488.152 219.528ZM528.006 219.528C524.178 219.528 520.768 218.758 517.776 217.218C514.784 215.634 512.43 213.456 510.714 210.684C509.042 207.912 508.206 204.766 508.206 201.246C508.206 197.682 509.042 194.536 510.714 191.808C512.43 189.036 514.784 186.88 517.776 185.34C520.768 183.756 524.178 182.964 528.006 182.964C531.746 182.964 535.002 183.756 537.774 185.34C540.546 186.88 542.592 189.102 543.912 192.006L535.926 196.296C535.002 194.624 533.836 193.392 532.428 192.6C531.064 191.808 529.568 191.412 527.94 191.412C526.18 191.412 524.596 191.808 523.188 192.6C521.78 193.392 520.658 194.514 519.822 195.966C519.03 197.418 518.634 199.178 518.634 201.246C518.634 203.314 519.03 205.074 519.822 206.526C520.658 207.978 521.78 209.1 523.188 209.892C524.596 210.684 526.18 211.08 527.94 211.08C529.568 211.08 531.064 210.706 532.428 209.958C533.836 209.166 535.002 207.912 535.926 206.196L543.912 210.552C542.592 213.412 540.546 215.634 537.774 217.218C535.002 218.758 531.746 219.528 528.006 219.528ZM570.103 182.964C572.919 182.964 575.427 183.536 577.627 184.68C579.871 185.78 581.631 187.496 582.907 189.828C584.183 192.116 584.821 195.064 584.821 198.672V219H574.525V200.256C574.525 197.396 573.887 195.284 572.611 193.92C571.379 192.556 569.619 191.874 567.331 191.874C565.703 191.874 564.229 192.226 562.909 192.93C561.633 193.59 560.621 194.624 559.873 196.032C559.169 197.44 558.817 199.244 558.817 201.444V219H548.521V183.492H558.355V193.326L556.507 190.356C557.783 187.98 559.609 186.154 561.985 184.878C564.361 183.602 567.067 182.964 570.103 182.964ZM609.987 219.528C606.203 219.528 602.837 218.736 599.889 217.152C596.985 215.568 594.675 213.412 592.959 210.684C591.287 207.912 590.451 204.766 590.451 201.246C590.451 197.682 591.287 194.536 592.959 191.808C594.675 189.036 596.985 186.88 599.889 185.34C602.837 183.756 606.203 182.964 609.987 182.964C613.727 182.964 617.071 183.756 620.019 185.34C622.967 186.88 625.277 189.014 626.949 191.742C628.621 194.47 629.457 197.638 629.457 201.246C629.457 204.766 628.621 207.912 626.949 210.684C625.277 213.412 622.967 215.568 620.019 217.152C617.071 218.736 613.727 219.528 609.987 219.528ZM609.987 211.08C611.703 211.08 613.243 210.684 614.607 209.892C615.971 209.1 617.049 207.978 617.841 206.526C618.633 205.03 619.029 203.27 619.029 201.246C619.029 199.178 618.633 197.418 617.841 195.966C617.049 194.514 615.971 193.392 614.607 192.6C613.243 191.808 611.703 191.412 609.987 191.412C608.271 191.412 606.731 191.808 605.367 192.6C604.003 193.392 602.903 194.514 602.067 195.966C601.275 197.418 600.879 199.178 600.879 201.246C600.879 203.27 601.275 205.03 602.067 206.526C602.903 207.978 604.003 209.1 605.367 209.892C606.731 210.684 608.271 211.08 609.987 211.08ZM635.019 219V170.028H645.315V219H635.019ZM670.447 219.528C666.663 219.528 663.297 218.736 660.349 217.152C657.445 215.568 655.135 213.412 653.419 210.684C651.747 207.912 650.911 204.766 650.911 201.246C650.911 197.682 651.747 194.536 653.419 191.808C655.135 189.036 657.445 186.88 660.349 185.34C663.297 183.756 666.663 182.964 670.447 182.964C674.187 182.964 677.531 183.756 680.479 185.34C683.427 186.88 685.737 189.014 687.409 191.742C689.081 194.47 689.917 197.638 689.917 201.246C689.917 204.766 689.081 207.912 687.409 210.684C685.737 213.412 683.427 215.568 680.479 217.152C677.531 218.736 674.187 219.528 670.447 219.528ZM670.447 211.08C672.163 211.08 673.703 210.684 675.067 209.892C676.431 209.1 677.509 207.978 678.301 206.526C679.093 205.03 679.489 203.27 679.489 201.246C679.489 199.178 679.093 197.418 678.301 195.966C677.509 194.514 676.431 193.392 675.067 192.6C673.703 191.808 672.163 191.412 670.447 191.412C668.731 191.412 667.191 191.808 665.827 192.6C664.463 193.392 663.363 194.514 662.527 195.966C661.735 197.418 661.339 199.178 661.339 201.246C661.339 203.27 661.735 205.03 662.527 206.526C663.363 207.978 664.463 209.1 665.827 209.892C667.191 210.684 668.731 211.08 670.447 211.08ZM712.177 232.332C708.833 232.332 705.599 231.914 702.475 231.078C699.395 230.286 696.821 229.076 694.753 227.448L698.845 220.056C700.341 221.288 702.233 222.256 704.521 222.96C706.853 223.708 709.141 224.082 711.385 224.082C715.037 224.082 717.677 223.268 719.305 221.64C720.977 220.012 721.813 217.592 721.813 214.38V209.034L722.473 200.124L722.341 191.148V183.492H732.109V213.06C732.109 219.66 730.393 224.522 726.961 227.646C723.529 230.77 718.601 232.332 712.177 232.332ZM710.593 217.284C707.293 217.284 704.301 216.58 701.617 215.172C698.977 213.72 696.843 211.718 695.215 209.166C693.631 206.57 692.839 203.556 692.839 200.124C692.839 196.648 693.631 193.634 695.215 191.082C696.843 188.486 698.977 186.484 701.617 185.076C704.301 183.668 707.293 182.964 710.593 182.964C713.585 182.964 716.225 183.58 718.513 184.812C720.801 186 722.583 187.87 723.859 190.422C725.135 192.93 725.773 196.164 725.773 200.124C725.773 204.04 725.135 207.274 723.859 209.826C722.583 212.334 720.801 214.204 718.513 215.436C716.225 216.668 713.585 217.284 710.593 217.284ZM712.639 208.836C714.443 208.836 716.049 208.484 717.457 207.78C718.865 207.032 719.965 205.998 720.757 204.678C721.549 203.358 721.945 201.84 721.945 200.124C721.945 198.364 721.549 196.846 720.757 195.57C719.965 194.25 718.865 193.238 717.457 192.534C716.049 191.786 714.443 191.412 712.639 191.412C710.835 191.412 709.229 191.786 707.821 192.534C706.413 193.238 705.291 194.25 704.455 195.57C703.663 196.846 703.267 198.364 703.267 200.124C703.267 201.84 703.663 203.358 704.455 204.678C705.291 205.998 706.413 207.032 707.821 207.78C709.229 208.484 710.835 208.836 712.639 208.836ZM740.372 219V183.492H750.668V219H740.372ZM745.52 178.542C743.628 178.542 742.088 177.992 740.9 176.892C739.712 175.792 739.118 174.428 739.118 172.8C739.118 171.172 739.712 169.808 740.9 168.708C742.088 167.608 743.628 167.058 745.52 167.058C747.412 167.058 748.952 167.586 750.14 168.642C751.328 169.654 751.922 170.974 751.922 172.602C751.922 174.318 751.328 175.748 750.14 176.892C748.996 177.992 747.456 178.542 745.52 178.542ZM780.683 219V212.07L780.023 210.552V198.144C780.023 195.944 779.341 194.228 777.977 192.996C776.657 191.764 774.611 191.148 771.839 191.148C769.947 191.148 768.077 191.456 766.229 192.072C764.425 192.644 762.885 193.436 761.609 194.448L757.913 187.254C759.849 185.89 762.181 184.834 764.909 184.086C767.637 183.338 770.409 182.964 773.225 182.964C778.637 182.964 782.839 184.24 785.831 186.792C788.823 189.344 790.319 193.326 790.319 198.738V219H780.683ZM769.859 219.528C767.087 219.528 764.711 219.066 762.731 218.142C760.751 217.174 759.233 215.876 758.177 214.248C757.121 212.62 756.593 210.794 756.593 208.77C756.593 206.658 757.099 204.81 758.111 203.226C759.167 201.642 760.817 200.41 763.061 199.53C765.305 198.606 768.231 198.144 771.839 198.144H781.277V204.15H772.961C770.541 204.15 768.869 204.546 767.945 205.338C767.065 206.13 766.625 207.12 766.625 208.308C766.625 209.628 767.131 210.684 768.143 211.476C769.199 212.224 770.629 212.598 772.433 212.598C774.149 212.598 775.689 212.202 777.053 211.41C778.417 210.574 779.407 209.364 780.023 207.78L781.607 212.532C780.859 214.82 779.495 216.558 777.515 217.746C775.535 218.934 772.983 219.528 769.859 219.528ZM465.846 248.964C468.662 248.964 471.17 249.536 473.37 250.68C475.614 251.78 477.374 253.496 478.65 255.828C479.926 258.116 480.564 261.064 480.564 264.672V285H470.268V266.256C470.268 263.396 469.63 261.284 468.354 259.92C467.122 258.556 465.362 257.874 463.074 257.874C461.446 257.874 459.972 258.226 458.652 258.93C457.376 259.59 456.364 260.624 455.616 262.032C454.912 263.44 454.56 265.244 454.56 267.444V285H444.264V249.492H454.098V259.326L452.25 256.356C453.526 253.98 455.352 252.154 457.728 250.878C460.104 249.602 462.81 248.964 465.846 248.964ZM506.456 285.528C502.408 285.528 498.844 284.736 495.764 283.152C492.728 281.568 490.374 279.412 488.702 276.684C487.03 273.912 486.194 270.766 486.194 267.246C486.194 263.682 487.008 260.536 488.636 257.808C490.308 255.036 492.574 252.88 495.434 251.34C498.294 249.756 501.528 248.964 505.136 248.964C508.612 248.964 511.736 249.712 514.508 251.208C517.324 252.66 519.546 254.772 521.174 257.544C522.802 260.272 523.616 263.55 523.616 267.378C523.616 267.774 523.594 268.236 523.55 268.764C523.506 269.248 523.462 269.71 523.418 270.15H494.576V264.144H518.006L514.046 265.926C514.046 264.078 513.672 262.472 512.924 261.108C512.176 259.744 511.142 258.688 509.822 257.94C508.502 257.148 506.962 256.752 505.202 256.752C503.442 256.752 501.88 257.148 500.516 257.94C499.196 258.688 498.162 259.766 497.414 261.174C496.666 262.538 496.292 264.166 496.292 266.058V267.642C496.292 269.578 496.71 271.294 497.546 272.79C498.426 274.242 499.636 275.364 501.176 276.156C502.76 276.904 504.608 277.278 506.72 277.278C508.612 277.278 510.262 276.992 511.67 276.42C513.122 275.848 514.442 274.99 515.63 273.846L521.108 279.786C519.48 281.634 517.434 283.064 514.97 284.076C512.506 285.044 509.668 285.528 506.456 285.528ZM543.671 285.528C539.491 285.528 536.235 284.472 533.903 282.36C531.571 280.204 530.405 277.014 530.405 272.79V241.638H540.701V272.658C540.701 274.154 541.097 275.32 541.889 276.156C542.681 276.948 543.759 277.344 545.123 277.344C546.751 277.344 548.137 276.904 549.281 276.024L552.053 283.284C550.997 284.032 549.721 284.604 548.225 285C546.773 285.352 545.255 285.528 543.671 285.528ZM524.927 258.204V250.284H549.545V258.204H524.927ZM563.986 285L551.182 249.492H560.884L571.51 280.05H566.89L577.978 249.492H586.69L597.448 280.05H592.828L603.784 249.492H612.892L600.022 285H590.056L580.618 258.798H583.654L573.886 285H563.986ZM632.288 285.528C628.504 285.528 625.138 284.736 622.19 283.152C619.286 281.568 616.976 279.412 615.26 276.684C613.588 273.912 612.752 270.766 612.752 267.246C612.752 263.682 613.588 260.536 615.26 257.808C616.976 255.036 619.286 252.88 622.19 251.34C625.138 249.756 628.504 248.964 632.288 248.964C636.028 248.964 639.372 249.756 642.32 251.34C645.268 252.88 647.578 255.014 649.25 257.742C650.922 260.47 651.758 263.638 651.758 267.246C651.758 270.766 650.922 273.912 649.25 276.684C647.578 279.412 645.268 281.568 642.32 283.152C639.372 284.736 636.028 285.528 632.288 285.528ZM632.288 277.08C634.004 277.08 635.544 276.684 636.908 275.892C638.272 275.1 639.35 273.978 640.142 272.526C640.934 271.03 641.33 269.27 641.33 267.246C641.33 265.178 640.934 263.418 640.142 261.966C639.35 260.514 638.272 259.392 636.908 258.6C635.544 257.808 634.004 257.412 632.288 257.412C630.572 257.412 629.032 257.808 627.668 258.6C626.304 259.392 625.204 260.514 624.368 261.966C623.576 263.418 623.18 265.178 623.18 267.246C623.18 269.27 623.576 271.03 624.368 272.526C625.204 273.978 626.304 275.1 627.668 275.892C629.032 276.684 630.572 277.08 632.288 277.08ZM657.32 285V249.492H667.154V259.524L665.768 256.62C666.824 254.112 668.518 252.22 670.85 250.944C673.182 249.624 676.02 248.964 679.364 248.964V258.468C678.924 258.424 678.528 258.402 678.176 258.402C677.824 258.358 677.45 258.336 677.054 258.336C674.238 258.336 671.95 259.15 670.19 260.778C668.474 262.362 667.616 264.848 667.616 268.236V285H657.32ZM692.744 277.74L693.008 265.2L709.574 249.492H721.85L705.944 265.662L700.598 270.018L692.744 277.74ZM684.23 285V236.028H694.526V285H684.23ZM710.696 285L698.684 270.084L705.152 262.098L723.17 285H710.696ZM726.481 285V249.492H736.777V285H726.481ZM731.629 244.542C729.737 244.542 728.197 243.992 727.009 242.892C725.821 241.792 725.227 240.428 725.227 238.8C725.227 237.172 725.821 235.808 727.009 234.708C728.197 233.608 729.737 233.058 731.629 233.058C733.521 233.058 735.061 233.586 736.249 234.642C737.437 235.654 738.031 236.974 738.031 238.602C738.031 240.318 737.437 241.748 736.249 242.892C735.105 243.992 733.565 244.542 731.629 244.542ZM766.594 248.964C769.41 248.964 771.918 249.536 774.118 250.68C776.362 251.78 778.122 253.496 779.398 255.828C780.674 258.116 781.312 261.064 781.312 264.672V285H771.016V266.256C771.016 263.396 770.378 261.284 769.102 259.92C767.87 258.556 766.11 257.874 763.822 257.874C762.194 257.874 760.72 258.226 759.4 258.93C758.124 259.59 757.112 260.624 756.364 262.032C755.66 263.44 755.308 265.244 755.308 267.444V285H745.012V249.492H754.846V259.326L752.998 256.356C754.274 253.98 756.1 252.154 758.476 250.878C760.852 249.602 763.558 248.964 766.594 248.964ZM806.281 298.332C802.937 298.332 799.703 297.914 796.579 297.078C793.499 296.286 790.925 295.076 788.857 293.448L792.949 286.056C794.445 287.288 796.337 288.256 798.625 288.96C800.957 289.708 803.245 290.082 805.489 290.082C809.141 290.082 811.781 289.268 813.409 287.64C815.081 286.012 815.917 283.592 815.917 280.38V275.034L816.577 266.124L816.445 257.148V249.492H826.213V279.06C826.213 285.66 824.497 290.522 821.065 293.646C817.633 296.77 812.705 298.332 806.281 298.332ZM804.697 283.284C801.397 283.284 798.405 282.58 795.721 281.172C793.081 279.72 790.947 277.718 789.319 275.166C787.735 272.57 786.943 269.556 786.943 266.124C786.943 262.648 787.735 259.634 789.319 257.082C790.947 254.486 793.081 252.484 795.721 251.076C798.405 249.668 801.397 248.964 804.697 248.964C807.689 248.964 810.329 249.58 812.617 250.812C814.905 252 816.687 253.87 817.963 256.422C819.239 258.93 819.877 262.164 819.877 266.124C819.877 270.04 819.239 273.274 817.963 275.826C816.687 278.334 814.905 280.204 812.617 281.436C810.329 282.668 807.689 283.284 804.697 283.284ZM806.743 274.836C808.547 274.836 810.153 274.484 811.561 273.78C812.969 273.032 814.069 271.998 814.861 270.678C815.653 269.358 816.049 267.84 816.049 266.124C816.049 264.364 815.653 262.846 814.861 261.57C814.069 260.25 812.969 259.238 811.561 258.534C810.153 257.786 808.547 257.412 806.743 257.412C804.939 257.412 803.333 257.786 801.925 258.534C800.517 259.238 799.395 260.25 798.559 261.57C797.767 262.846 797.371 264.364 797.371 266.124C797.371 267.84 797.767 269.358 798.559 270.678C799.395 271.998 800.517 273.032 801.925 273.78C803.333 274.484 804.939 274.836 806.743 274.836ZM466.044 351V344.07L465.384 342.552V330.144C465.384 327.944 464.702 326.228 463.338 324.996C462.018 323.764 459.972 323.148 457.2 323.148C455.308 323.148 453.438 323.456 451.59 324.072C449.786 324.644 448.246 325.436 446.97 326.448L443.274 319.254C445.21 317.89 447.542 316.834 450.27 316.086C452.998 315.338 455.77 314.964 458.586 314.964C463.998 314.964 468.2 316.24 471.192 318.792C474.184 321.344 475.68 325.326 475.68 330.738V351H466.044ZM455.22 351.528C452.448 351.528 450.072 351.066 448.092 350.142C446.112 349.174 444.594 347.876 443.538 346.248C442.482 344.62 441.954 342.794 441.954 340.77C441.954 338.658 442.46 336.81 443.472 335.226C444.528 333.642 446.178 332.41 448.422 331.53C450.666 330.606 453.592 330.144 457.2 330.144H466.638V336.15H458.322C455.902 336.15 454.23 336.546 453.306 337.338C452.426 338.13 451.986 339.12 451.986 340.308C451.986 341.628 452.492 342.684 453.504 343.476C454.56 344.224 455.99 344.598 457.794 344.598C459.51 344.598 461.05 344.202 462.414 343.41C463.778 342.574 464.768 341.364 465.384 339.78L466.968 344.532C466.22 346.82 464.856 348.558 462.876 349.746C460.896 350.934 458.344 351.528 455.22 351.528ZM504.666 351.528C501.674 351.528 499.056 350.868 496.812 349.548C494.568 348.228 492.808 346.226 491.532 343.542C490.3 340.814 489.684 337.382 489.684 333.246C489.684 329.066 490.278 325.634 491.466 322.95C492.654 320.266 494.37 318.264 496.614 316.944C498.858 315.624 501.542 314.964 504.666 314.964C508.01 314.964 511.002 315.734 513.642 317.274C516.326 318.77 518.438 320.882 519.978 323.61C521.562 326.338 522.354 329.55 522.354 333.246C522.354 336.986 521.562 340.22 519.978 342.948C518.438 345.676 516.326 347.788 513.642 349.284C511.002 350.78 508.01 351.528 504.666 351.528ZM483.678 363.804V315.492H493.512V322.752L493.314 333.312L493.974 343.806V363.804H483.678ZM502.884 343.08C504.6 343.08 506.118 342.684 507.438 341.892C508.802 341.1 509.88 339.978 510.672 338.526C511.508 337.03 511.926 335.27 511.926 333.246C511.926 331.178 511.508 329.418 510.672 327.966C509.88 326.514 508.802 325.392 507.438 324.6C506.118 323.808 504.6 323.412 502.884 323.412C501.168 323.412 499.628 323.808 498.264 324.6C496.9 325.392 495.822 326.514 495.03 327.966C494.238 329.418 493.842 331.178 493.842 333.246C493.842 335.27 494.238 337.03 495.03 338.526C495.822 339.978 496.9 341.1 498.264 341.892C499.628 342.684 501.168 343.08 502.884 343.08ZM527.926 351V315.492H537.76V325.524L536.374 322.62C537.43 320.112 539.124 318.22 541.456 316.944C543.788 315.624 546.626 314.964 549.97 314.964V324.468C549.53 324.424 549.134 324.402 548.782 324.402C548.43 324.358 548.056 324.336 547.66 324.336C544.844 324.336 542.556 325.15 540.796 326.778C539.08 328.362 538.222 330.848 538.222 334.236V351H527.926ZM572.137 351.528C568.089 351.528 564.525 350.736 561.445 349.152C558.409 347.568 556.055 345.412 554.383 342.684C552.711 339.912 551.875 336.766 551.875 333.246C551.875 329.682 552.689 326.536 554.317 323.808C555.989 321.036 558.255 318.88 561.115 317.34C563.975 315.756 567.209 314.964 570.817 314.964C574.293 314.964 577.417 315.712 580.189 317.208C583.005 318.66 585.227 320.772 586.855 323.544C588.483 326.272 589.297 329.55 589.297 333.378C589.297 333.774 589.275 334.236 589.231 334.764C589.187 335.248 589.143 335.71 589.099 336.15H560.257V330.144H583.687L579.727 331.926C579.727 330.078 579.353 328.472 578.605 327.108C577.857 325.744 576.823 324.688 575.503 323.94C574.183 323.148 572.643 322.752 570.883 322.752C569.123 322.752 567.561 323.148 566.197 323.94C564.877 324.688 563.843 325.766 563.095 327.174C562.347 328.538 561.973 330.166 561.973 332.058V333.642C561.973 335.578 562.391 337.294 563.227 338.79C564.107 340.242 565.317 341.364 566.857 342.156C568.441 342.904 570.289 343.278 572.401 343.278C574.293 343.278 575.943 342.992 577.351 342.42C578.803 341.848 580.123 340.99 581.311 339.846L586.789 345.786C585.161 347.634 583.115 349.064 580.651 350.076C578.187 351.044 575.349 351.528 572.137 351.528ZM616.413 314.964C619.229 314.964 621.737 315.536 623.937 316.68C626.181 317.78 627.941 319.496 629.217 321.828C630.493 324.116 631.131 327.064 631.131 330.672V351H620.835V332.256C620.835 329.396 620.197 327.284 618.921 325.92C617.689 324.556 615.929 323.874 613.641 323.874C612.013 323.874 610.539 324.226 609.219 324.93C607.943 325.59 606.931 326.624 606.183 328.032C605.479 329.44 605.127 331.244 605.127 333.444V351H594.831V315.492H604.665V325.326L602.817 322.356C604.093 319.98 605.919 318.154 608.295 316.878C610.671 315.602 613.377 314.964 616.413 314.964ZM654.648 351.528C651.304 351.528 648.29 350.78 645.606 349.284C642.922 347.744 640.788 345.61 639.204 342.882C637.664 340.154 636.894 336.942 636.894 333.246C636.894 329.506 637.664 326.272 639.204 323.544C640.788 320.816 642.922 318.704 645.606 317.208C648.29 315.712 651.304 314.964 654.648 314.964C657.64 314.964 660.258 315.624 662.502 316.944C664.746 318.264 666.484 320.266 667.716 322.95C668.948 325.634 669.564 329.066 669.564 333.246C669.564 337.382 668.97 340.814 667.782 343.542C666.594 346.226 664.878 348.228 662.634 349.548C660.434 350.868 657.772 351.528 654.648 351.528ZM656.43 343.08C658.102 343.08 659.62 342.684 660.984 341.892C662.348 341.1 663.426 339.978 664.218 338.526C665.054 337.03 665.472 335.27 665.472 333.246C665.472 331.178 665.054 329.418 664.218 327.966C663.426 326.514 662.348 325.392 660.984 324.6C659.62 323.808 658.102 323.412 656.43 323.412C654.714 323.412 653.174 323.808 651.81 324.6C650.446 325.392 649.346 326.514 648.51 327.966C647.718 329.418 647.322 331.178 647.322 333.246C647.322 335.27 647.718 337.03 648.51 338.526C649.346 339.978 650.446 341.1 651.81 341.892C653.174 342.684 654.714 343.08 656.43 343.08ZM665.736 351V343.74L665.934 333.18L665.274 322.686V302.028H675.57V351H665.736ZM683.779 351V315.492H694.075V351H683.779ZM688.927 310.542C687.035 310.542 685.495 309.992 684.307 308.892C683.119 307.792 682.525 306.428 682.525 304.8C682.525 303.172 683.119 301.808 684.307 300.708C685.495 299.608 687.035 299.058 688.927 299.058C690.819 299.058 692.359 299.586 693.547 300.642C694.735 301.654 695.329 302.974 695.329 304.602C695.329 306.318 694.735 307.748 693.547 308.892C692.403 309.992 690.863 310.542 688.927 310.542ZM699.869 351V344.796L720.857 319.98L722.639 323.412H700.331V315.492H730.955V321.696L709.967 346.512L708.119 343.08H731.549V351H699.869ZM758.607 351V344.07L757.947 342.552V330.144C757.947 327.944 757.265 326.228 755.901 324.996C754.581 323.764 752.535 323.148 749.763 323.148C747.871 323.148 746.001 323.456 744.153 324.072C742.349 324.644 740.809 325.436 739.533 326.448L735.837 319.254C737.773 317.89 740.105 316.834 742.833 316.086C745.561 315.338 748.333 314.964 751.149 314.964C756.561 314.964 760.763 316.24 763.755 318.792C766.747 321.344 768.243 325.326 768.243 330.738V351H758.607ZM747.783 351.528C745.011 351.528 742.635 351.066 740.655 350.142C738.675 349.174 737.157 347.876 736.101 346.248C735.045 344.62 734.517 342.794 734.517 340.77C734.517 338.658 735.023 336.81 736.035 335.226C737.091 333.642 738.741 332.41 740.985 331.53C743.229 330.606 746.155 330.144 749.763 330.144H759.201V336.15H750.885C748.465 336.15 746.793 336.546 745.869 337.338C744.989 338.13 744.549 339.12 744.549 340.308C744.549 341.628 745.055 342.684 746.067 343.476C747.123 344.224 748.553 344.598 750.357 344.598C752.073 344.598 753.613 344.202 754.977 343.41C756.341 342.574 757.331 341.364 757.947 339.78L759.531 344.532C758.783 346.82 757.419 348.558 755.439 349.746C753.459 350.934 750.907 351.528 747.783 351.528ZM793.197 364.332C789.853 364.332 786.619 363.914 783.495 363.078C780.415 362.286 777.841 361.076 775.773 359.448L779.865 352.056C781.361 353.288 783.253 354.256 785.541 354.96C787.873 355.708 790.161 356.082 792.405 356.082C796.057 356.082 798.697 355.268 800.325 353.64C801.997 352.012 802.833 349.592 802.833 346.38V341.034L803.493 332.124L803.361 323.148V315.492H813.129V345.06C813.129 351.66 811.413 356.522 807.981 359.646C804.549 362.77 799.621 364.332 793.197 364.332ZM791.613 349.284C788.313 349.284 785.321 348.58 782.637 347.172C779.997 345.72 777.863 343.718 776.235 341.166C774.651 338.57 773.859 335.556 773.859 332.124C773.859 328.648 774.651 325.634 776.235 323.082C777.863 320.486 779.997 318.484 782.637 317.076C785.321 315.668 788.313 314.964 791.613 314.964C794.605 314.964 797.245 315.58 799.533 316.812C801.821 318 803.603 319.87 804.879 322.422C806.155 324.93 806.793 328.164 806.793 332.124C806.793 336.04 806.155 339.274 804.879 341.826C803.603 344.334 801.821 346.204 799.533 347.436C797.245 348.668 794.605 349.284 791.613 349.284ZM793.659 340.836C795.463 340.836 797.069 340.484 798.477 339.78C799.885 339.032 800.985 337.998 801.777 336.678C802.569 335.358 802.965 333.84 802.965 332.124C802.965 330.364 802.569 328.846 801.777 327.57C800.985 326.25 799.885 325.238 798.477 324.534C797.069 323.786 795.463 323.412 793.659 323.412C791.855 323.412 790.249 323.786 788.841 324.534C787.433 325.238 786.311 326.25 785.475 327.57C784.683 328.846 784.287 330.364 784.287 332.124C784.287 333.84 784.683 335.358 785.475 336.678C786.311 337.998 787.433 339.032 788.841 339.78C790.249 340.484 791.855 340.836 793.659 340.836ZM839.014 351.528C834.966 351.528 831.402 350.736 828.322 349.152C825.286 347.568 822.932 345.412 821.26 342.684C819.588 339.912 818.752 336.766 818.752 333.246C818.752 329.682 819.566 326.536 821.194 323.808C822.866 321.036 825.132 318.88 827.992 317.34C830.852 315.756 834.086 314.964 837.694 314.964C841.17 314.964 844.294 315.712 847.066 317.208C849.882 318.66 852.104 320.772 853.732 323.544C855.36 326.272 856.174 329.55 856.174 333.378C856.174 333.774 856.152 334.236 856.108 334.764C856.064 335.248 856.02 335.71 855.976 336.15H827.134V330.144H850.564L846.604 331.926C846.604 330.078 846.23 328.472 845.482 327.108C844.734 325.744 843.7 324.688 842.38 323.94C841.06 323.148 839.52 322.752 837.76 322.752C836 322.752 834.438 323.148 833.074 323.94C831.754 324.688 830.72 325.766 829.972 327.174C829.224 328.538 828.85 330.166 828.85 332.058V333.642C828.85 335.578 829.268 337.294 830.104 338.79C830.984 340.242 832.194 341.364 833.734 342.156C835.318 342.904 837.166 343.278 839.278 343.278C841.17 343.278 842.82 342.992 844.228 342.42C845.68 341.848 847 340.99 848.188 339.846L853.666 345.786C852.038 347.634 849.992 349.064 847.528 350.076C845.064 351.044 842.226 351.528 839.014 351.528ZM907.183 314.964C909.999 314.964 912.485 315.536 914.641 316.68C916.841 317.78 918.557 319.496 919.789 321.828C921.065 324.116 921.703 327.064 921.703 330.672V351H911.407V332.256C911.407 329.396 910.813 327.284 909.625 325.92C908.437 324.556 906.765 323.874 904.609 323.874C903.113 323.874 901.771 324.226 900.583 324.93C899.395 325.59 898.471 326.602 897.811 327.966C897.151 329.33 896.821 331.068 896.821 333.18V351H886.525V332.256C886.525 329.396 885.931 327.284 884.743 325.92C883.599 324.556 881.949 323.874 879.793 323.874C878.297 323.874 876.955 324.226 875.767 324.93C874.579 325.59 873.655 326.602 872.995 327.966C872.335 329.33 872.005 331.068 872.005 333.18V351H861.709V315.492H871.543V325.194L869.695 322.356C870.927 319.936 872.665 318.11 874.909 316.878C877.197 315.602 879.793 314.964 882.697 314.964C885.953 314.964 888.791 315.8 891.211 317.472C893.675 319.1 895.303 321.608 896.095 324.996L892.465 324.006C893.653 321.234 895.545 319.034 898.141 317.406C900.781 315.778 903.795 314.964 907.183 314.964Z" fill="black"/>
<path d="M813.564 219.792C810.176 219.792 807.162 219.242 804.522 218.142C801.882 217.042 799.792 215.546 798.252 213.654C796.712 211.762 795.942 209.584 795.942 207.12C795.942 204.832 796.448 202.786 797.46 200.982C798.472 199.134 800.078 197.418 802.278 195.834C804.478 194.206 807.272 192.622 810.66 191.082C813.124 189.938 815.06 188.926 816.468 188.046C817.876 187.166 818.866 186.33 819.438 185.538C820.01 184.702 820.296 183.866 820.296 183.03C820.296 181.886 819.9 180.962 819.108 180.258C818.36 179.554 817.238 179.202 815.742 179.202C814.158 179.202 812.926 179.598 812.046 180.39C811.166 181.182 810.726 182.194 810.726 183.426C810.726 184.086 810.858 184.746 811.122 185.406C811.386 186.022 811.892 186.748 812.64 187.584C813.388 188.376 814.444 189.41 815.808 190.686L840.162 213.258L834.552 219.792L807.69 194.844C806.15 193.436 804.918 192.116 803.994 190.884C803.07 189.652 802.388 188.442 801.948 187.254C801.552 186.066 801.354 184.834 801.354 183.558C801.354 181.314 801.948 179.334 803.136 177.618C804.324 175.902 805.996 174.582 808.152 173.658C810.308 172.69 812.838 172.206 815.742 172.206C818.426 172.206 820.736 172.646 822.672 173.526C824.652 174.362 826.192 175.572 827.292 177.156C828.436 178.74 829.008 180.632 829.008 182.832C829.008 184.768 828.524 186.55 827.556 188.178C826.588 189.762 825.07 191.258 823.002 192.666C820.978 194.074 818.316 195.504 815.016 196.956C812.772 197.968 810.99 198.958 809.67 199.926C808.394 200.85 807.47 201.796 806.898 202.764C806.326 203.732 806.04 204.81 806.04 205.998C806.04 207.098 806.37 208.088 807.03 208.968C807.734 209.848 808.702 210.53 809.934 211.014C811.166 211.498 812.618 211.74 814.29 211.74C816.974 211.74 819.438 211.124 821.682 209.892C823.926 208.616 825.818 206.746 827.358 204.282C828.942 201.774 830.064 198.738 830.724 195.174L838.974 197.748C838.05 202.236 836.4 206.13 834.024 209.43C831.648 212.73 828.722 215.282 825.246 217.086C821.77 218.89 817.876 219.792 813.564 219.792ZM849.722 285.792C846.334 285.792 843.32 285.242 840.68 284.142C838.04 283.042 835.95 281.546 834.41 279.654C832.87 277.762 832.1 275.584 832.1 273.12C832.1 270.832 832.606 268.786 833.618 266.982C834.63 265.134 836.236 263.418 838.436 261.834C840.636 260.206 843.43 258.622 846.818 257.082C849.282 255.938 851.218 254.926 852.626 254.046C854.034 253.166 855.024 252.33 855.596 251.538C856.168 250.702 856.454 249.866 856.454 249.03C856.454 247.886 856.058 246.962 855.266 246.258C854.518 245.554 853.396 245.202 851.9 245.202C850.316 245.202 849.084 245.598 848.204 246.39C847.324 247.182 846.884 248.194 846.884 249.426C846.884 250.086 847.016 250.746 847.28 251.406C847.544 252.022 848.05 252.748 848.798 253.584C849.546 254.376 850.602 255.41 851.966 256.686L876.32 279.258L870.71 285.792L843.848 260.844C842.308 259.436 841.076 258.116 840.152 256.884C839.228 255.652 838.546 254.442 838.106 253.254C837.71 252.066 837.512 250.834 837.512 249.558C837.512 247.314 838.106 245.334 839.294 243.618C840.482 241.902 842.154 240.582 844.31 239.658C846.466 238.69 848.996 238.206 851.9 238.206C854.584 238.206 856.894 238.646 858.83 239.526C860.81 240.362 862.35 241.572 863.45 243.156C864.594 244.74 865.166 246.632 865.166 248.832C865.166 250.768 864.682 252.55 863.714 254.178C862.746 255.762 861.228 257.258 859.16 258.666C857.136 260.074 854.474 261.504 851.174 262.956C848.93 263.968 847.148 264.958 845.828 265.926C844.552 266.85 843.628 267.796 843.056 268.764C842.484 269.732 842.198 270.81 842.198 271.998C842.198 273.098 842.528 274.088 843.188 274.968C843.892 275.848 844.86 276.53 846.092 277.014C847.324 277.498 848.776 277.74 850.448 277.74C853.132 277.74 855.596 277.124 857.84 275.892C860.084 274.616 861.976 272.746 863.516 270.282C865.1 267.774 866.222 264.738 866.882 261.174L875.132 263.748C874.208 268.236 872.558 272.13 870.182 275.43C867.806 278.73 864.88 281.282 861.404 283.086C857.928 284.89 854.034 285.792 849.722 285.792Z" fill="#4BC9F1"/>
<rect x="-200" y="-200" width="400" height="400" rx="200" fill="#F72585"/>
</g>
<g clip-path="url(#clip2_31_2547)">
<path d="M1278.72 580L1132 439.967L1425.45 439.967L1278.72 580Z" fill="#4361EE"/>
</g>
<defs>
<clipPath id="clip0_31_2547">
<rect width="1280" height="440" fill="white"/>
</clipPath>
<clipPath id="clip1_31_2547">
<rect width="296" height="277" fill="white" transform="matrix(-1 0 0 -1 1428 580)"/>
</clipPath>
<clipPath id="clip2_31_2547">
<rect width="1280" height="140" fill="white" transform="translate(0 440)"/>
</clipPath>
</defs>
</svg>
