<svg width="209.000000" height="92.000000" viewBox="0 0 209 92" fill="none" xmlns="http://www.w3.org/2000/svg" xmlns:xlink="http://www.w3.org/1999/xlink">
	<desc>
			Created with Pixso.
	</desc>
	<defs/>
	<path id="Rectangle 187" d="M201.6 17.04L-0.58 33.38L40.13 86.31L197.27 59.99L201.6 17.04Z" fill="#4361EE" fill-opacity="1.000000" fill-rule="nonzero"/>
	<path id="muita" d="M122.02 46.73Q122.78 47.06 123.76 46.91Q124.7 46.76 125.31 46.22Q125.5 46.06 125.66 45.85Q125.96 45.47 126.08 45.05Q126.25 44.49 126.15 43.86Q126.07 43.34 125.8 42.94Q125.54 42.53 125.09 42.25Q124.93 42.14 124.75 42.06Q123.97 41.71 122.95 41.87Q122 42.03 121.38 42.57Q121.2 42.73 121.04 42.92Q120.73 43.33 120.6 43.78Q120.46 44.28 120.55 44.84Q120.64 45.38 120.91 45.79Q121.17 46.21 121.61 46.51Q121.81 46.64 122.02 46.73ZM141.14 62.3Q142.06 61.9 142.65 61.31L140.93 58.32Q140.79 58.47 140.64 58.59Q140.05 59.05 139.2 59.19Q138.43 59.31 137.89 59.01Q137.78 58.96 137.68 58.88Q137.66 58.87 137.65 58.85Q137.09 58.4 136.94 57.44L135.93 51.11L139.81 50.49L139.26 47.03L135.38 47.64L134.78 43.85L130.27 44.57L130.87 48.36L128.47 48.74L129.02 52.21L131.42 51.83L132.44 58.22Q132.83 60.68 134.27 61.88Q134.44 62.02 134.62 62.14Q134.67 62.17 134.72 62.21Q136.44 63.3 139.13 62.88Q140.21 62.71 141.14 62.3ZM96.18 54.4Q94.44 53.56 92.11 53.93Q90.5 54.18 89.22 54.97Q89.12 55.03 89.02 55.1Q88.15 55.68 87.52 56.45Q87.17 56.88 86.9 57.36Q86.41 56.81 85.81 56.43Q85.19 56.03 84.46 55.81Q83.03 55.37 81.38 55.63Q79.88 55.87 78.7 56.6Q77.91 57.08 77.33 57.74Q77.05 58.06 76.82 58.43L76.53 56.64L72.22 57.32L74.7 72.88L79.21 72.16L77.97 64.36Q77.65 62.33 78.41 61.16Q78.65 60.79 78.97 60.51Q79.66 59.91 80.73 59.74Q81.89 59.56 82.68 60.01Q83.91 60.71 84.26 62.94L85.57 71.15L90.08 70.44L88.84 62.63Q88.52 60.6 89.28 59.43Q89.5 59.09 89.8 58.83Q90.51 58.19 91.63 58.01Q92.68 57.84 93.45 58.23Q93.72 58.37 93.96 58.57Q94.87 59.36 95.17 61.21L96.47 69.42L100.98 68.7L99.57 59.79Q99.02 56.36 97.03 54.92Q97.03 54.92 97.02 54.91Q96.62 54.62 96.18 54.4ZM154.62 45.76Q152.41 44.34 148.79 44.92Q147.42 45.13 146.14 45.61Q145.67 45.78 145.21 45.99Q143.51 46.76 142.38 47.86L144.5 50.75Q145.24 49.96 146.38 49.38Q147.13 48.99 147.94 48.77Q148.34 48.66 148.75 48.59Q150.55 48.31 151.57 48.96Q151.78 49.1 151.96 49.27Q152.64 49.93 152.83 51.09L149.24 51.66Q145.83 52.21 144.39 53.71Q143.78 54.35 143.49 55.12Q143.11 56.14 143.3 57.38Q143.46 58.33 143.92 59.09Q144.13 59.42 144.38 59.7Q144.47 59.8 144.56 59.89Q145.38 60.7 146.65 61.06Q148.07 61.46 149.86 61.17Q152.64 60.73 153.79 59.13Q154.08 58.72 154.26 58.25L154.57 60.18L158.79 59.51L157.38 50.64Q156.89 47.55 155.08 46.09Q154.86 45.91 154.62 45.76ZM120.42 65.61L117.94 50.05L113.43 50.77L114.66 58.47Q114.99 60.55 114.17 61.76Q113.91 62.15 113.56 62.44Q112.84 63.05 111.74 63.23Q110.44 63.44 109.57 62.92Q108.34 62.18 107.99 59.97L106.7 51.84L102.19 52.56L103.58 61.35Q104.12 64.7 106.07 66.2Q106.14 66.25 106.21 66.3Q106.58 66.56 106.97 66.76Q108.82 67.7 111.35 67.29Q112.65 67.09 113.71 66.47Q113.83 66.4 113.95 66.33Q114.54 65.95 115.03 65.47Q115.49 65.01 115.84 64.44L116.14 66.29L120.42 65.61ZM126.36 48.71L121.85 49.43L124.32 64.99L128.83 64.28L126.36 48.71ZM152.19 57.31Q151.47 57.8 150.51 57.96Q149.33 58.14 148.56 57.74Q148.2 57.56 147.98 57.27Q147.74 56.94 147.66 56.48Q147.58 55.93 147.77 55.5Q148.21 54.52 150.15 54.21L153.25 53.72L153.5 55.32Q153.37 56 153 56.53Q152.78 56.84 152.47 57.09Q152.34 57.21 152.19 57.31Z" fill="#FFFFFF" fill-opacity="1.000000" fill-rule="evenodd"/>
	<path id="esse ano com" d="M68.25 41.9C68.09 43.31 66.94 44.33 65.09 44.51C62.8 44.74 61.25 43.4 61.02 41.04C60.79 38.74 62.06 37.05 64.26 36.83C66.22 36.64 67.88 37.73 68.13 40.27L68.19 40.83L63.11 41.33L63.11 41.34C63.22 42.45 63.95 43.07 64.98 42.97C65.67 42.9 66.17 42.55 66.32 41.96L68.25 41.9ZM72.13 36.05C74.01 35.87 75.2 36.6 75.52 37.96L73.64 38.26C73.49 37.79 73.03 37.44 72.31 37.51C71.67 37.58 71.19 37.92 71.24 38.36C71.27 38.72 71.55 38.93 72.26 39.02L73.64 39.16C75.11 39.31 75.88 39.88 75.99 40.96C76.13 42.43 74.85 43.55 72.91 43.74C70.94 43.94 69.64 43.18 69.31 41.77L71.33 41.47C71.52 42.06 72.04 42.32 72.77 42.25C73.49 42.18 73.94 41.82 73.91 41.38C73.86 41 73.55 40.8 72.88 40.73L71.57 40.6C70.08 40.45 69.31 39.8 69.2 38.68C69.06 37.24 70.22 36.24 72.13 36.05ZM79.81 35.29C81.69 35.11 82.88 35.85 83.2 37.2L81.32 37.51C81.17 37.04 80.7 36.68 79.98 36.76C79.34 36.82 78.87 37.16 78.92 37.61C78.95 37.97 79.23 38.18 79.94 38.26L81.31 38.4C82.79 38.55 83.55 39.13 83.66 40.2C83.81 41.67 82.52 42.8 80.59 42.99C78.61 43.18 77.32 42.42 76.98 41.02L79 40.71C79.19 41.3 79.71 41.57 80.45 41.49C81.17 41.42 81.62 41.06 81.58 40.62C81.54 40.25 81.22 40.04 80.56 39.97L79.24 39.84C77.75 39.69 76.98 39.04 76.88 37.92C76.73 36.49 77.9 35.48 79.81 35.29ZM91.76 39.58C91.6 40.99 90.45 42.01 88.61 42.19C86.31 42.42 84.76 41.08 84.53 38.72C84.3 36.42 85.57 34.73 87.77 34.51C89.73 34.32 91.39 35.41 91.64 37.95L91.7 38.51L86.62 39.01L86.62 39.02C86.73 40.13 87.46 40.75 88.49 40.65C89.18 40.58 89.68 40.23 89.83 39.64L91.76 39.58ZM100.73 39.81C100.43 40.54 99.77 41.09 98.66 41.2C97.24 41.34 96.12 40.69 95.97 39.22C95.81 37.55 97.09 36.93 98.55 36.65C99.83 36.39 100.33 36.28 100.28 35.8L100.28 35.77C100.22 35.16 99.78 34.85 99.08 34.91C98.34 34.99 97.93 35.4 97.84 35.91L95.91 35.94C96.07 34.55 97.16 33.58 98.94 33.41C100.6 33.24 102.18 33.84 102.35 35.62L102.85 40.64L100.89 40.83L100.79 39.8L100.73 39.81ZM107.36 34.31C106.52 34.39 106 35.01 106.1 35.97L106.52 40.28L104.45 40.48L103.72 33.03L105.69 32.84L105.82 34.15L105.91 34.14C106.15 33.24 106.9 32.62 108.01 32.51C109.56 32.36 110.68 33.33 110.85 35.06L111.32 39.8L109.26 40.01L108.82 35.63C108.74 34.72 108.19 34.23 107.36 34.31ZM119.61 35.26C119.84 37.55 118.59 39.24 116.33 39.46C114.07 39.68 112.51 38.27 112.28 35.98C112.05 33.67 113.31 31.99 115.57 31.77C117.83 31.54 119.39 32.94 119.61 35.26ZM130.92 35.11C130.99 36.84 129.86 38.12 127.88 38.32C125.58 38.55 124.05 37.1 123.83 34.84C123.61 32.56 124.85 30.85 127.11 30.63C129.05 30.44 130.47 31.44 130.73 33.15L128.78 33.34C128.59 32.61 128.06 32.16 127.3 32.23C126.34 32.33 125.79 33.2 125.93 34.6C126.07 36.03 126.78 36.77 127.74 36.68C128.45 36.61 128.93 36.11 128.97 35.31L130.92 35.11ZM139.19 33.32C139.41 35.62 138.16 37.3 135.9 37.53C133.64 37.75 132.08 36.34 131.85 34.05C131.63 31.74 132.88 30.06 135.14 29.83C137.4 29.61 138.96 31.01 139.19 33.32ZM142.97 36.68L140.9 36.89L140.16 29.44L142.14 29.24L142.27 30.56L142.35 30.55C142.58 29.64 143.28 29.03 144.29 28.93C145.31 28.83 146.13 29.3 146.45 30.14L146.53 30.14C146.75 29.25 147.55 28.61 148.64 28.5C150.02 28.37 151.07 29.19 151.23 30.81L151.73 35.82L149.67 36.02L149.21 31.42C149.13 30.59 148.59 30.22 147.93 30.29C147.18 30.36 146.79 30.93 146.87 31.7L147.32 36.25L145.32 36.45L144.86 31.81C144.78 31.07 144.28 30.65 143.6 30.72C142.91 30.78 142.45 31.39 142.53 32.21L142.97 36.68ZM64.44 38.37C63.52 38.46 62.95 39.2 62.98 40.05L66.12 39.74C66.02 38.86 65.34 38.28 64.44 38.37ZM87.95 36.05C87.03 36.14 86.46 36.88 86.49 37.73L89.63 37.42C89.53 36.54 88.85 35.96 87.95 36.05ZM114.38 35.76C114.51 37.06 115.14 37.96 116.18 37.86C117.2 37.76 117.64 36.75 117.52 35.45C117.39 34.15 116.76 33.24 115.74 33.34C114.69 33.44 114.25 34.45 114.38 35.76ZM133.95 33.82C134.08 35.12 134.71 36.03 135.75 35.93C136.78 35.83 137.22 34.82 137.09 33.51C136.96 32.21 136.33 31.31 135.31 31.41C134.26 31.51 133.82 32.52 133.95 33.82ZM97.94 38.96C98 39.52 98.48 39.78 99.12 39.71C100.03 39.62 100.61 38.96 100.53 38.18L100.45 37.39C100.22 37.58 99.5 37.76 99.05 37.87C98.34 38.04 97.88 38.37 97.94 38.96Z" fill="#FFFFFF" fill-opacity="1.000000" fill-rule="evenodd"/>
</svg>
