<svg width="201" height="37" viewBox="0 0 201 37" fill="none" xmlns="http://www.w3.org/2000/svg">
<path d="M140.474 35.9877H135.784C135.455 35.9877 135.188 35.7207 135.188 35.3912V12.5395C135.188 12.2101 135.455 11.943 135.784 11.943H140.474C140.804 11.943 141.071 12.2101 141.071 12.5395V13.048C141.071 13.5841 141.715 13.8389 142.094 13.4596C143.597 11.9536 145.484 11.1998 147.753 11.1998C150.609 11.1998 152.874 12.0671 154.55 13.799C156.224 15.5319 157.063 17.9594 157.063 21.0813V35.3912C157.063 35.7207 156.796 35.9877 156.466 35.9877H151.776C151.447 35.9877 151.18 35.7207 151.18 35.3912V22.0518C151.18 20.377 150.751 19.0917 149.895 18.1965C149.038 17.3022 147.81 16.8542 146.211 16.8542C144.649 16.8542 143.402 17.3403 142.47 18.311C141.536 19.2818 141.071 20.5295 141.071 22.0518V35.3912C141.071 35.7207 140.804 35.9877 140.474 35.9877Z" fill="#FF4800"/>
<path d="M166.586 21.2491H176.71C177.149 21.2491 177.449 20.7856 177.25 20.3947C176.798 19.5061 176.179 18.7342 175.393 18.0794C174.365 17.2226 173.127 16.794 171.681 16.794C170.271 16.794 169.034 17.2136 167.968 18.0508C167.146 18.6968 166.505 19.4788 166.045 20.3962C165.849 20.7875 166.149 21.2491 166.586 21.2491ZM171.623 11.1968C175.393 11.1968 178.438 12.5491 180.762 15.2521C182.97 17.8244 184.026 20.964 183.927 24.672C183.918 24.9925 183.649 25.247 183.328 25.247H165.91C165.536 25.247 165.254 25.5882 165.32 25.9559C165.576 27.3835 166.221 28.5561 167.254 29.474C168.454 30.5402 169.928 31.073 171.681 31.073C173.826 31.073 175.538 30.2051 176.815 28.4674C176.928 28.3132 177.105 28.2172 177.297 28.2172H182.46C182.888 28.2172 183.177 28.6567 183.011 29.0517C182.11 31.1873 180.722 32.9563 178.848 34.3571C176.735 35.9376 174.345 36.7272 171.681 36.7272C168.063 36.7272 165.102 35.519 162.799 33.1009C160.495 30.6833 159.344 27.6461 159.344 23.9907C159.344 20.4119 160.543 17.3851 162.942 14.9096C165.341 12.435 168.234 11.1968 171.623 11.1968Z" fill="#FF4800"/>
<path d="M195.436 26.6214C195.436 28.9439 196.425 30.1052 198.406 30.1052H200.379C200.709 30.1052 200.976 30.3724 200.976 30.7018V35.391C200.976 35.7205 200.709 35.9877 200.379 35.9877H197.035C194.865 35.9877 193.074 35.3124 191.666 33.9601C190.257 32.6088 189.553 30.9044 189.553 28.8484V18.4218C189.553 18.0924 189.286 17.8253 188.956 17.8253H185.409C185.08 17.8253 184.812 17.5583 184.812 17.2287V12.5219C184.812 12.2108 185.052 11.9453 185.362 11.9281C189.123 11.7202 191.425 9.3399 192.267 4.78547C192.319 4.50035 192.563 4.2891 192.853 4.2891H197.591C197.958 4.2891 198.244 4.61946 198.18 4.98139C197.739 7.47004 196.947 9.47396 195.802 10.9935C195.507 11.3854 195.788 11.943 196.279 11.943H200.379C200.709 11.943 200.976 12.2101 200.976 12.5395V17.2287C200.976 17.5583 200.709 17.8253 200.379 17.8253H196.032C195.703 17.8253 195.436 18.0924 195.436 18.4218V26.6214Z" fill="#FF4800"/>
<path fill-rule="evenodd" clip-rule="evenodd" d="M98.982 21.7239C96.7373 21.0776 95.1595 20.4783 94.2468 19.927C93.3342 19.3763 92.8777 18.757 92.8777 18.0728C92.8777 17.5408 93.1432 17.0845 93.6762 16.7037C94.2089 16.3239 94.8746 16.1331 95.6731 16.1331C96.7373 16.1331 97.6129 16.3994 98.2971 16.9316C98.738 17.2751 99.0525 17.6653 99.2412 18.1025C99.4442 18.5736 99.9162 18.8713 100.429 18.8713H103.76C104.65 18.8713 105.288 17.9969 105 17.155C104.483 15.6458 103.637 14.3737 102.462 13.3378C100.865 11.9314 98.64 11.2271 95.7874 11.2271C93.3912 11.2271 91.2893 11.8928 89.4839 13.2242C87.6768 14.5554 86.7734 16.3424 86.7734 18.5863C86.7734 22.2374 89.4552 24.7857 94.8176 26.2305C95.958 26.5727 96.7858 26.8297 97.2994 27.0012C97.8122 27.1719 98.3349 27.4575 98.8677 27.8568C99.3997 28.256 99.6661 28.7225 99.6661 29.2545C99.6661 29.9386 99.4098 30.5094 98.8963 30.9657C98.3828 31.422 97.6884 31.6498 96.8145 31.6498C95.0523 31.6498 93.8363 30.9928 93.166 29.677C92.9442 29.2417 92.4955 28.9688 92.007 28.9688H88.4906C87.6 28.9688 86.9803 29.8385 87.2519 30.6867C87.6875 32.0458 88.4594 33.2798 89.5688 34.3882C91.1279 35.9487 93.3912 36.7272 96.358 36.7272C99.0191 36.7272 101.235 36.0229 103.004 34.6168C104.772 33.2097 105.656 31.3079 105.656 28.9115C105.656 25.4893 103.432 23.0929 98.982 21.7239Z" fill="#FF4800"/>
<path fill-rule="evenodd" clip-rule="evenodd" d="M126.486 24.4052C126.486 26.1164 125.858 27.5998 124.603 28.8555C123.435 30.0238 122.019 30.6478 120.355 30.7283C118.668 30.8101 116.972 30.2515 115.698 29.1413C114.218 27.8517 113.479 26.1218 113.479 23.9489C113.479 22.0091 114.097 20.4029 115.333 19.1287C116.568 17.8546 118.119 17.2175 119.982 17.2175C121.845 17.2175 123.395 17.826 124.632 19.0429C125.867 20.2607 126.486 21.7812 126.486 23.6067V24.4052ZM131.696 11.8552H127.551C127.057 11.8552 126.657 12.2554 126.657 12.749L126.657 14.0563C126.657 14.1681 126.516 14.2155 126.449 14.1263C125.805 13.275 124.886 12.5844 123.69 12.0545C122.359 11.4652 120.857 11.1895 119.184 11.2274C115.761 11.266 112.937 12.5023 110.713 14.9355C108.487 17.3697 107.375 20.4507 107.375 24.1773C107.412 27.9427 108.582 30.9759 110.883 33.2764C113.184 35.5776 115.97 36.7273 119.241 36.7273C121.142 36.7273 122.777 36.3373 124.147 35.5582C125.267 34.9204 126.031 34.2628 126.439 33.5861C126.501 33.4832 126.657 33.5238 126.657 33.644V35.0921C126.657 35.5859 127.057 35.9861 127.551 35.9861H131.696C132.19 35.9861 132.59 35.5859 132.59 35.0921V12.749C132.59 12.2554 132.19 11.8552 131.696 11.8552Z" fill="#FF4800"/>
<path fill-rule="evenodd" clip-rule="evenodd" d="M73.9661 11.8344H72.229C68.194 11.8344 65.8884 14.6809 64.8737 16.3729C64.8135 16.4734 64.66 16.4294 64.66 16.3124V12.7281C64.66 12.2345 64.2599 11.8344 63.7663 11.8344H59.6986C59.2048 11.8344 58.8047 12.2345 58.8047 12.7281V35.0953C58.8047 35.5889 59.2048 35.9891 59.6986 35.9891H63.7663C64.2599 35.9891 64.66 35.5889 64.66 35.0953V23.9925C64.66 17.6997 73.9661 17.6005 73.9661 17.6005C74.4597 17.6005 74.8601 17.2004 74.8601 16.7066V12.7281C74.8601 12.2345 74.4597 11.8344 73.9661 11.8344Z" fill="#FF4800"/>
<path fill-rule="evenodd" clip-rule="evenodd" d="M48.4959 28.9558C47.2596 30.2307 45.6903 30.867 43.7891 30.867C42.0016 30.867 40.4518 30.2493 39.1398 29.0129C37.8278 27.7775 37.1722 26.2461 37.1722 24.4206V23.6793C37.1722 21.7781 37.8278 20.2089 39.1398 18.9726C40.4518 17.7372 42.0016 17.1186 43.7891 17.1186C45.6903 17.1186 47.2596 17.7464 48.4959 19.0012C49.7314 20.2561 50.3498 21.9109 50.3498 23.9643C50.3498 26.0182 49.7314 27.6824 48.4959 28.9558ZM45.1013 11.2427C43.3136 11.2051 41.7159 11.5563 40.3096 12.2984C39.0162 12.9795 37.9805 13.7656 37.2014 14.6552C37.1316 14.7352 37.0007 14.6881 37.0007 14.5819V8.26346V1.09038C37.0007 0.712755 36.7479 0.397538 36.4035 0.295422C36.3913 0.272339 36.3712 0.257569 36.337 0.257569H36.168H32.0187H31.9578C31.4978 0.257569 31.125 0.630398 31.125 1.09038V1.15132V7.36952V7.67624V8.54636V35.1075C31.125 35.6013 31.5252 36.0015 32.0187 36.0015H36.1069C36.6005 36.0015 37.0007 35.6013 37.0007 35.1075V33.3422C37.0007 33.2257 37.1504 33.1823 37.2143 33.2798C37.7668 34.1253 38.6271 34.8898 39.796 35.5736C41.1267 36.3529 42.7244 36.7427 44.5877 36.7427C47.8588 36.7427 50.6534 35.5265 52.9739 33.0918C55.2935 30.6585 56.4543 27.5967 56.4543 23.907C56.4912 20.1426 55.4171 17.1001 53.2311 14.7795C51.0434 12.4606 48.3337 11.2815 45.1013 11.2427Z" fill="#FF4800"/>
<path fill-rule="evenodd" clip-rule="evenodd" d="M84.9445 12.7281C84.9445 12.2345 84.5444 11.8344 84.0508 11.8344H78.9533V11.8366H77.2531C76.7595 11.8366 76.3594 12.2368 76.3594 12.7305V16.7042C76.3594 17.198 76.7595 17.5981 77.2531 17.5981H78.0595C78.5531 17.5981 78.9533 17.9983 78.9533 18.4919V27.7793V28.4398V35.0951C78.9533 35.5889 79.3536 35.9891 79.8472 35.9891H84.0508C84.5444 35.9891 84.9445 35.5889 84.9445 35.0951V34.6272H84.9634V17.1241H84.9445V12.7281Z" fill="#FF4800"/>
<path fill-rule="evenodd" clip-rule="evenodd" d="M81.1668 7.82568C83.2568 7.82568 84.9509 6.13144 84.9509 4.04165C84.9509 1.95168 83.2568 0.257618 81.1668 0.257618C79.0771 0.257618 77.3828 1.95168 77.3828 4.04165C77.3828 6.13144 79.0771 7.82568 81.1668 7.82568Z" fill="#FF4800"/>
<path fill-rule="evenodd" clip-rule="evenodd" d="M8.55359 19.5936C8.51204 22.2905 7.66501 24.7829 6.37849 27.0233C6.28247 27.1904 6.06161 27.2383 5.90429 27.1273C4.86706 26.3953 3.66012 25.6471 2.19689 24.7585C0.64889 23.8163 0.507811 22.9826 2.15349 22.2322C4.62423 21.1061 6.44755 19.2918 7.79667 17.1718C7.96028 16.9145 8.35545 17.0043 8.40032 17.3058C8.51462 18.0712 8.56541 18.8339 8.55359 19.5936Z" fill="#FF4800"/>
<path fill-rule="evenodd" clip-rule="evenodd" d="M16.8001 19.5916C16.7229 24.4152 14.0767 28.5837 10.9392 31.84C10.7922 31.9927 10.5396 31.9661 10.4256 31.7875C9.68995 30.6353 8.94319 29.7194 8.08692 28.8991C7.97502 28.7918 7.95175 28.623 8.03171 28.4901C9.61036 25.8653 10.6709 22.8933 10.722 19.6259C10.7237 19.541 10.7237 19.456 10.7237 19.3709C10.7237 17.4333 10.3702 15.4905 9.66502 13.5475C9.63898 13.4753 9.63898 13.3963 9.66557 13.3242C10.3833 11.3798 10.8424 9.37216 11.143 7.51652C11.1883 7.23695 11.5417 7.14148 11.723 7.3592C15.1618 11.4852 16.8641 15.5806 16.8001 19.5916Z" fill="#FF4800"/>
<path fill-rule="evenodd" clip-rule="evenodd" d="M14.4138 36.4877C14.347 36.5383 14.2764 36.5836 14.2059 36.6163C13.9346 36.7555 13.6434 36.7771 13.383 36.694C13.1027 36.6126 12.835 36.419 12.6922 36.1062C12.3996 35.4649 12.1183 34.8745 11.8432 34.3263C11.7791 34.1985 11.8046 34.0462 11.9061 33.9457C15.6071 30.2843 18.8748 25.4235 18.9675 19.6258C18.9694 19.5427 18.9694 19.4594 18.9694 19.3745C18.9694 14.276 16.5226 9.14195 11.6768 4.05367C11.6122 3.9859 11.5793 3.89228 11.5871 3.79902C11.6696 2.79817 11.7156 1.93175 11.7518 1.25922C11.7843 0.660744 12.0901 0.302689 12.5131 0.260956H12.5187C12.5927 0.253754 12.6706 0.257448 12.7537 0.271852C12.7556 0.268343 12.7574 0.268343 12.7609 0.271852C12.9236 0.297335 13.1118 0.344237 13.2763 0.476268C33.4584 16.83 23.3059 29.7386 14.4138 36.4877Z" fill="#FF4800"/>
</svg>
