<svg width="48" height="48" viewBox="0 0 48 48" fill="none" xmlns="http://www.w3.org/2000/svg">
<path d="M23.9608 48H24.0392C37.2724 48 48 37.2548 48 24C48 10.7452 37.2724 0 24.0392 0H23.9608C10.7276 0 0 10.7452 0 24C0 37.2548 10.7276 48 23.9608 48Z" fill="#4361EE"/>
<path fill-rule="evenodd" clip-rule="evenodd" d="M29.9064 26.8156L23.6953 32.9912L26.7615 35.9617L32.9333 29.8252V29.8252L35.9602 26.8156L33.0709 23.9427L33.0709 23.9427L28.1178 19.0178L25.0909 22.0275L29.9064 26.8155L29.9064 26.8156Z" fill="#0A03C8"/>
<path fill-rule="evenodd" clip-rule="evenodd" d="M18.9015 22.0275L25.1125 15.8519L22.0856 12.8423L15.8746 19.0179L15.8745 19.0179L12.8477 22.0275L15.8745 25.0372L15.8746 25.0371L20.6901 29.8252L23.717 26.8156L18.9015 22.0275ZM18.9014 22.0276V22.0275L18.9007 22.0282L18.9014 22.0276Z" fill="#0A03C8"/>
<path fill-rule="evenodd" clip-rule="evenodd" d="M18.0148 21.1469L24.2258 14.9713L21.1989 11.9617L14.9879 18.1373V18.1372L11.9609 21.1469L14.9879 24.1565L19.8035 28.9446L22.8303 25.935L18.0148 21.1469ZM18.0148 21.1469L18.0147 21.1469L18.0141 21.1476L18.0148 21.1469Z" fill="white"/>
<path fill-rule="evenodd" clip-rule="evenodd" d="M29.0196 25.9349L22.8086 32.1106L25.8748 35.0812L32.0465 28.9446H32.0466L35.0734 25.935L32.184 23.0621L32.0466 22.9253L27.231 18.1372L24.204 21.1469L29.0196 25.9349Z" fill="white"/>
</svg>
