<svg width="56" height="184" viewBox="0 0 56 184" fill="none" xmlns="http://www.w3.org/2000/svg">
<g clip-path="url(#clip0_303_1221)">
<g clip-path="url(#clip1_303_1221)">
<path d="M56 0L0 0L0 56H56V0Z" fill="white"/>
<g clip-path="url(#clip2_303_1221)">
<path d="M25.2008 5.71216H23.6328V7.28016H25.2008V5.71216Z" fill="black"/>
</g>
<g clip-path="url(#clip3_303_1221)">
<path d="M34.1578 5.71216H32.5898V7.28016H34.1578V5.71216Z" fill="black"/>
</g>
<g clip-path="url(#clip4_303_1221)">
<path d="M23.4039 7.50403H21.8359V9.07203H23.4039V7.50403Z" fill="black"/>
</g>
<g clip-path="url(#clip5_303_1221)">
<path d="M32.3727 7.50403H30.8047V9.07203H32.3727V7.50403Z" fill="black"/>
</g>
<g clip-path="url(#clip6_303_1221)">
<path d="M21.6149 9.29614H20.0469V10.8641H21.6149V9.29614Z" fill="black"/>
</g>
<g clip-path="url(#clip7_303_1221)">
<path d="M26.9977 9.29614H25.4297V10.8641H26.9977V9.29614Z" fill="black"/>
</g>
<g clip-path="url(#clip8_303_1221)">
<path d="M32.3727 9.29614H30.8047V10.8641H32.3727V9.29614Z" fill="black"/>
</g>
<g clip-path="url(#clip9_303_1221)">
<path d="M34.1578 9.29614H32.5898V10.8641H34.1578V9.29614Z" fill="black"/>
</g>
<g clip-path="url(#clip10_303_1221)">
<path d="M35.9469 9.29614H34.3789V10.8641H35.9469V9.29614Z" fill="black"/>
</g>
<g clip-path="url(#clip11_303_1221)">
<path d="M23.4039 11.0881H21.8359V12.6561H23.4039V11.0881Z" fill="black"/>
</g>
<g clip-path="url(#clip12_303_1221)">
<path d="M28.7789 11.0881H27.2109V12.6561H28.7789V11.0881Z" fill="black"/>
</g>
<g clip-path="url(#clip13_303_1221)">
<path d="M34.1578 11.0881H32.5898V12.6561H34.1578V11.0881Z" fill="black"/>
</g>
<g clip-path="url(#clip14_303_1221)">
<path d="M35.9469 11.0881H34.3789V12.6561H35.9469V11.0881Z" fill="black"/>
</g>
<g clip-path="url(#clip15_303_1221)">
<path d="M23.4039 12.8801H21.8359V14.4481H23.4039V12.8801Z" fill="black"/>
</g>
<g clip-path="url(#clip16_303_1221)">
<path d="M28.7789 12.8801H27.2109V14.4481H28.7789V12.8801Z" fill="black"/>
</g>
<g clip-path="url(#clip17_303_1221)">
<path d="M32.3727 12.8801H30.8047V14.4481H32.3727V12.8801Z" fill="black"/>
</g>
<g clip-path="url(#clip18_303_1221)">
<path d="M25.2008 14.6721H23.6328V16.2401H25.2008V14.6721Z" fill="black"/>
</g>
<g clip-path="url(#clip19_303_1221)">
<path d="M26.9977 14.6721H25.4297V16.2401H26.9977V14.6721Z" fill="black"/>
</g>
<g clip-path="url(#clip20_303_1221)">
<path d="M28.7789 14.6721H27.2109V16.2401H28.7789V14.6721Z" fill="black"/>
</g>
<g clip-path="url(#clip21_303_1221)">
<path d="M32.3727 14.6721H30.8047V16.2401H32.3727V14.6721Z" fill="black"/>
</g>
<g clip-path="url(#clip22_303_1221)">
<path d="M34.1578 14.6721H32.5898V16.2401H34.1578V14.6721Z" fill="black"/>
</g>
<g clip-path="url(#clip23_303_1221)">
<path d="M21.6149 16.4641H20.0469V18.0321H21.6149V16.4641Z" fill="black"/>
</g>
<g clip-path="url(#clip24_303_1221)">
<path d="M25.2008 16.4641H23.6328V18.0321H25.2008V16.4641Z" fill="black"/>
</g>
<g clip-path="url(#clip25_303_1221)">
<path d="M28.7789 16.4641H27.2109V18.0321H28.7789V16.4641Z" fill="black"/>
</g>
<g clip-path="url(#clip26_303_1221)">
<path d="M32.3727 16.4641H30.8047V18.0321H32.3727V16.4641Z" fill="black"/>
</g>
<g clip-path="url(#clip27_303_1221)">
<path d="M35.9469 16.4641H34.3789V18.0321H35.9469V16.4641Z" fill="black"/>
</g>
<g clip-path="url(#clip28_303_1221)">
<path d="M21.6149 18.256H20.0469V19.824H21.6149V18.256Z" fill="black"/>
</g>
<g clip-path="url(#clip29_303_1221)">
<path d="M26.9977 18.256H25.4297V19.824H26.9977V18.256Z" fill="black"/>
</g>
<g clip-path="url(#clip30_303_1221)">
<path d="M30.5797 18.256H29.0117V19.824H30.5797V18.256Z" fill="black"/>
</g>
<g clip-path="url(#clip31_303_1221)">
<path d="M35.9469 18.256H34.3789V19.824H35.9469V18.256Z" fill="black"/>
</g>
<g clip-path="url(#clip32_303_1221)">
<path d="M7.28284 20.0481H5.71484V21.6161H7.28284V20.0481Z" fill="black"/>
</g>
<g clip-path="url(#clip33_303_1221)">
<path d="M9.07581 20.0481H7.50781V21.6161H9.07581V20.0481Z" fill="black"/>
</g>
<g clip-path="url(#clip34_303_1221)">
<path d="M10.861 20.0481H9.29297V21.6161H10.861V20.0481Z" fill="black"/>
</g>
<g clip-path="url(#clip35_303_1221)">
<path d="M14.4508 20.0481H12.8828V21.6161H14.4508V20.0481Z" fill="black"/>
</g>
<g clip-path="url(#clip36_303_1221)">
<path d="M16.2399 20.0481H14.6719V21.6161H16.2399V20.0481Z" fill="black"/>
</g>
<g clip-path="url(#clip37_303_1221)">
<path d="M18.0289 20.0481H16.4609V21.6161H18.0289V20.0481Z" fill="black"/>
</g>
<g clip-path="url(#clip38_303_1221)">
<path d="M19.8258 20.0481H18.2578V21.6161H19.8258V20.0481Z" fill="black"/>
</g>
<g clip-path="url(#clip39_303_1221)">
<path d="M21.6149 20.0481H20.0469V21.6161H21.6149V20.0481Z" fill="black"/>
</g>
<g clip-path="url(#clip40_303_1221)">
<path d="M28.7789 20.0481H27.2109V21.6161H28.7789V20.0481Z" fill="black"/>
</g>
<g clip-path="url(#clip41_303_1221)">
<path d="M35.9469 20.0481H34.3789V21.6161H35.9469V20.0481Z" fill="black"/>
</g>
<g clip-path="url(#clip42_303_1221)">
<path d="M37.7438 20.0481H36.1758V21.6161H37.7438V20.0481Z" fill="black"/>
</g>
<g clip-path="url(#clip43_303_1221)">
<path d="M39.5368 20.0481H37.9688V21.6161H39.5368V20.0481Z" fill="black"/>
</g>
<g clip-path="url(#clip44_303_1221)">
<path d="M46.7008 20.0481H45.1328V21.6161H46.7008V20.0481Z" fill="black"/>
</g>
<g clip-path="url(#clip45_303_1221)">
<path d="M10.861 21.8401H9.29297V23.4081H10.861V21.8401Z" fill="black"/>
</g>
<g clip-path="url(#clip46_303_1221)">
<path d="M12.6578 21.8401H11.0898V23.4081H12.6578V21.8401Z" fill="black"/>
</g>
<g clip-path="url(#clip47_303_1221)">
<path d="M16.2399 21.84H14.6719V23.408H16.2399V21.84Z" fill="black"/>
</g>
<g clip-path="url(#clip48_303_1221)">
<path d="M19.8258 21.8401H18.2578V23.4081H19.8258V21.8401Z" fill="black"/>
</g>
<g clip-path="url(#clip49_303_1221)">
<path d="M23.4039 21.8401H21.8359V23.4081H23.4039V21.8401Z" fill="black"/>
</g>
<g clip-path="url(#clip50_303_1221)">
<path d="M26.9977 21.84H25.4297V23.408H26.9977V21.84Z" fill="black"/>
</g>
<g clip-path="url(#clip51_303_1221)">
<path d="M28.7789 21.8401H27.2109V23.4081H28.7789V21.8401Z" fill="black"/>
</g>
<g clip-path="url(#clip52_303_1221)">
<path d="M30.5797 21.84H29.0117V23.408H30.5797V21.84Z" fill="black"/>
</g>
<g clip-path="url(#clip53_303_1221)">
<path d="M32.3727 21.8401H30.8047V23.4081H32.3727V21.8401Z" fill="black"/>
</g>
<g clip-path="url(#clip54_303_1221)">
<path d="M34.1578 21.8401H32.5898V23.4081H34.1578V21.8401Z" fill="black"/>
</g>
<g clip-path="url(#clip55_303_1221)">
<path d="M35.9469 21.8401H34.3789V23.4081H35.9469V21.8401Z" fill="black"/>
</g>
<g clip-path="url(#clip56_303_1221)">
<path d="M39.5368 21.84H37.9688V23.408H39.5368V21.84Z" fill="black"/>
</g>
<g clip-path="url(#clip57_303_1221)">
<path d="M43.1227 21.8401H41.5547V23.4081H43.1227V21.8401Z" fill="black"/>
</g>
<g clip-path="url(#clip58_303_1221)">
<path d="M48.4977 21.8401H46.9297V23.4081H48.4977V21.8401Z" fill="black"/>
</g>
<g clip-path="url(#clip59_303_1221)">
<path d="M7.28284 23.6321H5.71484V25.2001H7.28284V23.6321Z" fill="black"/>
</g>
<g clip-path="url(#clip60_303_1221)">
<path d="M10.861 23.6321H9.29297V25.2001H10.861V23.6321Z" fill="black"/>
</g>
<g clip-path="url(#clip61_303_1221)">
<path d="M12.6578 23.6321H11.0898V25.2001H12.6578V23.6321Z" fill="black"/>
</g>
<g clip-path="url(#clip62_303_1221)">
<path d="M14.4508 23.6321H12.8828V25.2001H14.4508V23.6321Z" fill="black"/>
</g>
<g clip-path="url(#clip63_303_1221)">
<path d="M18.0289 23.6321H16.4609V25.2001H18.0289V23.6321Z" fill="black"/>
</g>
<g clip-path="url(#clip64_303_1221)">
<path d="M25.2008 23.6321H23.6328V25.2001H25.2008V23.6321Z" fill="black"/>
</g>
<g clip-path="url(#clip65_303_1221)">
<path d="M26.9977 23.6321H25.4297V25.2001H26.9977V23.6321Z" fill="black"/>
</g>
<g clip-path="url(#clip66_303_1221)">
<path d="M28.7789 23.6321H27.2109V25.2001H28.7789V23.6321Z" fill="black"/>
</g>
<g clip-path="url(#clip67_303_1221)">
<path d="M30.5797 23.6321H29.0117V25.2001H30.5797V23.6321Z" fill="black"/>
</g>
<g clip-path="url(#clip68_303_1221)">
<path d="M35.9469 23.6321H34.3789V25.2001H35.9469V23.6321Z" fill="black"/>
</g>
<g clip-path="url(#clip69_303_1221)">
<path d="M37.7438 23.6321H36.1758V25.2001H37.7438V23.6321Z" fill="black"/>
</g>
<g clip-path="url(#clip70_303_1221)">
<path d="M39.5368 23.6321H37.9688V25.2001H39.5368V23.6321Z" fill="black"/>
</g>
<g clip-path="url(#clip71_303_1221)">
<path d="M44.9118 23.6321H43.3438V25.2001H44.9118V23.6321Z" fill="black"/>
</g>
<g clip-path="url(#clip72_303_1221)">
<path d="M9.07581 25.424H7.50781V26.992H9.07581V25.424Z" fill="black"/>
</g>
<g clip-path="url(#clip73_303_1221)">
<path d="M16.2399 25.424H14.6719V26.992H16.2399V25.424Z" fill="black"/>
</g>
<g clip-path="url(#clip74_303_1221)">
<path d="M21.6149 25.424H20.0469V26.992H21.6149V25.424Z" fill="black"/>
</g>
<g clip-path="url(#clip75_303_1221)">
<path d="M23.4039 25.424H21.8359V26.992H23.4039V25.424Z" fill="black"/>
</g>
<g clip-path="url(#clip76_303_1221)">
<path d="M25.2008 25.424H23.6328V26.992H25.2008V25.424Z" fill="black"/>
</g>
<g clip-path="url(#clip77_303_1221)">
<path d="M28.7789 25.424H27.2109V26.992H28.7789V25.424Z" fill="black"/>
</g>
<g clip-path="url(#clip78_303_1221)">
<path d="M30.5797 25.424H29.0117V26.992H30.5797V25.424Z" fill="black"/>
</g>
<g clip-path="url(#clip79_303_1221)">
<path d="M32.3727 25.424H30.8047V26.992H32.3727V25.424Z" fill="black"/>
</g>
<g clip-path="url(#clip80_303_1221)">
<path d="M35.9469 25.424H34.3789V26.992H35.9469V25.424Z" fill="black"/>
</g>
<g clip-path="url(#clip81_303_1221)">
<path d="M39.5368 25.424H37.9688V26.992H39.5368V25.424Z" fill="black"/>
</g>
<g clip-path="url(#clip82_303_1221)">
<path d="M41.3258 25.424H39.7578V26.992H41.3258V25.424Z" fill="black"/>
</g>
<g clip-path="url(#clip83_303_1221)">
<path d="M48.4977 25.424H46.9297V26.992H48.4977V25.424Z" fill="black"/>
</g>
<g clip-path="url(#clip84_303_1221)">
<path d="M50.2946 25.424H48.7266V26.992H50.2946V25.424Z" fill="black"/>
</g>
<g clip-path="url(#clip85_303_1221)">
<path d="M7.28284 27.2159H5.71484V28.7839H7.28284V27.2159Z" fill="black"/>
</g>
<g clip-path="url(#clip86_303_1221)">
<path d="M9.07581 27.2161H7.50781V28.7841H9.07581V27.2161Z" fill="black"/>
</g>
<g clip-path="url(#clip87_303_1221)">
<path d="M10.861 27.2161H9.29297V28.7841H10.861V27.2161Z" fill="black"/>
</g>
<g clip-path="url(#clip88_303_1221)">
<path d="M18.0289 27.2159H16.4609V28.7839H18.0289V27.2159Z" fill="black"/>
</g>
<g clip-path="url(#clip89_303_1221)">
<path d="M19.8258 27.2161H18.2578V28.7841H19.8258V27.2161Z" fill="black"/>
</g>
<g clip-path="url(#clip90_303_1221)">
<path d="M21.6149 27.2161H20.0469V28.7841H21.6149V27.2161Z" fill="black"/>
</g>
<g clip-path="url(#clip91_303_1221)">
<path d="M25.2008 27.2161H23.6328V28.7841H25.2008V27.2161Z" fill="black"/>
</g>
<g clip-path="url(#clip92_303_1221)">
<path d="M26.9977 27.2159H25.4297V28.7839H26.9977V27.2159Z" fill="black"/>
</g>
<g clip-path="url(#clip93_303_1221)">
<path d="M32.3727 27.2161H30.8047V28.7841H32.3727V27.2161Z" fill="black"/>
</g>
<g clip-path="url(#clip94_303_1221)">
<path d="M35.9469 27.2161H34.3789V28.7841H35.9469V27.2161Z" fill="black"/>
</g>
<g clip-path="url(#clip95_303_1221)">
<path d="M39.5368 27.2159H37.9688V28.7839H39.5368V27.2159Z" fill="black"/>
</g>
<g clip-path="url(#clip96_303_1221)">
<path d="M41.3258 27.2159H39.7578V28.7839H41.3258V27.2159Z" fill="black"/>
</g>
<g clip-path="url(#clip97_303_1221)">
<path d="M46.7008 27.2161H45.1328V28.7841H46.7008V27.2161Z" fill="black"/>
</g>
<g clip-path="url(#clip98_303_1221)">
<path d="M48.4977 27.2161H46.9297V28.7841H48.4977V27.2161Z" fill="black"/>
</g>
<g clip-path="url(#clip99_303_1221)">
<path d="M50.2946 27.2159H48.7266V28.7839H50.2946V27.2159Z" fill="black"/>
</g>
<g clip-path="url(#clip100_303_1221)">
<path d="M9.07581 29.0081H7.50781V30.5761H9.07581V29.0081Z" fill="black"/>
</g>
<g clip-path="url(#clip101_303_1221)">
<path d="M14.4508 29.0081H12.8828V30.5761H14.4508V29.0081Z" fill="black"/>
</g>
<g clip-path="url(#clip102_303_1221)">
<path d="M16.2399 29.0081H14.6719V30.5761H16.2399V29.0081Z" fill="black"/>
</g>
<g clip-path="url(#clip103_303_1221)">
<path d="M23.4039 29.0081H21.8359V30.5761H23.4039V29.0081Z" fill="black"/>
</g>
<g clip-path="url(#clip104_303_1221)">
<path d="M25.2008 29.0081H23.6328V30.5761H25.2008V29.0081Z" fill="black"/>
</g>
<g clip-path="url(#clip105_303_1221)">
<path d="M26.9977 29.0081H25.4297V30.5761H26.9977V29.0081Z" fill="black"/>
</g>
<g clip-path="url(#clip106_303_1221)">
<path d="M30.5797 29.0081H29.0117V30.5761H30.5797V29.0081Z" fill="black"/>
</g>
<g clip-path="url(#clip107_303_1221)">
<path d="M32.3727 29.0081H30.8047V30.5761H32.3727V29.0081Z" fill="black"/>
</g>
<g clip-path="url(#clip108_303_1221)">
<path d="M35.9469 29.0081H34.3789V30.5761H35.9469V29.0081Z" fill="black"/>
</g>
<g clip-path="url(#clip109_303_1221)">
<path d="M43.1227 29.0081H41.5547V30.5761H43.1227V29.0081Z" fill="black"/>
</g>
<g clip-path="url(#clip110_303_1221)">
<path d="M48.4977 29.0081H46.9297V30.5761H48.4977V29.0081Z" fill="black"/>
</g>
<g clip-path="url(#clip111_303_1221)">
<path d="M50.2946 29.0081H48.7266V30.5761H50.2946V29.0081Z" fill="black"/>
</g>
<g clip-path="url(#clip112_303_1221)">
<path d="M7.28284 30.7999H5.71484V32.3679H7.28284V30.7999Z" fill="black"/>
</g>
<g clip-path="url(#clip113_303_1221)">
<path d="M10.861 30.7999H9.29297V32.3679H10.861V30.7999Z" fill="black"/>
</g>
<g clip-path="url(#clip114_303_1221)">
<path d="M12.6578 30.7999H11.0898V32.3679H12.6578V30.7999Z" fill="black"/>
</g>
<g clip-path="url(#clip115_303_1221)">
<path d="M14.4508 30.7999H12.8828V32.3679H14.4508V30.7999Z" fill="black"/>
</g>
<g clip-path="url(#clip116_303_1221)">
<path d="M16.2399 30.7999H14.6719V32.3679H16.2399V30.7999Z" fill="black"/>
</g>
<g clip-path="url(#clip117_303_1221)">
<path d="M18.0289 30.7999H16.4609V32.3679H18.0289V30.7999Z" fill="black"/>
</g>
<g clip-path="url(#clip118_303_1221)">
<path d="M21.6149 30.7999H20.0469V32.3679H21.6149V30.7999Z" fill="black"/>
</g>
<g clip-path="url(#clip119_303_1221)">
<path d="M34.1578 30.7999H32.5898V32.3679H34.1578V30.7999Z" fill="black"/>
</g>
<g clip-path="url(#clip120_303_1221)">
<path d="M35.9469 30.7999H34.3789V32.3679H35.9469V30.7999Z" fill="black"/>
</g>
<g clip-path="url(#clip121_303_1221)">
<path d="M37.7438 30.7999H36.1758V32.3679H37.7438V30.7999Z" fill="black"/>
</g>
<g clip-path="url(#clip122_303_1221)">
<path d="M39.5368 30.7999H37.9688V32.3679H39.5368V30.7999Z" fill="black"/>
</g>
<g clip-path="url(#clip123_303_1221)">
<path d="M44.9118 30.7999H43.3438V32.3679H44.9118V30.7999Z" fill="black"/>
</g>
<g clip-path="url(#clip124_303_1221)">
<path d="M48.4977 30.7999H46.9297V32.3679H48.4977V30.7999Z" fill="black"/>
</g>
<g clip-path="url(#clip125_303_1221)">
<path d="M50.2946 30.7999H48.7266V32.3679H50.2946V30.7999Z" fill="black"/>
</g>
<g clip-path="url(#clip126_303_1221)">
<path d="M9.07581 32.5919H7.50781V34.1599H9.07581V32.5919Z" fill="black"/>
</g>
<g clip-path="url(#clip127_303_1221)">
<path d="M10.861 32.5919H9.29297V34.1599H10.861V32.5919Z" fill="black"/>
</g>
<g clip-path="url(#clip128_303_1221)">
<path d="M12.6578 32.5919H11.0898V34.1599H12.6578V32.5919Z" fill="black"/>
</g>
<g clip-path="url(#clip129_303_1221)">
<path d="M21.6149 32.5919H20.0469V34.1599H21.6149V32.5919Z" fill="black"/>
</g>
<g clip-path="url(#clip130_303_1221)">
<path d="M23.4039 32.5919H21.8359V34.1599H23.4039V32.5919Z" fill="black"/>
</g>
<g clip-path="url(#clip131_303_1221)">
<path d="M25.2008 32.5919H23.6328V34.1599H25.2008V32.5919Z" fill="black"/>
</g>
<g clip-path="url(#clip132_303_1221)">
<path d="M26.9977 32.5919H25.4297V34.1599H26.9977V32.5919Z" fill="black"/>
</g>
<g clip-path="url(#clip133_303_1221)">
<path d="M32.3727 32.5919H30.8047V34.1599H32.3727V32.5919Z" fill="black"/>
</g>
<g clip-path="url(#clip134_303_1221)">
<path d="M39.5368 32.5919H37.9688V34.1599H39.5368V32.5919Z" fill="black"/>
</g>
<g clip-path="url(#clip135_303_1221)">
<path d="M41.3258 32.592H39.7578V34.16H41.3258V32.592Z" fill="black"/>
</g>
<g clip-path="url(#clip136_303_1221)">
<path d="M7.28284 34.3839H5.71484V35.9519H7.28284V34.3839Z" fill="black"/>
</g>
<g clip-path="url(#clip137_303_1221)">
<path d="M12.6578 34.384H11.0898V35.952H12.6578V34.384Z" fill="black"/>
</g>
<g clip-path="url(#clip138_303_1221)">
<path d="M16.2399 34.3839H14.6719V35.9519H16.2399V34.3839Z" fill="black"/>
</g>
<g clip-path="url(#clip139_303_1221)">
<path d="M18.0289 34.3839H16.4609V35.9519H18.0289V34.3839Z" fill="black"/>
</g>
<g clip-path="url(#clip140_303_1221)">
<path d="M19.8258 34.384H18.2578V35.952H19.8258V34.384Z" fill="black"/>
</g>
<g clip-path="url(#clip141_303_1221)">
<path d="M23.4039 34.384H21.8359V35.952H23.4039V34.384Z" fill="black"/>
</g>
<g clip-path="url(#clip142_303_1221)">
<path d="M28.7789 34.384H27.2109V35.952H28.7789V34.384Z" fill="black"/>
</g>
<g clip-path="url(#clip143_303_1221)">
<path d="M32.3727 34.384H30.8047V35.952H32.3727V34.384Z" fill="black"/>
</g>
<g clip-path="url(#clip144_303_1221)">
<path d="M35.9469 34.384H34.3789V35.952H35.9469V34.384Z" fill="black"/>
</g>
<g clip-path="url(#clip145_303_1221)">
<path d="M37.7438 34.3839H36.1758V35.9519H37.7438V34.3839Z" fill="black"/>
</g>
<g clip-path="url(#clip146_303_1221)">
<path d="M39.5368 34.3839H37.9688V35.9519H39.5368V34.3839Z" fill="black"/>
</g>
<g clip-path="url(#clip147_303_1221)">
<path d="M41.3258 34.3839H39.7578V35.9519H41.3258V34.3839Z" fill="black"/>
</g>
<g clip-path="url(#clip148_303_1221)">
<path d="M43.1227 34.384H41.5547V35.952H43.1227V34.384Z" fill="black"/>
</g>
<g clip-path="url(#clip149_303_1221)">
<path d="M46.7008 34.384H45.1328V35.952H46.7008V34.384Z" fill="black"/>
</g>
<g clip-path="url(#clip150_303_1221)">
<path d="M50.2946 34.3839H48.7266V35.9519H50.2946V34.3839Z" fill="black"/>
</g>
<g clip-path="url(#clip151_303_1221)">
<path d="M21.6149 36.176H20.0469V37.744H21.6149V36.176Z" fill="black"/>
</g>
<g clip-path="url(#clip152_303_1221)">
<path d="M23.4039 36.176H21.8359V37.744H23.4039V36.176Z" fill="black"/>
</g>
<g clip-path="url(#clip153_303_1221)">
<path d="M26.9977 36.1759H25.4297V37.7439H26.9977V36.1759Z" fill="black"/>
</g>
<g clip-path="url(#clip154_303_1221)">
<path d="M28.7789 36.176H27.2109V37.744H28.7789V36.176Z" fill="black"/>
</g>
<g clip-path="url(#clip155_303_1221)">
<path d="M30.5797 36.1759H29.0117V37.7439H30.5797V36.1759Z" fill="black"/>
</g>
<g clip-path="url(#clip156_303_1221)">
<path d="M35.9469 36.176H34.3789V37.744H35.9469V36.176Z" fill="black"/>
</g>
<g clip-path="url(#clip157_303_1221)">
<path d="M43.1227 36.176H41.5547V37.744H43.1227V36.176Z" fill="black"/>
</g>
<g clip-path="url(#clip158_303_1221)">
<path d="M48.4977 36.176H46.9297V37.744H48.4977V36.176Z" fill="black"/>
</g>
<g clip-path="url(#clip159_303_1221)">
<path d="M21.6149 37.968H20.0469V39.536H21.6149V37.968Z" fill="black"/>
</g>
<g clip-path="url(#clip160_303_1221)">
<path d="M23.4039 37.968H21.8359V39.536H23.4039V37.968Z" fill="black"/>
</g>
<g clip-path="url(#clip161_303_1221)">
<path d="M25.2008 37.968H23.6328V39.536H25.2008V37.968Z" fill="black"/>
</g>
<g clip-path="url(#clip162_303_1221)">
<path d="M26.9977 37.968H25.4297V39.536H26.9977V37.968Z" fill="black"/>
</g>
<g clip-path="url(#clip163_303_1221)">
<path d="M28.7789 37.968H27.2109V39.536H28.7789V37.968Z" fill="black"/>
</g>
<g clip-path="url(#clip164_303_1221)">
<path d="M30.5797 37.968H29.0117V39.536H30.5797V37.968Z" fill="black"/>
</g>
<g clip-path="url(#clip165_303_1221)">
<path d="M34.1578 37.968H32.5898V39.536H34.1578V37.968Z" fill="black"/>
</g>
<g clip-path="url(#clip166_303_1221)">
<path d="M35.9469 37.968H34.3789V39.536H35.9469V37.968Z" fill="black"/>
</g>
<g clip-path="url(#clip167_303_1221)">
<path d="M39.5368 37.968H37.9688V39.536H39.5368V37.968Z" fill="black"/>
</g>
<g clip-path="url(#clip168_303_1221)">
<path d="M43.1227 37.968H41.5547V39.536H43.1227V37.968Z" fill="black"/>
</g>
<g clip-path="url(#clip169_303_1221)">
<path d="M44.9118 37.9681H43.3438V39.5361H44.9118V37.9681Z" fill="black"/>
</g>
<g clip-path="url(#clip170_303_1221)">
<path d="M48.4977 37.968H46.9297V39.536H48.4977V37.968Z" fill="black"/>
</g>
<g clip-path="url(#clip171_303_1221)">
<path d="M50.2946 37.968H48.7266V39.536H50.2946V37.968Z" fill="black"/>
</g>
<g clip-path="url(#clip172_303_1221)">
<path d="M21.6149 39.76H20.0469V41.328H21.6149V39.76Z" fill="black"/>
</g>
<g clip-path="url(#clip173_303_1221)">
<path d="M28.7789 39.76H27.2109V41.328H28.7789V39.76Z" fill="black"/>
</g>
<g clip-path="url(#clip174_303_1221)">
<path d="M30.5797 39.7599H29.0117V41.3279H30.5797V39.7599Z" fill="black"/>
</g>
<g clip-path="url(#clip175_303_1221)">
<path d="M32.3727 39.76H30.8047V41.328H32.3727V39.76Z" fill="black"/>
</g>
<g clip-path="url(#clip176_303_1221)">
<path d="M35.9469 39.76H34.3789V41.328H35.9469V39.76Z" fill="black"/>
</g>
<g clip-path="url(#clip177_303_1221)">
<path d="M43.1227 39.76H41.5547V41.328H43.1227V39.76Z" fill="black"/>
</g>
<g clip-path="url(#clip178_303_1221)">
<path d="M44.9118 39.76H43.3438V41.328H44.9118V39.76Z" fill="black"/>
</g>
<g clip-path="url(#clip179_303_1221)">
<path d="M48.4977 39.76H46.9297V41.328H48.4977V39.76Z" fill="black"/>
</g>
<g clip-path="url(#clip180_303_1221)">
<path d="M50.2946 39.7599H48.7266V41.3279H50.2946V39.7599Z" fill="black"/>
</g>
<g clip-path="url(#clip181_303_1221)">
<path d="M21.6149 41.552H20.0469V43.12H21.6149V41.552Z" fill="black"/>
</g>
<g clip-path="url(#clip182_303_1221)">
<path d="M23.4039 41.552H21.8359V43.12H23.4039V41.552Z" fill="black"/>
</g>
<g clip-path="url(#clip183_303_1221)">
<path d="M25.2008 41.552H23.6328V43.12H25.2008V41.552Z" fill="black"/>
</g>
<g clip-path="url(#clip184_303_1221)">
<path d="M26.9977 41.5519H25.4297V43.1199H26.9977V41.5519Z" fill="black"/>
</g>
<g clip-path="url(#clip185_303_1221)">
<path d="M28.7789 41.552H27.2109V43.12H28.7789V41.552Z" fill="black"/>
</g>
<g clip-path="url(#clip186_303_1221)">
<path d="M34.1578 41.552H32.5898V43.12H34.1578V41.552Z" fill="black"/>
</g>
<g clip-path="url(#clip187_303_1221)">
<path d="M35.9469 41.552H34.3789V43.12H35.9469V41.552Z" fill="black"/>
</g>
<g clip-path="url(#clip188_303_1221)">
<path d="M37.7438 41.5519H36.1758V43.1199H37.7438V41.5519Z" fill="black"/>
</g>
<g clip-path="url(#clip189_303_1221)">
<path d="M39.5368 41.5519H37.9688V43.1199H39.5368V41.5519Z" fill="black"/>
</g>
<g clip-path="url(#clip190_303_1221)">
<path d="M41.3258 41.5519H39.7578V43.1199H41.3258V41.5519Z" fill="black"/>
</g>
<g clip-path="url(#clip191_303_1221)">
<path d="M43.1227 41.552H41.5547V43.12H43.1227V41.552Z" fill="black"/>
</g>
<g clip-path="url(#clip192_303_1221)">
<path d="M46.7008 41.552H45.1328V43.12H46.7008V41.552Z" fill="black"/>
</g>
<g clip-path="url(#clip193_303_1221)">
<path d="M25.2008 43.344H23.6328V44.912H25.2008V43.344Z" fill="black"/>
</g>
<g clip-path="url(#clip194_303_1221)">
<path d="M26.9977 43.3441H25.4297V44.9121H26.9977V43.3441Z" fill="black"/>
</g>
<g clip-path="url(#clip195_303_1221)">
<path d="M30.5797 43.3441H29.0117V44.9121H30.5797V43.3441Z" fill="black"/>
</g>
<g clip-path="url(#clip196_303_1221)">
<path d="M32.3727 43.344H30.8047V44.912H32.3727V43.344Z" fill="black"/>
</g>
<g clip-path="url(#clip197_303_1221)">
<path d="M34.1578 43.344H32.5898V44.912H34.1578V43.344Z" fill="black"/>
</g>
<g clip-path="url(#clip198_303_1221)">
<path d="M35.9469 43.344H34.3789V44.912H35.9469V43.344Z" fill="black"/>
</g>
<g clip-path="url(#clip199_303_1221)">
<path d="M37.7438 43.3441H36.1758V44.9121H37.7438V43.3441Z" fill="black"/>
</g>
<g clip-path="url(#clip200_303_1221)">
<path d="M41.3258 43.3441H39.7578V44.9121H41.3258V43.3441Z" fill="black"/>
</g>
<g clip-path="url(#clip201_303_1221)">
<path d="M43.1227 43.344H41.5547V44.912H43.1227V43.344Z" fill="black"/>
</g>
<g clip-path="url(#clip202_303_1221)">
<path d="M21.6149 45.136H20.0469V46.704H21.6149V45.136Z" fill="black"/>
</g>
<g clip-path="url(#clip203_303_1221)">
<path d="M23.4039 45.136H21.8359V46.704H23.4039V45.136Z" fill="black"/>
</g>
<g clip-path="url(#clip204_303_1221)">
<path d="M28.7789 45.136H27.2109V46.704H28.7789V45.136Z" fill="black"/>
</g>
<g clip-path="url(#clip205_303_1221)">
<path d="M30.5797 45.136H29.0117V46.704H30.5797V45.136Z" fill="black"/>
</g>
<g clip-path="url(#clip206_303_1221)">
<path d="M34.1578 45.136H32.5898V46.704H34.1578V45.136Z" fill="black"/>
</g>
<g clip-path="url(#clip207_303_1221)">
<path d="M35.9469 45.136H34.3789V46.704H35.9469V45.136Z" fill="black"/>
</g>
<g clip-path="url(#clip208_303_1221)">
<path d="M44.9118 45.136H43.3438V46.704H44.9118V45.136Z" fill="black"/>
</g>
<g clip-path="url(#clip209_303_1221)">
<path d="M50.2946 45.136H48.7266V46.704H50.2946V45.136Z" fill="black"/>
</g>
<g clip-path="url(#clip210_303_1221)">
<path d="M21.6149 46.9281H20.0469V48.4961H21.6149V46.9281Z" fill="black"/>
</g>
<g clip-path="url(#clip211_303_1221)">
<path d="M26.9977 46.9281H25.4297V48.4961H26.9977V46.9281Z" fill="black"/>
</g>
<g clip-path="url(#clip212_303_1221)">
<path d="M30.5797 46.9281H29.0117V48.4961H30.5797V46.9281Z" fill="black"/>
</g>
<g clip-path="url(#clip213_303_1221)">
<path d="M32.3727 46.9281H30.8047V48.4961H32.3727V46.9281Z" fill="black"/>
</g>
<g clip-path="url(#clip214_303_1221)">
<path d="M35.9469 46.9281H34.3789V48.4961H35.9469V46.9281Z" fill="black"/>
</g>
<g clip-path="url(#clip215_303_1221)">
<path d="M43.1227 46.9281H41.5547V48.4961H43.1227V46.9281Z" fill="black"/>
</g>
<g clip-path="url(#clip216_303_1221)">
<path d="M44.9118 46.9281H43.3438V48.4961H44.9118V46.9281Z" fill="black"/>
</g>
<g clip-path="url(#clip217_303_1221)">
<path d="M50.2946 46.9281H48.7266V48.4961H50.2946V46.9281Z" fill="black"/>
</g>
<g clip-path="url(#clip218_303_1221)">
<path d="M21.6149 48.72H20.0469V50.288H21.6149V48.72Z" fill="black"/>
</g>
<g clip-path="url(#clip219_303_1221)">
<path d="M25.2008 48.72H23.6328V50.288H25.2008V48.72Z" fill="black"/>
</g>
<g clip-path="url(#clip220_303_1221)">
<path d="M28.7789 48.72H27.2109V50.288H28.7789V48.72Z" fill="black"/>
</g>
<g clip-path="url(#clip221_303_1221)">
<path d="M30.5797 48.72H29.0117V50.288H30.5797V48.72Z" fill="black"/>
</g>
<g clip-path="url(#clip222_303_1221)">
<path d="M35.9469 48.72H34.3789V50.288H35.9469V48.72Z" fill="black"/>
</g>
<g clip-path="url(#clip223_303_1221)">
<path d="M43.1227 48.72H41.5547V50.288H43.1227V48.72Z" fill="black"/>
</g>
<g clip-path="url(#clip224_303_1221)">
<path d="M44.9118 48.72H43.3438V50.288H44.9118V48.72Z" fill="black"/>
</g>
<g clip-path="url(#clip225_303_1221)">
<path d="M48.4977 48.72H46.9297V50.288H48.4977V48.72Z" fill="black"/>
</g>
<g clip-path="url(#clip226_303_1221)">
<path d="M50.2946 48.72H48.7266V50.288H50.2946V48.72Z" fill="black"/>
</g>
<g clip-path="url(#clip227_303_1221)">
<path d="M5.97545 5.59839C5.76578 5.59839 5.59375 5.77042 5.59375 5.98008V7.39218V9.18418V10.9762V12.7682V14.5602V16.3522V17.7643C5.59375 17.9739 5.76399 18.146 5.97545 18.146H17.7596C17.9693 18.146 18.1413 17.9757 18.1413 17.7643V16.3522V14.5602V12.7682V10.9762V9.18418V7.39218V5.98008C18.1413 5.77042 17.9711 5.59839 17.7596 5.59839H5.97545ZM16.3475 9.18418V10.9762V12.7682V14.5602V16.1336C16.3475 16.2554 16.249 16.3522 16.1289 16.3522H7.60617C7.48431 16.3522 7.38754 16.2536 7.38754 16.1336V14.5602V12.7682V10.9762V9.18418V7.6108C7.38754 7.48895 7.4861 7.39218 7.60617 7.39218H16.1289C16.2508 7.39218 16.3475 7.49074 16.3475 7.6108V9.18418Z" fill="black"/>
</g>
<path d="M14.5614 12.7682V10.9762V9.56407C14.5614 9.35441 14.3911 9.18237 14.1797 9.18237H9.56529C9.35563 9.18237 9.18359 9.35261 9.18359 9.56407V10.9762V12.7682V14.1803C9.18359 14.3899 9.35383 14.562 9.56529 14.562H14.1797C14.3894 14.562 14.5614 14.3917 14.5614 14.1803V12.7682Z" fill="black"/>
<g clip-path="url(#clip228_303_1221)">
<path d="M38.2333 5.59839C38.0236 5.59839 37.8516 5.77042 37.8516 5.98008V7.39218V9.18418V10.9762V12.7682V14.5602V16.3522V17.7643C37.8516 17.9739 38.0218 18.146 38.2333 18.146H50.0174C50.2271 18.146 50.3991 17.9757 50.3991 17.7643V16.3522V14.5602V12.7682V10.9762V9.18418V7.39218V5.98008C50.3991 5.77042 50.2289 5.59839 50.0174 5.59839H38.2333ZM48.6054 9.18418V10.9762V12.7682V14.5602V16.1336C48.6054 16.2554 48.5068 16.3522 48.3867 16.3522H39.864C39.7421 16.3522 39.6454 16.2536 39.6454 16.1336V14.5602V12.7682V10.9762V9.18418V7.6108C39.6454 7.48895 39.7439 7.39218 39.864 7.39218H48.3867C48.5086 7.39218 48.6054 7.49074 48.6054 7.6108V9.18418Z" fill="black"/>
</g>
<path d="M46.8192 12.7682V10.9762V9.56407C46.8192 9.35441 46.649 9.18237 46.4375 9.18237H41.8231C41.6134 9.18237 41.4414 9.35261 41.4414 9.56407V10.9762V12.7682V14.1803C41.4414 14.3899 41.6116 14.562 41.8231 14.562H46.4375C46.6472 14.562 46.8192 14.3917 46.8192 14.1803V12.7682Z" fill="black"/>
<g clip-path="url(#clip229_303_1221)">
<path d="M5.97545 37.8542C5.76578 37.8542 5.59375 38.0263 5.59375 38.2359V39.648V41.44V43.232V45.024V46.816V48.608V50.0201C5.59375 50.2298 5.76399 50.4018 5.97545 50.4018H17.7596C17.9693 50.4018 18.1413 50.2316 18.1413 50.0201V48.608V46.816V45.024V43.232V41.44V39.648V38.2359C18.1413 38.0263 17.9711 37.8542 17.7596 37.8542H5.97545ZM16.3475 41.44V43.232V45.024V46.816V48.3894C16.3475 48.5113 16.249 48.608 16.1289 48.608H7.60617C7.48431 48.608 7.38754 48.5095 7.38754 48.3894V46.816V45.024V43.232V41.44V39.8667C7.38754 39.7448 7.4861 39.648 7.60617 39.648H16.1289C16.2508 39.648 16.3475 39.7466 16.3475 39.8667V41.44Z" fill="black"/>
</g>
<path d="M14.5614 45.024V43.232V41.8199C14.5614 41.6103 14.3911 41.4382 14.1797 41.4382H9.56529C9.35563 41.4382 9.18359 41.6085 9.18359 41.8199V43.232V45.024V46.4361C9.18359 46.6458 9.35383 46.8178 9.56529 46.8178H14.1797C14.3894 46.8178 14.5614 46.6476 14.5614 46.4361V45.024Z" fill="black"/>
</g>
</g>
<path fill-rule="evenodd" clip-rule="evenodd" d="M53.6559 158.353L53.6559 158.27C53.6556 144.106 42.1624 132.625 27.9852 132.625C13.808 132.625 2.31541 144.107 2.31577 158.271L2.31577 158.355C2.31612 172.518 13.8093 184 27.9865 183.999C42.1637 183.999 53.6563 172.517 53.6559 158.353ZM24.9407 164.717L18.3352 158.07L15.1162 161.31L21.7217 167.957L21.7216 167.957L24.9408 171.197L28.1598 167.957L33.2809 162.803L30.0618 159.563L24.9407 164.717ZM24.9407 164.717L24.9407 164.717L24.9414 164.718L24.9407 164.717ZM36.6635 159.584L30.058 152.937L24.9368 158.091L21.7177 154.851L26.8389 149.697L26.9851 149.55L30.0579 146.457L33.277 149.697L33.277 149.697L39.8407 156.302L36.6635 159.584Z" fill="white"/>
<path d="M18.164 90.4543C18.1639 89.7015 18.3279 89.0306 18.6559 88.4418C18.9838 87.8434 19.4469 87.3753 20.0449 87.0374C20.643 86.6996 21.3327 86.5307 22.1141 86.5306C22.8955 86.5306 23.59 86.6995 24.1978 87.0373C24.7959 87.3751 25.2589 87.8433 25.5869 88.4417C25.9149 89.0304 26.0789 89.7013 26.0789 90.4541C26.079 91.4966 25.7317 92.3218 25.0372 92.9299L28.7849 92.9298L28.7849 94.7396L18.2509 94.7399L18.2508 93.017L19.2637 93.0169C18.8971 92.7177 18.6222 92.351 18.4389 91.9166C18.2556 91.4726 18.164 90.9852 18.164 90.4543ZM24.5307 90.6569C24.5307 89.9909 24.3088 89.4455 23.865 89.0208C23.4213 88.5865 22.8377 88.3693 22.1142 88.3694C21.3907 88.3694 20.8071 88.5866 20.3633 89.0209C19.9196 89.4456 19.6977 89.991 19.6978 90.657C19.6978 91.0913 19.7991 91.4822 20.0017 91.8297C20.1946 92.1772 20.4744 92.4523 20.8409 92.6549C21.2075 92.8576 21.6319 92.959 22.1143 92.959C22.5966 92.9589 23.021 92.8576 23.3876 92.6549C23.7542 92.4522 24.0387 92.1771 24.2413 91.8296C24.4342 91.4821 24.5307 91.0912 24.5307 90.6569Z" fill="white"/>
<path d="M18.1638 100.224C18.1638 99.2487 18.4484 98.4765 19.0176 97.907C19.5772 97.3375 20.4215 97.0527 21.5503 97.0527L25.979 97.0526L25.979 98.8624L21.7819 98.8625C21.1066 98.8625 20.6 99.0121 20.2623 99.3113C19.915 99.6106 19.7413 100.04 19.7413 100.6C19.7414 101.208 19.944 101.695 20.3492 102.062C20.7448 102.429 21.3141 102.612 22.057 102.612L25.9791 102.612L25.9791 104.422L21.7821 104.422C21.1067 104.422 20.6002 104.572 20.2625 104.871C19.9151 105.17 19.7415 105.6 19.7415 106.16C19.7415 106.777 19.9393 107.27 20.3349 107.636C20.7305 107.993 21.3046 108.172 22.0572 108.172L25.9792 108.172L25.9793 109.982L18.2509 109.982L18.2509 108.259L19.235 108.259C18.8876 107.969 18.6223 107.607 18.439 107.173C18.2556 106.739 18.164 106.256 18.164 105.725C18.1639 105.146 18.2749 104.635 18.4968 104.191C18.709 103.737 19.0274 103.38 19.452 103.119C19.0467 102.801 18.7331 102.39 18.5112 101.889C18.2796 101.387 18.1638 100.832 18.1638 100.224Z" fill="white"/>
<path d="M26.0796 115.839C26.0796 116.62 25.9108 117.325 25.5732 117.952C25.2355 118.58 24.7676 119.072 24.1695 119.429C23.5617 119.777 22.8768 119.95 22.1146 119.95C21.3525 119.95 20.6724 119.777 20.0742 119.429C19.4761 119.072 19.0082 118.58 18.6705 117.953C18.3328 117.325 18.164 116.621 18.164 115.839C18.1639 115.047 18.3328 114.338 18.6704 113.71C19.008 113.083 19.4759 112.596 20.074 112.248C20.6722 111.891 21.3523 111.712 22.1144 111.712C22.8766 111.712 23.5616 111.891 24.1693 112.248C24.7675 112.595 25.2354 113.083 25.5731 113.71C25.9107 114.338 26.0796 115.047 26.0796 115.839ZM24.5312 115.839C24.5312 115.173 24.3093 114.622 23.8655 114.188C23.4217 113.754 22.838 113.537 22.1145 113.537C21.3909 113.537 20.8073 113.754 20.3635 114.188C19.9197 114.623 19.6979 115.173 19.6979 115.839C19.6979 116.505 19.9198 117.055 20.3636 117.489C20.8074 117.914 21.3911 118.126 22.1146 118.126C22.8382 118.126 23.4218 117.914 23.8656 117.489C24.3093 117.055 24.5312 116.505 24.5312 115.839Z" fill="white"/>
<path d="M26.0796 124.066C26.0796 124.867 25.9108 125.586 25.5732 126.223C25.2355 126.86 24.7676 127.357 24.1695 127.714C23.5617 128.072 22.8768 128.25 22.1146 128.25C21.3525 128.25 20.6724 128.072 20.0742 127.715C19.4761 127.357 19.0082 126.865 18.6705 126.238C18.3328 125.601 18.164 124.877 18.164 124.066C18.1639 123.304 18.3183 122.638 18.627 122.068C18.9357 121.489 19.3794 121.055 19.9583 120.765L20.7687 122.155C20.4117 122.377 20.1465 122.657 19.9728 122.995C19.7895 123.323 19.6979 123.685 19.6979 124.08C19.6979 124.756 19.9198 125.316 20.3636 125.76C20.7977 126.204 21.3814 126.426 22.1146 126.426C22.8478 126.426 23.4363 126.209 23.8801 125.774C24.3142 125.33 24.5312 124.766 24.5312 124.08C24.5312 123.685 24.4444 123.323 24.2707 122.995C24.0874 122.657 23.8173 122.377 23.4603 122.155L24.2706 120.765C24.8495 121.064 25.2981 121.503 25.6165 122.082C25.9252 122.652 26.0796 123.313 26.0796 124.066Z" fill="white"/>
<path d="M15.7124 108.52C15.7125 109.148 15.6305 109.761 15.4665 110.359C15.3025 110.958 15.0951 111.435 14.8443 111.793L13.4695 111.098C13.701 110.75 13.8891 110.335 14.0338 109.852C14.1689 109.36 14.2364 108.878 14.2364 108.405C14.2364 107.324 13.9518 106.783 13.3826 106.783C13.1124 106.783 12.9243 106.923 12.8182 107.203C12.7121 107.473 12.6108 107.912 12.5143 108.521C12.4179 109.158 12.307 109.679 12.1816 110.084C12.0561 110.48 11.8391 110.827 11.5304 111.127C11.212 111.416 10.7731 111.561 10.2135 111.561C9.48033 111.561 8.89666 111.257 8.46251 110.649C8.01872 110.031 7.79681 109.201 7.79678 108.159C7.79677 107.628 7.85947 107.097 7.98487 106.566C8.10062 106.035 8.25979 105.601 8.46238 105.263L9.83714 105.958C9.45127 106.614 9.25834 107.353 9.25836 108.173C9.25837 108.704 9.34038 109.109 9.5044 109.389C9.65876 109.66 9.86618 109.795 10.1267 109.795C10.4161 109.795 10.6235 109.65 10.7489 109.36C10.8647 109.061 10.9756 108.603 11.0817 107.985C11.1782 107.367 11.2891 106.86 11.4145 106.465C11.5399 106.069 11.7521 105.731 12.0512 105.451C12.3503 105.162 12.7747 105.017 13.3246 105.017C14.0482 105.017 14.627 105.33 15.0612 105.958C15.4953 106.585 15.7124 107.439 15.7124 108.52Z" fill="white"/>
<path d="M11.7907 112.648C11.9161 112.648 12.0946 112.658 12.3261 112.677L12.3263 118.743C12.8954 118.637 13.3489 118.362 13.6865 117.918C14.0145 117.464 14.1785 116.905 14.1785 116.239C14.1785 115.389 13.8987 114.689 13.3391 114.139L14.4534 113.169C14.8682 113.517 15.1818 113.956 15.394 114.487C15.6063 115.018 15.7124 115.616 15.7124 116.282C15.7124 117.131 15.5436 117.879 15.206 118.526C14.8683 119.173 14.4005 119.675 13.8023 120.032C13.1946 120.379 12.5096 120.553 11.7475 120.553C10.995 120.553 10.3197 120.384 9.72151 120.046C9.11372 119.699 8.64098 119.221 8.30331 118.613C7.96564 118.005 7.79679 117.32 7.79678 116.557C7.79676 115.804 7.96557 115.134 8.30321 114.545C8.63121 113.946 9.09909 113.483 9.70687 113.155C10.305 112.817 10.9996 112.648 11.7907 112.648ZM9.24388 116.557C9.24389 117.136 9.41756 117.629 9.76487 118.034C10.1025 118.43 10.556 118.671 11.1252 118.758L11.1251 114.371C10.5655 114.448 10.1121 114.685 9.7648 115.08C9.4175 115.476 9.24386 115.968 9.24388 116.557Z" fill="white"/>
<path d="M15.7124 124.978C15.7125 125.605 15.6305 126.218 15.4665 126.817C15.3025 127.415 15.0951 127.893 14.8443 128.25L13.4695 127.555C13.701 127.208 13.8891 126.793 14.0338 126.31C14.1689 125.818 14.2364 125.335 14.2364 124.862C14.2364 123.781 13.9518 123.241 13.3826 123.241C13.1124 123.241 12.9243 123.381 12.8182 123.661C12.7121 123.931 12.6108 124.37 12.5143 124.978C12.4179 125.615 12.307 126.136 12.1816 126.542C12.0561 126.938 11.8391 127.285 11.5304 127.584C11.212 127.874 10.7731 128.019 10.2135 128.019C9.48033 128.019 8.89666 127.715 8.46251 127.107C8.01872 126.489 7.79681 125.659 7.79678 124.616C7.79677 124.085 7.85947 123.555 7.98487 123.024C8.10062 122.493 8.25979 122.059 8.46238 121.721L9.83714 122.416C9.45127 123.072 9.25834 123.81 9.25836 124.631C9.25837 125.162 9.34038 125.567 9.5044 125.847C9.65876 126.117 9.86618 126.252 10.1267 126.252C10.4161 126.252 10.6235 126.108 10.7489 125.818C10.8647 125.519 10.9756 125.06 11.0817 124.443C11.1782 123.825 11.2891 123.318 11.4145 122.922C11.5399 122.527 11.7521 122.189 12.0512 121.909C12.3503 121.619 12.7747 121.474 13.3246 121.474C14.0482 121.474 14.627 121.788 15.0612 122.415C15.4953 123.043 15.7124 123.897 15.7124 124.978Z" fill="white"/>
<path d="M45.057 106.924L45.0571 110.209L39.918 110.209L39.918 109.669L44.5963 109.669L44.5962 106.924L45.057 106.924Z" fill="white"/>
<path d="M45.057 111.871L45.0571 114.073L44.5963 114.073L44.5963 113.242L40.3787 113.242L40.3787 114.073L39.918 114.073L39.9179 111.871L40.3787 111.871L40.3787 112.698L44.5963 112.698L44.5963 111.871L45.057 111.871Z" fill="white"/>
<path d="M45.057 115.491L45.057 116.176L42.8557 117.677L42.8557 118.476L45.0571 118.476L45.0571 119.016L39.918 119.016L39.9179 117.322C39.9179 116.758 40.0413 116.321 40.2881 116.011C40.5322 115.701 40.8984 115.546 41.3868 115.546C41.602 115.546 41.7963 115.584 41.9696 115.66C42.1402 115.736 42.2859 115.84 42.4067 115.971C42.5275 116.102 42.6246 116.26 42.6981 116.444C42.7716 116.625 42.8163 116.823 42.832 117.039L45.057 115.491ZM41.3868 116.105C41.0376 116.105 40.7829 116.214 40.6228 116.432C40.46 116.647 40.3787 116.944 40.3787 117.322L40.3787 118.476L42.395 118.476L42.3949 117.322C42.3949 116.944 42.3162 116.647 42.1586 116.432C41.9985 116.214 41.7412 116.105 41.3868 116.105Z" fill="white"/>
<path d="M43.5881 119.95C44.079 119.95 44.4466 120.109 44.6908 120.426C44.9349 120.744 45.057 121.196 45.057 121.781L45.0571 123.42L39.918 123.42L39.9179 121.872C39.9179 121.657 39.9363 121.445 39.973 121.238C40.0072 121.03 40.0728 120.845 40.1699 120.683C40.2671 120.517 40.4023 120.383 40.5755 120.281C40.7462 120.178 40.9706 120.127 41.2489 120.127C41.7819 120.127 42.1455 120.394 42.3398 120.927C42.5393 120.275 42.9554 119.95 43.5881 119.95ZM41.2489 120.667C41.0678 120.667 40.9195 120.705 40.804 120.781C40.6884 120.857 40.6005 120.954 40.5401 121.072C40.4771 121.191 40.4351 121.321 40.4141 121.462C40.3905 121.604 40.3787 121.741 40.3787 121.872L40.3787 122.881L42.1232 122.88L42.1232 121.872C42.1232 121.725 42.1127 121.581 42.0917 121.439C42.0681 121.297 42.0247 121.17 41.9617 121.057C41.8961 120.944 41.8068 120.851 41.6939 120.777C41.5811 120.704 41.4327 120.667 41.2489 120.667ZM43.5881 120.489C43.2337 120.489 42.9764 120.605 42.8163 120.836C42.6535 121.065 42.5721 121.38 42.5721 121.781L42.5722 122.88L44.5963 122.88L44.5963 121.781C44.5963 121.38 44.5122 121.065 44.3442 120.836C44.1736 120.605 43.9215 120.489 43.5881 120.489Z" fill="white"/>
<path d="M45.057 124.098L45.057 124.677L43.5881 125.161L43.5882 127.194L45.057 127.67L45.0571 128.249L39.9179 126.54L39.9179 125.807L45.057 124.098ZM43.1116 125.315L40.4614 126.178L43.1117 127.04L43.1116 125.315Z" fill="white"/>
<path d="M42.5661 92.5002L53.6833 80.0001L53.6839 105L42.5661 92.5002Z" fill="white"/>
<path d="M31.0778 92.5004L42.5697 80.0003L42.5703 105L31.0778 92.5004Z" fill="white"/>
<path d="M36.5343 107.104L36.5343 107.884L35.7539 107.884L35.7539 107.104L36.5343 107.104Z" fill="white"/>
<path d="M36.5217 110.435L36.5217 111.015L36.1609 111.015C36.3092 111.18 36.4224 111.361 36.5008 111.56C36.5791 111.756 36.6182 111.957 36.6183 112.164C36.6183 112.475 36.5679 112.753 36.4672 112.999C36.3666 113.246 36.2267 113.454 36.0477 113.625C35.8659 113.793 35.6492 113.923 35.3975 114.015C35.1457 114.105 34.8702 114.149 34.571 114.149C34.2745 114.149 34.0004 114.105 33.7487 114.015C33.4942 113.923 33.2774 113.793 33.0984 113.625C32.9166 113.454 32.7753 113.246 32.6746 113C32.5712 112.753 32.5194 112.475 32.5194 112.164C32.5194 111.957 32.5571 111.756 32.6327 111.56C32.7054 111.362 32.8158 111.18 32.9641 111.015L31.5377 111.015L31.5377 111.795L31.0468 111.795L31.0468 110.436L36.5217 110.435ZM33.5221 111.015C33.3403 111.18 33.2088 111.36 33.1277 111.556C33.0466 111.749 33.006 111.955 33.0061 112.173C33.0061 112.402 33.0466 112.605 33.1277 112.781C33.2088 112.955 33.3193 113.1 33.4592 113.218C33.599 113.335 33.764 113.425 33.9542 113.486C34.1416 113.545 34.3472 113.574 34.571 113.574C34.7947 113.574 35.0017 113.545 35.1919 113.486C35.3793 113.425 35.5429 113.335 35.6827 113.218C35.8226 113.1 35.933 112.955 36.0141 112.781C36.0952 112.605 36.1358 112.402 36.1358 112.173C36.1358 111.731 35.961 111.345 35.6113 111.015L33.5221 111.015Z" fill="white"/>
<path d="M34.7685 118.258C35.1825 118.216 35.5126 118.065 35.7588 117.804C36.0049 117.544 36.128 117.206 36.128 116.789C36.128 116.495 36.0678 116.234 35.9475 116.004C35.8272 115.775 35.6776 115.603 35.4985 115.488L35.7755 115.085C36.0496 115.281 36.2594 115.515 36.4049 115.786C36.5475 116.057 36.6189 116.392 36.6189 116.789C36.6189 117.091 36.5686 117.368 36.4679 117.62C36.3672 117.872 36.2273 118.09 36.0483 118.274C35.8665 118.456 35.6511 118.598 35.4021 118.698C35.1532 118.799 34.8762 118.849 34.5713 118.849C34.2748 118.849 34.0021 118.805 33.7531 118.715C33.5014 118.623 33.2846 118.491 33.1028 118.321C32.9181 118.147 32.7755 117.937 32.6748 117.691C32.5712 117.445 32.5195 117.17 32.5195 116.865C32.5195 116.532 32.5754 116.241 32.6873 115.992C32.7992 115.743 32.9544 115.536 33.153 115.371C33.3488 115.203 33.5838 115.08 33.8579 115.001C34.1321 114.92 34.4356 114.88 34.7684 114.88L34.7685 118.258ZM34.2775 115.488C33.8496 115.552 33.5307 115.708 33.3209 115.954C33.1111 116.2 33.0062 116.504 33.0062 116.865C33.0062 117.049 33.037 117.22 33.0985 117.377C33.1573 117.533 33.2426 117.672 33.3545 117.792C33.4664 117.912 33.6021 118.013 33.7615 118.094C33.9182 118.175 34.0902 118.227 34.2776 118.249L34.2775 115.488Z" fill="white"/>
<path d="M31.4823 124.5C31.8643 124.853 32.2407 125.136 32.6113 125.348C32.9819 125.56 33.3697 125.724 33.7748 125.839C34.1769 125.954 34.6079 126.031 35.0675 126.071C35.5243 126.111 36.0299 126.134 36.5843 126.14L36.5844 126.76C36.0615 126.754 35.5688 126.727 35.1063 126.678C34.6438 126.627 34.2028 126.538 33.7834 126.411C33.3611 126.285 32.9589 126.113 32.5768 125.895C32.1947 125.677 31.8241 125.401 31.465 125.068L31.4651 127.746L32.5682 127.746L32.5683 128.25L30.9609 128.25L30.9608 124.5L31.4823 124.5Z" fill="white"/>
<path d="M51.8454 106.875C52.0978 106.875 52.3345 106.922 52.5554 107.017C52.7763 107.111 52.9695 107.242 53.1352 107.407C53.2982 107.57 53.4271 107.768 53.5218 107.999C53.6164 108.231 53.6638 108.483 53.6638 108.757C53.6638 109.004 53.627 109.233 53.5534 109.443C53.4797 109.654 53.3746 109.839 53.2378 109.999C53.1011 110.157 52.9328 110.285 52.733 110.382C52.5331 110.479 52.3044 110.539 52.0467 110.56L51.9638 110.035C52.1426 110.019 52.3096 109.977 52.4647 109.909C52.6173 109.84 52.7474 109.751 52.8552 109.64C52.963 109.53 53.0485 109.4 53.1116 109.25C53.1721 109.1 53.2023 108.936 53.2023 108.757C53.2023 108.546 53.1681 108.36 53.0997 108.196C53.0287 108.031 52.9314 107.89 52.8078 107.774C52.6816 107.659 52.537 107.57 52.374 107.51C52.2083 107.447 52.0321 107.415 51.8454 107.415C51.6508 107.415 51.4707 107.447 51.3051 107.51C51.1368 107.57 50.9921 107.657 50.8712 107.77C50.7502 107.884 50.6556 108.023 50.5872 108.189C50.5162 108.352 50.4807 108.533 50.4807 108.733C50.4807 108.943 50.5254 109.146 50.6148 109.341C50.7016 109.533 50.8292 109.7 50.9975 109.842L50.9975 110.382L48.4258 110.382L48.4257 107.159L48.8872 107.159L48.8872 109.842L50.4965 109.842C50.344 109.684 50.227 109.505 50.1455 109.305C50.0613 109.103 50.0192 108.896 50.0192 108.686C50.0192 108.42 50.0626 108.177 50.1494 107.956C50.2335 107.735 50.3545 107.544 50.5122 107.384C50.6674 107.223 50.858 107.098 51.0842 107.009C51.3103 106.92 51.564 106.875 51.8454 106.875Z" fill="white"/>
<path d="M49.7714 111.502C49.9134 111.502 50.041 111.516 50.154 111.542C50.2671 111.566 50.3815 111.61 50.4972 111.676C50.6129 111.739 50.7352 111.823 50.864 111.929C50.9929 112.034 51.1401 112.167 51.3058 112.327L53.1242 114.122L53.1241 111.948L52.1144 111.948L52.1144 111.487L53.5856 111.487L53.5857 114.832L53.1084 114.832L51.0731 112.828C50.9705 112.725 50.868 112.628 50.7654 112.536C50.6629 112.441 50.559 112.357 50.4538 112.284C50.3486 112.21 50.2395 112.152 50.1264 112.11C50.0134 112.068 49.895 112.047 49.7714 112.047C49.4559 112.047 49.2179 112.152 49.0575 112.363C48.8945 112.57 48.813 112.828 48.813 113.136C48.813 113.567 48.9327 113.893 49.172 114.114C49.4113 114.335 49.757 114.446 50.2093 114.446L50.2093 114.947C49.6282 114.947 49.1733 114.792 48.8446 114.481C48.5159 114.171 48.3515 113.722 48.3515 113.136C48.3515 112.915 48.3844 112.707 48.4501 112.512C48.5132 112.315 48.6052 112.142 48.7262 111.992C48.8472 111.839 48.9957 111.719 49.1719 111.633C49.3454 111.546 49.5453 111.502 49.7714 111.502Z" fill="white"/>
<path d="M51.9341 115.72L51.9342 119.397L51.4727 119.397L51.4726 115.72L51.9341 115.72Z" fill="white"/>
<path d="M49.7714 120.324C49.9134 120.324 50.041 120.337 50.154 120.364C50.2671 120.387 50.3815 120.432 50.4972 120.498C50.6129 120.561 50.7352 120.645 50.864 120.75C50.9929 120.855 51.1401 120.988 51.3058 121.149L53.1242 122.944L53.1241 120.77L52.1144 120.77L52.1144 120.308L53.5856 120.308L53.5857 123.654L53.1084 123.654L51.0731 121.65C50.9705 121.547 50.868 121.45 50.7654 121.358C50.6629 121.263 50.559 121.179 50.4538 121.105C50.3486 121.032 50.2395 120.974 50.1264 120.932C50.0134 120.89 49.895 120.869 49.7714 120.869C49.4559 120.869 49.2179 120.974 49.0575 121.184C48.8945 121.392 48.813 121.65 48.813 121.958C48.813 122.389 48.9327 122.715 49.172 122.936C49.4113 123.157 49.757 123.267 50.2093 123.267L50.2093 123.768C49.6282 123.768 49.1733 123.613 48.8446 123.303C48.5159 122.993 48.3515 122.544 48.3515 121.958C48.3515 121.737 48.3844 121.529 48.4501 121.334C48.5132 121.137 48.6052 120.963 48.7262 120.813C48.8472 120.661 48.9957 120.541 49.1719 120.454C49.3454 120.368 49.5453 120.324 49.7714 120.324Z" fill="white"/>
<path d="M49.7714 124.735C49.9134 124.735 50.041 124.749 50.154 124.775C50.2671 124.798 50.3815 124.843 50.4972 124.909C50.6129 124.972 50.7352 125.056 50.864 125.161C50.9929 125.267 51.1401 125.399 51.3058 125.56L53.1242 127.355L53.1241 125.181L52.1144 125.181L52.1144 124.72L53.5856 124.719L53.5857 128.065L53.1084 128.065L51.0731 126.061C50.9705 125.958 50.868 125.861 50.7654 125.769C50.6629 125.674 50.559 125.59 50.4538 125.517C50.3486 125.443 50.2395 125.385 50.1264 125.343C50.0134 125.301 49.895 125.28 49.7714 125.28C49.4559 125.28 49.2179 125.385 49.0575 125.595C48.8945 125.803 48.813 126.061 48.813 126.369C48.813 126.8 48.9327 127.126 49.172 127.347C49.4113 127.568 49.757 127.679 50.2093 127.679L50.2093 128.18C49.6282 128.18 49.1733 128.024 48.8446 127.714C48.5159 127.404 48.3515 126.955 48.3515 126.369C48.3515 126.148 48.3844 125.94 48.4501 125.745C48.5132 125.548 48.6052 125.375 48.7262 125.225C48.8472 125.072 48.9957 124.952 49.1719 124.866C49.3454 124.779 49.5453 124.735 49.7714 124.735Z" fill="white"/>
<path d="M6.34329 89.7942C5.86175 89.5453 5.46047 89.3445 5.13945 89.192C4.8104 89.0394 4.50944 88.9149 4.23657 88.8185C3.95568 88.7141 3.67479 88.6258 3.39389 88.5535C3.113 88.4732 2.77593 88.3889 2.38268 88.3006L3.03266 85.1927C3.36973 85.2328 3.6747 85.281 3.94757 85.3372C4.22044 85.3854 4.49331 85.4536 4.76617 85.542C5.03102 85.6303 5.3079 85.7387 5.59682 85.8672C5.87771 85.9876 6.19071 86.1362 6.53581 86.3129L13.1689 89.6375L13.1689 85.879L10.5084 85.8791L10.5083 82.6507L13.1688 82.6507L13.1687 80.6269L15.6366 80.6268L15.6366 82.6506L18.9351 82.6505L18.9352 85.8789L15.6367 85.879L15.6369 93.2633L14.1441 93.7452L6.34329 89.7942Z" fill="white"/>
<path d="M3.72892 102.825C3.36776 102.078 3.09086 101.255 2.89823 100.356C2.70559 99.4562 2.60926 98.5688 2.60924 97.6934C2.60923 97.0269 2.67341 96.4045 2.80181 95.8263C2.92218 95.2481 3.1228 94.7461 3.40368 94.3205C3.68456 93.8949 4.05774 93.5616 4.52321 93.3206C4.98868 93.0797 5.5625 92.9592 6.24467 92.9592C6.90275 92.9592 7.4525 93.0475 7.89391 93.2242C8.33531 93.4008 8.71653 93.6618 9.03756 94.0072C9.35858 94.3525 9.64751 94.7861 9.90434 95.3081C10.1531 95.8221 10.422 96.4164 10.7109 97.0909C10.8795 97.4844 11.028 97.8257 11.1564 98.1149C11.2768 98.3959 11.3931 98.6328 11.5055 98.8256C11.6098 99.0183 11.7182 99.1749 11.8306 99.2954C11.9349 99.4158 12.0553 99.5082 12.1917 99.5724C12.3281 99.6367 12.4846 99.6808 12.6612 99.7049C12.8378 99.729 13.0504 99.7451 13.2992 99.7531L13.2991 93.1397L15.6465 93.1397L15.6468 102.993L13.9734 102.993C13.195 102.994 12.5248 102.893 11.9631 102.692C11.4013 102.492 10.9157 102.203 10.5064 101.825C10.0971 101.448 9.73996 100.99 9.43498 100.452C9.13 99.9138 8.84508 99.3075 8.58022 98.6329C8.42773 98.2555 8.29128 97.9182 8.1709 97.621C8.05051 97.3159 7.91407 97.0589 7.76158 96.8501C7.60106 96.6413 7.41246 96.4807 7.19577 96.3683C6.97105 96.2558 6.67812 96.1996 6.31698 96.1996C6.03608 96.1996 5.80335 96.2478 5.61876 96.3442C5.43418 96.4406 5.28571 96.5731 5.17336 96.7417C5.06101 96.9104 4.98477 97.1071 4.94465 97.332C4.8965 97.5569 4.87243 97.7978 4.87244 98.0548C4.87244 98.3198 4.89653 98.6129 4.94469 98.9341C4.98482 99.2554 5.04502 99.5846 5.12528 99.9219C5.20555 100.259 5.30587 100.601 5.42627 100.946C5.54666 101.283 5.6831 101.604 5.83559 101.91L3.72892 102.825Z" fill="white"/>
<defs>
<clipPath id="clip0_303_1221">
<rect width="56" height="56" fill="white"/>
</clipPath>
<clipPath id="clip1_303_1221">
<rect width="56" height="56" fill="white"/>
</clipPath>
<clipPath id="clip2_303_1221">
<rect width="1.792" height="1.792" fill="white" transform="translate(23.5195 5.6001)"/>
</clipPath>
<clipPath id="clip3_303_1221">
<rect width="1.792" height="1.792" fill="white" transform="translate(32.4805 5.6001)"/>
</clipPath>
<clipPath id="clip4_303_1221">
<rect width="1.792" height="1.792" fill="white" transform="translate(21.7266 7.39197)"/>
</clipPath>
<clipPath id="clip5_303_1221">
<rect width="1.792" height="1.792" fill="white" transform="translate(30.6875 7.39197)"/>
</clipPath>
<clipPath id="clip6_303_1221">
<rect width="1.792" height="1.792" fill="white" transform="translate(19.9375 9.18408)"/>
</clipPath>
<clipPath id="clip7_303_1221">
<rect width="1.792" height="1.792" fill="white" transform="translate(25.3125 9.18408)"/>
</clipPath>
<clipPath id="clip8_303_1221">
<rect width="1.792" height="1.792" fill="white" transform="translate(30.6875 9.18408)"/>
</clipPath>
<clipPath id="clip9_303_1221">
<rect width="1.792" height="1.792" fill="white" transform="translate(32.4805 9.18408)"/>
</clipPath>
<clipPath id="clip10_303_1221">
<rect width="1.792" height="1.792" fill="white" transform="translate(34.2695 9.18408)"/>
</clipPath>
<clipPath id="clip11_303_1221">
<rect width="1.792" height="1.792" fill="white" transform="translate(21.7266 10.9761)"/>
</clipPath>
<clipPath id="clip12_303_1221">
<rect width="1.792" height="1.792" fill="white" transform="translate(27.1016 10.9761)"/>
</clipPath>
<clipPath id="clip13_303_1221">
<rect width="1.792" height="1.792" fill="white" transform="translate(32.4805 10.9761)"/>
</clipPath>
<clipPath id="clip14_303_1221">
<rect width="1.792" height="1.792" fill="white" transform="translate(34.2695 10.9761)"/>
</clipPath>
<clipPath id="clip15_303_1221">
<rect width="1.792" height="1.792" fill="white" transform="translate(21.7266 12.7681)"/>
</clipPath>
<clipPath id="clip16_303_1221">
<rect width="1.792" height="1.792" fill="white" transform="translate(27.1016 12.7681)"/>
</clipPath>
<clipPath id="clip17_303_1221">
<rect width="1.792" height="1.792" fill="white" transform="translate(30.6875 12.7681)"/>
</clipPath>
<clipPath id="clip18_303_1221">
<rect width="1.792" height="1.792" fill="white" transform="translate(23.5195 14.5601)"/>
</clipPath>
<clipPath id="clip19_303_1221">
<rect width="1.792" height="1.792" fill="white" transform="translate(25.3125 14.5601)"/>
</clipPath>
<clipPath id="clip20_303_1221">
<rect width="1.792" height="1.792" fill="white" transform="translate(27.1016 14.5601)"/>
</clipPath>
<clipPath id="clip21_303_1221">
<rect width="1.792" height="1.792" fill="white" transform="translate(30.6875 14.5601)"/>
</clipPath>
<clipPath id="clip22_303_1221">
<rect width="1.792" height="1.792" fill="white" transform="translate(32.4805 14.5601)"/>
</clipPath>
<clipPath id="clip23_303_1221">
<rect width="1.792" height="1.792" fill="white" transform="translate(19.9375 16.3521)"/>
</clipPath>
<clipPath id="clip24_303_1221">
<rect width="1.792" height="1.792" fill="white" transform="translate(23.5195 16.3521)"/>
</clipPath>
<clipPath id="clip25_303_1221">
<rect width="1.792" height="1.792" fill="white" transform="translate(27.1016 16.3521)"/>
</clipPath>
<clipPath id="clip26_303_1221">
<rect width="1.792" height="1.792" fill="white" transform="translate(30.6875 16.3521)"/>
</clipPath>
<clipPath id="clip27_303_1221">
<rect width="1.792" height="1.792" fill="white" transform="translate(34.2695 16.3521)"/>
</clipPath>
<clipPath id="clip28_303_1221">
<rect width="1.792" height="1.792" fill="white" transform="translate(19.9375 18.144)"/>
</clipPath>
<clipPath id="clip29_303_1221">
<rect width="1.792" height="1.792" fill="white" transform="translate(25.3125 18.144)"/>
</clipPath>
<clipPath id="clip30_303_1221">
<rect width="1.792" height="1.792" fill="white" transform="translate(28.8984 18.144)"/>
</clipPath>
<clipPath id="clip31_303_1221">
<rect width="1.792" height="1.792" fill="white" transform="translate(34.2695 18.144)"/>
</clipPath>
<clipPath id="clip32_303_1221">
<rect width="1.792" height="1.792" fill="white" transform="translate(5.60156 19.936)"/>
</clipPath>
<clipPath id="clip33_303_1221">
<rect width="1.792" height="1.792" fill="white" transform="translate(7.39062 19.936)"/>
</clipPath>
<clipPath id="clip34_303_1221">
<rect width="1.792" height="1.792" fill="white" transform="translate(9.18359 19.936)"/>
</clipPath>
<clipPath id="clip35_303_1221">
<rect width="1.792" height="1.792" fill="white" transform="translate(12.7695 19.936)"/>
</clipPath>
<clipPath id="clip36_303_1221">
<rect width="1.792" height="1.792" fill="white" transform="translate(14.5625 19.936)"/>
</clipPath>
<clipPath id="clip37_303_1221">
<rect width="1.792" height="1.792" fill="white" transform="translate(16.3516 19.936)"/>
</clipPath>
<clipPath id="clip38_303_1221">
<rect width="1.792" height="1.792" fill="white" transform="translate(18.1445 19.936)"/>
</clipPath>
<clipPath id="clip39_303_1221">
<rect width="1.792" height="1.792" fill="white" transform="translate(19.9375 19.936)"/>
</clipPath>
<clipPath id="clip40_303_1221">
<rect width="1.792" height="1.792" fill="white" transform="translate(27.1016 19.936)"/>
</clipPath>
<clipPath id="clip41_303_1221">
<rect width="1.792" height="1.792" fill="white" transform="translate(34.2695 19.936)"/>
</clipPath>
<clipPath id="clip42_303_1221">
<rect width="1.792" height="1.792" fill="white" transform="translate(36.0625 19.936)"/>
</clipPath>
<clipPath id="clip43_303_1221">
<rect width="1.792" height="1.792" fill="white" transform="translate(37.8594 19.936)"/>
</clipPath>
<clipPath id="clip44_303_1221">
<rect width="1.792" height="1.792" fill="white" transform="translate(45.0234 19.936)"/>
</clipPath>
<clipPath id="clip45_303_1221">
<rect width="1.792" height="1.792" fill="white" transform="translate(9.18359 21.728)"/>
</clipPath>
<clipPath id="clip46_303_1221">
<rect width="1.792" height="1.792" fill="white" transform="translate(10.9766 21.728)"/>
</clipPath>
<clipPath id="clip47_303_1221">
<rect width="1.792" height="1.792" fill="white" transform="translate(14.5625 21.728)"/>
</clipPath>
<clipPath id="clip48_303_1221">
<rect width="1.792" height="1.792" fill="white" transform="translate(18.1445 21.728)"/>
</clipPath>
<clipPath id="clip49_303_1221">
<rect width="1.792" height="1.792" fill="white" transform="translate(21.7266 21.728)"/>
</clipPath>
<clipPath id="clip50_303_1221">
<rect width="1.792" height="1.792" fill="white" transform="translate(25.3125 21.728)"/>
</clipPath>
<clipPath id="clip51_303_1221">
<rect width="1.792" height="1.792" fill="white" transform="translate(27.1016 21.728)"/>
</clipPath>
<clipPath id="clip52_303_1221">
<rect width="1.792" height="1.792" fill="white" transform="translate(28.8984 21.728)"/>
</clipPath>
<clipPath id="clip53_303_1221">
<rect width="1.792" height="1.792" fill="white" transform="translate(30.6875 21.728)"/>
</clipPath>
<clipPath id="clip54_303_1221">
<rect width="1.792" height="1.792" fill="white" transform="translate(32.4805 21.728)"/>
</clipPath>
<clipPath id="clip55_303_1221">
<rect width="1.792" height="1.792" fill="white" transform="translate(34.2695 21.728)"/>
</clipPath>
<clipPath id="clip56_303_1221">
<rect width="1.792" height="1.792" fill="white" transform="translate(37.8594 21.728)"/>
</clipPath>
<clipPath id="clip57_303_1221">
<rect width="1.792" height="1.792" fill="white" transform="translate(41.4414 21.728)"/>
</clipPath>
<clipPath id="clip58_303_1221">
<rect width="1.792" height="1.792" fill="white" transform="translate(46.8164 21.728)"/>
</clipPath>
<clipPath id="clip59_303_1221">
<rect width="1.792" height="1.792" fill="white" transform="translate(5.60156 23.52)"/>
</clipPath>
<clipPath id="clip60_303_1221">
<rect width="1.792" height="1.792" fill="white" transform="translate(9.18359 23.52)"/>
</clipPath>
<clipPath id="clip61_303_1221">
<rect width="1.792" height="1.792" fill="white" transform="translate(10.9766 23.52)"/>
</clipPath>
<clipPath id="clip62_303_1221">
<rect width="1.792" height="1.792" fill="white" transform="translate(12.7695 23.52)"/>
</clipPath>
<clipPath id="clip63_303_1221">
<rect width="1.792" height="1.792" fill="white" transform="translate(16.3516 23.52)"/>
</clipPath>
<clipPath id="clip64_303_1221">
<rect width="1.792" height="1.792" fill="white" transform="translate(23.5195 23.52)"/>
</clipPath>
<clipPath id="clip65_303_1221">
<rect width="1.792" height="1.792" fill="white" transform="translate(25.3125 23.52)"/>
</clipPath>
<clipPath id="clip66_303_1221">
<rect width="1.792" height="1.792" fill="white" transform="translate(27.1016 23.52)"/>
</clipPath>
<clipPath id="clip67_303_1221">
<rect width="1.792" height="1.792" fill="white" transform="translate(28.8984 23.52)"/>
</clipPath>
<clipPath id="clip68_303_1221">
<rect width="1.792" height="1.792" fill="white" transform="translate(34.2695 23.52)"/>
</clipPath>
<clipPath id="clip69_303_1221">
<rect width="1.792" height="1.792" fill="white" transform="translate(36.0625 23.52)"/>
</clipPath>
<clipPath id="clip70_303_1221">
<rect width="1.792" height="1.792" fill="white" transform="translate(37.8594 23.52)"/>
</clipPath>
<clipPath id="clip71_303_1221">
<rect width="1.792" height="1.792" fill="white" transform="translate(43.2305 23.52)"/>
</clipPath>
<clipPath id="clip72_303_1221">
<rect width="1.792" height="1.792" fill="white" transform="translate(7.39062 25.312)"/>
</clipPath>
<clipPath id="clip73_303_1221">
<rect width="1.792" height="1.792" fill="white" transform="translate(14.5625 25.312)"/>
</clipPath>
<clipPath id="clip74_303_1221">
<rect width="1.792" height="1.792" fill="white" transform="translate(19.9375 25.312)"/>
</clipPath>
<clipPath id="clip75_303_1221">
<rect width="1.792" height="1.792" fill="white" transform="translate(21.7266 25.312)"/>
</clipPath>
<clipPath id="clip76_303_1221">
<rect width="1.792" height="1.792" fill="white" transform="translate(23.5195 25.312)"/>
</clipPath>
<clipPath id="clip77_303_1221">
<rect width="1.792" height="1.792" fill="white" transform="translate(27.1016 25.312)"/>
</clipPath>
<clipPath id="clip78_303_1221">
<rect width="1.792" height="1.792" fill="white" transform="translate(28.8984 25.312)"/>
</clipPath>
<clipPath id="clip79_303_1221">
<rect width="1.792" height="1.792" fill="white" transform="translate(30.6875 25.312)"/>
</clipPath>
<clipPath id="clip80_303_1221">
<rect width="1.792" height="1.792" fill="white" transform="translate(34.2695 25.312)"/>
</clipPath>
<clipPath id="clip81_303_1221">
<rect width="1.792" height="1.792" fill="white" transform="translate(37.8594 25.312)"/>
</clipPath>
<clipPath id="clip82_303_1221">
<rect width="1.792" height="1.792" fill="white" transform="translate(39.6484 25.312)"/>
</clipPath>
<clipPath id="clip83_303_1221">
<rect width="1.792" height="1.792" fill="white" transform="translate(46.8164 25.312)"/>
</clipPath>
<clipPath id="clip84_303_1221">
<rect width="1.792" height="1.792" fill="white" transform="translate(48.6094 25.312)"/>
</clipPath>
<clipPath id="clip85_303_1221">
<rect width="1.792" height="1.792" fill="white" transform="translate(5.60156 27.104)"/>
</clipPath>
<clipPath id="clip86_303_1221">
<rect width="1.792" height="1.792" fill="white" transform="translate(7.39062 27.104)"/>
</clipPath>
<clipPath id="clip87_303_1221">
<rect width="1.792" height="1.792" fill="white" transform="translate(9.18359 27.104)"/>
</clipPath>
<clipPath id="clip88_303_1221">
<rect width="1.792" height="1.792" fill="white" transform="translate(16.3516 27.104)"/>
</clipPath>
<clipPath id="clip89_303_1221">
<rect width="1.792" height="1.792" fill="white" transform="translate(18.1445 27.104)"/>
</clipPath>
<clipPath id="clip90_303_1221">
<rect width="1.792" height="1.792" fill="white" transform="translate(19.9375 27.104)"/>
</clipPath>
<clipPath id="clip91_303_1221">
<rect width="1.792" height="1.792" fill="white" transform="translate(23.5195 27.104)"/>
</clipPath>
<clipPath id="clip92_303_1221">
<rect width="1.792" height="1.792" fill="white" transform="translate(25.3125 27.104)"/>
</clipPath>
<clipPath id="clip93_303_1221">
<rect width="1.792" height="1.792" fill="white" transform="translate(30.6875 27.104)"/>
</clipPath>
<clipPath id="clip94_303_1221">
<rect width="1.792" height="1.792" fill="white" transform="translate(34.2695 27.104)"/>
</clipPath>
<clipPath id="clip95_303_1221">
<rect width="1.792" height="1.792" fill="white" transform="translate(37.8594 27.104)"/>
</clipPath>
<clipPath id="clip96_303_1221">
<rect width="1.792" height="1.792" fill="white" transform="translate(39.6484 27.104)"/>
</clipPath>
<clipPath id="clip97_303_1221">
<rect width="1.792" height="1.792" fill="white" transform="translate(45.0234 27.104)"/>
</clipPath>
<clipPath id="clip98_303_1221">
<rect width="1.792" height="1.792" fill="white" transform="translate(46.8164 27.104)"/>
</clipPath>
<clipPath id="clip99_303_1221">
<rect width="1.792" height="1.792" fill="white" transform="translate(48.6094 27.104)"/>
</clipPath>
<clipPath id="clip100_303_1221">
<rect width="1.792" height="1.792" fill="white" transform="translate(7.39062 28.896)"/>
</clipPath>
<clipPath id="clip101_303_1221">
<rect width="1.792" height="1.792" fill="white" transform="translate(12.7695 28.896)"/>
</clipPath>
<clipPath id="clip102_303_1221">
<rect width="1.792" height="1.792" fill="white" transform="translate(14.5625 28.896)"/>
</clipPath>
<clipPath id="clip103_303_1221">
<rect width="1.792" height="1.792" fill="white" transform="translate(21.7266 28.896)"/>
</clipPath>
<clipPath id="clip104_303_1221">
<rect width="1.792" height="1.792" fill="white" transform="translate(23.5195 28.896)"/>
</clipPath>
<clipPath id="clip105_303_1221">
<rect width="1.792" height="1.792" fill="white" transform="translate(25.3125 28.896)"/>
</clipPath>
<clipPath id="clip106_303_1221">
<rect width="1.792" height="1.792" fill="white" transform="translate(28.8984 28.896)"/>
</clipPath>
<clipPath id="clip107_303_1221">
<rect width="1.792" height="1.792" fill="white" transform="translate(30.6875 28.896)"/>
</clipPath>
<clipPath id="clip108_303_1221">
<rect width="1.792" height="1.792" fill="white" transform="translate(34.2695 28.896)"/>
</clipPath>
<clipPath id="clip109_303_1221">
<rect width="1.792" height="1.792" fill="white" transform="translate(41.4414 28.896)"/>
</clipPath>
<clipPath id="clip110_303_1221">
<rect width="1.792" height="1.792" fill="white" transform="translate(46.8164 28.896)"/>
</clipPath>
<clipPath id="clip111_303_1221">
<rect width="1.792" height="1.792" fill="white" transform="translate(48.6094 28.896)"/>
</clipPath>
<clipPath id="clip112_303_1221">
<rect width="1.792" height="1.792" fill="white" transform="translate(5.60156 30.688)"/>
</clipPath>
<clipPath id="clip113_303_1221">
<rect width="1.792" height="1.792" fill="white" transform="translate(9.18359 30.688)"/>
</clipPath>
<clipPath id="clip114_303_1221">
<rect width="1.792" height="1.792" fill="white" transform="translate(10.9766 30.688)"/>
</clipPath>
<clipPath id="clip115_303_1221">
<rect width="1.792" height="1.792" fill="white" transform="translate(12.7695 30.688)"/>
</clipPath>
<clipPath id="clip116_303_1221">
<rect width="1.792" height="1.792" fill="white" transform="translate(14.5625 30.688)"/>
</clipPath>
<clipPath id="clip117_303_1221">
<rect width="1.792" height="1.792" fill="white" transform="translate(16.3516 30.688)"/>
</clipPath>
<clipPath id="clip118_303_1221">
<rect width="1.792" height="1.792" fill="white" transform="translate(19.9375 30.688)"/>
</clipPath>
<clipPath id="clip119_303_1221">
<rect width="1.792" height="1.792" fill="white" transform="translate(32.4805 30.688)"/>
</clipPath>
<clipPath id="clip120_303_1221">
<rect width="1.792" height="1.792" fill="white" transform="translate(34.2695 30.688)"/>
</clipPath>
<clipPath id="clip121_303_1221">
<rect width="1.792" height="1.792" fill="white" transform="translate(36.0625 30.688)"/>
</clipPath>
<clipPath id="clip122_303_1221">
<rect width="1.792" height="1.792" fill="white" transform="translate(37.8594 30.688)"/>
</clipPath>
<clipPath id="clip123_303_1221">
<rect width="1.792" height="1.792" fill="white" transform="translate(43.2305 30.688)"/>
</clipPath>
<clipPath id="clip124_303_1221">
<rect width="1.792" height="1.792" fill="white" transform="translate(46.8164 30.688)"/>
</clipPath>
<clipPath id="clip125_303_1221">
<rect width="1.792" height="1.792" fill="white" transform="translate(48.6094 30.688)"/>
</clipPath>
<clipPath id="clip126_303_1221">
<rect width="1.792" height="1.792" fill="white" transform="translate(7.39062 32.48)"/>
</clipPath>
<clipPath id="clip127_303_1221">
<rect width="1.792" height="1.792" fill="white" transform="translate(9.18359 32.48)"/>
</clipPath>
<clipPath id="clip128_303_1221">
<rect width="1.792" height="1.792" fill="white" transform="translate(10.9766 32.48)"/>
</clipPath>
<clipPath id="clip129_303_1221">
<rect width="1.792" height="1.792" fill="white" transform="translate(19.9375 32.48)"/>
</clipPath>
<clipPath id="clip130_303_1221">
<rect width="1.792" height="1.792" fill="white" transform="translate(21.7266 32.48)"/>
</clipPath>
<clipPath id="clip131_303_1221">
<rect width="1.792" height="1.792" fill="white" transform="translate(23.5195 32.48)"/>
</clipPath>
<clipPath id="clip132_303_1221">
<rect width="1.792" height="1.792" fill="white" transform="translate(25.3125 32.48)"/>
</clipPath>
<clipPath id="clip133_303_1221">
<rect width="1.792" height="1.792" fill="white" transform="translate(30.6875 32.48)"/>
</clipPath>
<clipPath id="clip134_303_1221">
<rect width="1.792" height="1.792" fill="white" transform="translate(37.8594 32.48)"/>
</clipPath>
<clipPath id="clip135_303_1221">
<rect width="1.792" height="1.792" fill="white" transform="translate(39.6484 32.4801)"/>
</clipPath>
<clipPath id="clip136_303_1221">
<rect width="1.792" height="1.792" fill="white" transform="translate(5.60156 34.272)"/>
</clipPath>
<clipPath id="clip137_303_1221">
<rect width="1.792" height="1.792" fill="white" transform="translate(10.9766 34.272)"/>
</clipPath>
<clipPath id="clip138_303_1221">
<rect width="1.792" height="1.792" fill="white" transform="translate(14.5625 34.272)"/>
</clipPath>
<clipPath id="clip139_303_1221">
<rect width="1.792" height="1.792" fill="white" transform="translate(16.3516 34.272)"/>
</clipPath>
<clipPath id="clip140_303_1221">
<rect width="1.792" height="1.792" fill="white" transform="translate(18.1445 34.272)"/>
</clipPath>
<clipPath id="clip141_303_1221">
<rect width="1.792" height="1.792" fill="white" transform="translate(21.7266 34.272)"/>
</clipPath>
<clipPath id="clip142_303_1221">
<rect width="1.792" height="1.792" fill="white" transform="translate(27.1016 34.272)"/>
</clipPath>
<clipPath id="clip143_303_1221">
<rect width="1.792" height="1.792" fill="white" transform="translate(30.6875 34.272)"/>
</clipPath>
<clipPath id="clip144_303_1221">
<rect width="1.792" height="1.792" fill="white" transform="translate(34.2695 34.272)"/>
</clipPath>
<clipPath id="clip145_303_1221">
<rect width="1.792" height="1.792" fill="white" transform="translate(36.0625 34.272)"/>
</clipPath>
<clipPath id="clip146_303_1221">
<rect width="1.792" height="1.792" fill="white" transform="translate(37.8594 34.272)"/>
</clipPath>
<clipPath id="clip147_303_1221">
<rect width="1.792" height="1.792" fill="white" transform="translate(39.6484 34.272)"/>
</clipPath>
<clipPath id="clip148_303_1221">
<rect width="1.792" height="1.792" fill="white" transform="translate(41.4414 34.272)"/>
</clipPath>
<clipPath id="clip149_303_1221">
<rect width="1.792" height="1.792" fill="white" transform="translate(45.0234 34.272)"/>
</clipPath>
<clipPath id="clip150_303_1221">
<rect width="1.792" height="1.792" fill="white" transform="translate(48.6094 34.272)"/>
</clipPath>
<clipPath id="clip151_303_1221">
<rect width="1.792" height="1.792" fill="white" transform="translate(19.9375 36.064)"/>
</clipPath>
<clipPath id="clip152_303_1221">
<rect width="1.792" height="1.792" fill="white" transform="translate(21.7266 36.064)"/>
</clipPath>
<clipPath id="clip153_303_1221">
<rect width="1.792" height="1.792" fill="white" transform="translate(25.3125 36.064)"/>
</clipPath>
<clipPath id="clip154_303_1221">
<rect width="1.792" height="1.792" fill="white" transform="translate(27.1016 36.064)"/>
</clipPath>
<clipPath id="clip155_303_1221">
<rect width="1.792" height="1.792" fill="white" transform="translate(28.8984 36.064)"/>
</clipPath>
<clipPath id="clip156_303_1221">
<rect width="1.792" height="1.792" fill="white" transform="translate(34.2695 36.064)"/>
</clipPath>
<clipPath id="clip157_303_1221">
<rect width="1.792" height="1.792" fill="white" transform="translate(41.4414 36.064)"/>
</clipPath>
<clipPath id="clip158_303_1221">
<rect width="1.792" height="1.792" fill="white" transform="translate(46.8164 36.064)"/>
</clipPath>
<clipPath id="clip159_303_1221">
<rect width="1.792" height="1.792" fill="white" transform="translate(19.9375 37.856)"/>
</clipPath>
<clipPath id="clip160_303_1221">
<rect width="1.792" height="1.792" fill="white" transform="translate(21.7266 37.856)"/>
</clipPath>
<clipPath id="clip161_303_1221">
<rect width="1.792" height="1.792" fill="white" transform="translate(23.5195 37.856)"/>
</clipPath>
<clipPath id="clip162_303_1221">
<rect width="1.792" height="1.792" fill="white" transform="translate(25.3125 37.856)"/>
</clipPath>
<clipPath id="clip163_303_1221">
<rect width="1.792" height="1.792" fill="white" transform="translate(27.1016 37.856)"/>
</clipPath>
<clipPath id="clip164_303_1221">
<rect width="1.792" height="1.792" fill="white" transform="translate(28.8984 37.856)"/>
</clipPath>
<clipPath id="clip165_303_1221">
<rect width="1.792" height="1.792" fill="white" transform="translate(32.4805 37.856)"/>
</clipPath>
<clipPath id="clip166_303_1221">
<rect width="1.792" height="1.792" fill="white" transform="translate(34.2695 37.856)"/>
</clipPath>
<clipPath id="clip167_303_1221">
<rect width="1.792" height="1.792" fill="white" transform="translate(37.8594 37.856)"/>
</clipPath>
<clipPath id="clip168_303_1221">
<rect width="1.792" height="1.792" fill="white" transform="translate(41.4414 37.856)"/>
</clipPath>
<clipPath id="clip169_303_1221">
<rect width="1.792" height="1.792" fill="white" transform="translate(43.2305 37.8561)"/>
</clipPath>
<clipPath id="clip170_303_1221">
<rect width="1.792" height="1.792" fill="white" transform="translate(46.8164 37.856)"/>
</clipPath>
<clipPath id="clip171_303_1221">
<rect width="1.792" height="1.792" fill="white" transform="translate(48.6094 37.856)"/>
</clipPath>
<clipPath id="clip172_303_1221">
<rect width="1.792" height="1.792" fill="white" transform="translate(19.9375 39.6479)"/>
</clipPath>
<clipPath id="clip173_303_1221">
<rect width="1.792" height="1.792" fill="white" transform="translate(27.1016 39.6479)"/>
</clipPath>
<clipPath id="clip174_303_1221">
<rect width="1.792" height="1.792" fill="white" transform="translate(28.8984 39.6479)"/>
</clipPath>
<clipPath id="clip175_303_1221">
<rect width="1.792" height="1.792" fill="white" transform="translate(30.6875 39.6479)"/>
</clipPath>
<clipPath id="clip176_303_1221">
<rect width="1.792" height="1.792" fill="white" transform="translate(34.2695 39.6479)"/>
</clipPath>
<clipPath id="clip177_303_1221">
<rect width="1.792" height="1.792" fill="white" transform="translate(41.4414 39.6479)"/>
</clipPath>
<clipPath id="clip178_303_1221">
<rect width="1.792" height="1.792" fill="white" transform="translate(43.2305 39.6479)"/>
</clipPath>
<clipPath id="clip179_303_1221">
<rect width="1.792" height="1.792" fill="white" transform="translate(46.8164 39.6479)"/>
</clipPath>
<clipPath id="clip180_303_1221">
<rect width="1.792" height="1.792" fill="white" transform="translate(48.6094 39.6479)"/>
</clipPath>
<clipPath id="clip181_303_1221">
<rect width="1.792" height="1.792" fill="white" transform="translate(19.9375 41.4399)"/>
</clipPath>
<clipPath id="clip182_303_1221">
<rect width="1.792" height="1.792" fill="white" transform="translate(21.7266 41.4399)"/>
</clipPath>
<clipPath id="clip183_303_1221">
<rect width="1.792" height="1.792" fill="white" transform="translate(23.5195 41.4399)"/>
</clipPath>
<clipPath id="clip184_303_1221">
<rect width="1.792" height="1.792" fill="white" transform="translate(25.3125 41.4399)"/>
</clipPath>
<clipPath id="clip185_303_1221">
<rect width="1.792" height="1.792" fill="white" transform="translate(27.1016 41.4399)"/>
</clipPath>
<clipPath id="clip186_303_1221">
<rect width="1.792" height="1.792" fill="white" transform="translate(32.4805 41.4399)"/>
</clipPath>
<clipPath id="clip187_303_1221">
<rect width="1.792" height="1.792" fill="white" transform="translate(34.2695 41.4399)"/>
</clipPath>
<clipPath id="clip188_303_1221">
<rect width="1.792" height="1.792" fill="white" transform="translate(36.0625 41.4399)"/>
</clipPath>
<clipPath id="clip189_303_1221">
<rect width="1.792" height="1.792" fill="white" transform="translate(37.8594 41.4399)"/>
</clipPath>
<clipPath id="clip190_303_1221">
<rect width="1.792" height="1.792" fill="white" transform="translate(39.6484 41.4399)"/>
</clipPath>
<clipPath id="clip191_303_1221">
<rect width="1.792" height="1.792" fill="white" transform="translate(41.4414 41.4399)"/>
</clipPath>
<clipPath id="clip192_303_1221">
<rect width="1.792" height="1.792" fill="white" transform="translate(45.0234 41.4399)"/>
</clipPath>
<clipPath id="clip193_303_1221">
<rect width="1.792" height="1.792" fill="white" transform="translate(23.5195 43.2321)"/>
</clipPath>
<clipPath id="clip194_303_1221">
<rect width="1.792" height="1.792" fill="white" transform="translate(25.3125 43.2321)"/>
</clipPath>
<clipPath id="clip195_303_1221">
<rect width="1.792" height="1.792" fill="white" transform="translate(28.8984 43.2321)"/>
</clipPath>
<clipPath id="clip196_303_1221">
<rect width="1.792" height="1.792" fill="white" transform="translate(30.6875 43.2321)"/>
</clipPath>
<clipPath id="clip197_303_1221">
<rect width="1.792" height="1.792" fill="white" transform="translate(32.4805 43.2321)"/>
</clipPath>
<clipPath id="clip198_303_1221">
<rect width="1.792" height="1.792" fill="white" transform="translate(34.2695 43.2321)"/>
</clipPath>
<clipPath id="clip199_303_1221">
<rect width="1.792" height="1.792" fill="white" transform="translate(36.0625 43.2321)"/>
</clipPath>
<clipPath id="clip200_303_1221">
<rect width="1.792" height="1.792" fill="white" transform="translate(39.6484 43.2321)"/>
</clipPath>
<clipPath id="clip201_303_1221">
<rect width="1.792" height="1.792" fill="white" transform="translate(41.4414 43.2321)"/>
</clipPath>
<clipPath id="clip202_303_1221">
<rect width="1.792" height="1.792" fill="white" transform="translate(19.9375 45.024)"/>
</clipPath>
<clipPath id="clip203_303_1221">
<rect width="1.792" height="1.792" fill="white" transform="translate(21.7266 45.024)"/>
</clipPath>
<clipPath id="clip204_303_1221">
<rect width="1.792" height="1.792" fill="white" transform="translate(27.1016 45.024)"/>
</clipPath>
<clipPath id="clip205_303_1221">
<rect width="1.792" height="1.792" fill="white" transform="translate(28.8984 45.024)"/>
</clipPath>
<clipPath id="clip206_303_1221">
<rect width="1.792" height="1.792" fill="white" transform="translate(32.4805 45.024)"/>
</clipPath>
<clipPath id="clip207_303_1221">
<rect width="1.792" height="1.792" fill="white" transform="translate(34.2695 45.024)"/>
</clipPath>
<clipPath id="clip208_303_1221">
<rect width="1.792" height="1.792" fill="white" transform="translate(43.2305 45.024)"/>
</clipPath>
<clipPath id="clip209_303_1221">
<rect width="1.792" height="1.792" fill="white" transform="translate(48.6094 45.024)"/>
</clipPath>
<clipPath id="clip210_303_1221">
<rect width="1.792" height="1.792" fill="white" transform="translate(19.9375 46.816)"/>
</clipPath>
<clipPath id="clip211_303_1221">
<rect width="1.792" height="1.792" fill="white" transform="translate(25.3125 46.816)"/>
</clipPath>
<clipPath id="clip212_303_1221">
<rect width="1.792" height="1.792" fill="white" transform="translate(28.8984 46.816)"/>
</clipPath>
<clipPath id="clip213_303_1221">
<rect width="1.792" height="1.792" fill="white" transform="translate(30.6875 46.816)"/>
</clipPath>
<clipPath id="clip214_303_1221">
<rect width="1.792" height="1.792" fill="white" transform="translate(34.2695 46.816)"/>
</clipPath>
<clipPath id="clip215_303_1221">
<rect width="1.792" height="1.792" fill="white" transform="translate(41.4414 46.816)"/>
</clipPath>
<clipPath id="clip216_303_1221">
<rect width="1.792" height="1.792" fill="white" transform="translate(43.2305 46.816)"/>
</clipPath>
<clipPath id="clip217_303_1221">
<rect width="1.792" height="1.792" fill="white" transform="translate(48.6094 46.816)"/>
</clipPath>
<clipPath id="clip218_303_1221">
<rect width="1.792" height="1.792" fill="white" transform="translate(19.9375 48.608)"/>
</clipPath>
<clipPath id="clip219_303_1221">
<rect width="1.792" height="1.792" fill="white" transform="translate(23.5195 48.608)"/>
</clipPath>
<clipPath id="clip220_303_1221">
<rect width="1.792" height="1.792" fill="white" transform="translate(27.1016 48.608)"/>
</clipPath>
<clipPath id="clip221_303_1221">
<rect width="1.792" height="1.792" fill="white" transform="translate(28.8984 48.608)"/>
</clipPath>
<clipPath id="clip222_303_1221">
<rect width="1.792" height="1.792" fill="white" transform="translate(34.2695 48.608)"/>
</clipPath>
<clipPath id="clip223_303_1221">
<rect width="1.792" height="1.792" fill="white" transform="translate(41.4414 48.608)"/>
</clipPath>
<clipPath id="clip224_303_1221">
<rect width="1.792" height="1.792" fill="white" transform="translate(43.2305 48.608)"/>
</clipPath>
<clipPath id="clip225_303_1221">
<rect width="1.792" height="1.792" fill="white" transform="translate(46.8164 48.608)"/>
</clipPath>
<clipPath id="clip226_303_1221">
<rect width="1.792" height="1.792" fill="white" transform="translate(48.6094 48.608)"/>
</clipPath>
<clipPath id="clip227_303_1221">
<rect width="12.544" height="12.544" fill="white" transform="translate(5.60156 5.6001)"/>
</clipPath>
<clipPath id="clip228_303_1221">
<rect width="12.544" height="12.544" fill="white" transform="translate(37.8594 5.6001)"/>
</clipPath>
<clipPath id="clip229_303_1221">
<rect width="12.544" height="12.544" fill="white" transform="translate(5.60156 37.856)"/>
</clipPath>
</defs>
</svg>
