<svg width="126" height="48" viewBox="0 0 126 48" fill="none" xmlns="http://www.w3.org/2000/svg">
<path d="M23.9607 48H24.039C37.2723 48 48 37.2548 48 24C48 10.7452 37.2723 0 24.039 0H23.9607C10.7275 0 -0.000205994 10.7452 -0.000205994 24C-0.000205994 37.2548 10.7275 48 23.9607 48Z" fill="#4361EE"/>
<path fill-rule="evenodd" clip-rule="evenodd" d="M29.9064 26.8156L23.6953 32.9912L26.7615 35.9617L32.9333 29.8252V29.8252L35.9602 26.8156L33.0709 23.9427L33.071 23.9427L28.1178 19.0178L25.0909 22.0275L29.9064 26.8155L29.9064 26.8156Z" fill="#0A03C8"/>
<path fill-rule="evenodd" clip-rule="evenodd" d="M18.9015 22.0275L25.1125 15.8519L22.0857 12.8423L15.8746 19.0179L15.8745 19.0179L12.8477 22.0275L15.8745 25.0372L15.8746 25.0371L20.6902 29.8252L23.7171 26.8156L18.9015 22.0275ZM18.9015 22.0276V22.0275L18.9008 22.0282L18.9015 22.0276Z" fill="#0A03C8"/>
<path fill-rule="evenodd" clip-rule="evenodd" d="M18.0149 21.1469L24.2259 14.9713L21.1989 11.9617L14.9879 18.1373V18.1372L11.9609 21.1469L14.9879 24.1565L19.8035 28.9446L22.8304 25.935L18.0149 21.1469ZM18.0148 21.1469L18.0147 21.1469L18.0141 21.1476L18.0148 21.1469Z" fill="white"/>
<path fill-rule="evenodd" clip-rule="evenodd" d="M29.0236 25.9349L22.8125 32.1106L25.8787 35.0812L32.0504 28.9446H32.0505L35.0774 25.935L32.188 23.0621L32.0505 22.9253L27.2349 18.1372L24.208 21.1469L29.0236 25.9349Z" fill="white"/>
<path d="M110.811 27.8396C111.916 27.8396 112.901 28.0805 113.765 28.5622C114.644 29.044 115.331 29.7241 115.827 30.6026C116.323 31.4811 116.571 32.4942 116.571 33.6419C116.571 34.7897 116.323 35.8099 115.827 36.7025C115.331 37.581 114.644 38.2612 113.765 38.7429C112.901 39.2247 111.916 39.4655 110.811 39.4655C109.28 39.4655 108.069 38.9554 107.176 37.9353V43.44H104.52V27.9671H107.049V29.4549C107.488 28.9165 108.026 28.5126 108.664 28.2434C109.316 27.9742 110.031 27.8396 110.811 27.8396ZM110.513 37.1914C111.491 37.1914 112.291 36.8655 112.915 36.2137C113.553 35.5619 113.871 34.7046 113.871 33.6419C113.871 32.5792 113.553 31.722 112.915 31.0702C112.291 30.4184 111.491 30.0925 110.513 30.0925C109.876 30.0925 109.302 30.2413 108.792 30.5389C108.282 30.8222 107.878 31.2332 107.58 31.7716C107.283 32.31 107.134 32.9335 107.134 33.6419C107.134 34.3504 107.283 34.9739 107.58 35.5123C107.878 36.0507 108.282 36.4687 108.792 36.7663C109.302 37.0497 109.876 37.1914 110.513 37.1914Z" fill="black"/>
<path d="M96.4698 27.8394C97.9009 27.8394 99.0345 28.2574 99.8705 29.0933C100.706 29.9152 101.124 31.155 101.124 32.8128V39.3165H98.4677V33.1529C98.4677 32.161 98.2481 31.4171 97.8088 30.9212C97.3695 30.4111 96.739 30.156 95.9172 30.156C95.0245 30.156 94.309 30.4536 93.7705 31.0487C93.2321 31.6297 92.9629 32.4656 92.9629 33.5567V39.3165H90.3061V33.1529C90.3061 32.161 90.0865 31.4171 89.6472 30.9212C89.208 30.4111 88.5774 30.156 87.7556 30.156C86.8488 30.156 86.1261 30.4465 85.5877 31.0275C85.0634 31.6084 84.8013 32.4515 84.8013 33.5567V39.3165H82.1445V27.9669H84.6738V29.4122C85.0988 28.9021 85.6302 28.5124 86.2678 28.2432C86.9054 27.974 87.6139 27.8394 88.3932 27.8394C89.2434 27.8394 89.9944 28.0023 90.6462 28.3282C91.3121 28.6399 91.8364 29.1075 92.219 29.731C92.6866 29.1359 93.2888 28.6753 94.0256 28.3495C94.7624 28.0094 95.5771 27.8394 96.4698 27.8394Z" fill="black"/>
<path d="M73.5479 39.4655C72.4002 39.4655 71.3658 39.2176 70.4448 38.7217C69.5238 38.2257 68.8011 37.5385 68.2769 36.66C67.7668 35.7673 67.5117 34.7613 67.5117 33.6419C67.5117 32.5226 67.7668 31.5236 68.2769 30.6451C68.8011 29.7666 69.5238 29.0794 70.4448 28.5835C71.3658 28.0876 72.4002 27.8396 73.5479 27.8396C74.7098 27.8396 75.7512 28.0876 76.6722 28.5835C77.5932 29.0794 78.3088 29.7666 78.8189 30.6451C79.3432 31.5236 79.6053 32.5226 79.6053 33.6419C79.6053 34.7613 79.3432 35.7673 78.8189 36.66C78.3088 37.5385 77.5932 38.2257 76.6722 38.7217C75.7512 39.2176 74.7098 39.4655 73.5479 39.4655ZM73.5479 37.1914C74.5256 37.1914 75.3332 36.8655 75.9709 36.2137C76.6085 35.5619 76.9273 34.7046 76.9273 33.6419C76.9273 32.5792 76.6085 31.722 75.9709 31.0702C75.3332 30.4184 74.5256 30.0925 73.5479 30.0925C72.5702 30.0925 71.7625 30.4184 71.1249 31.0702C70.5015 31.722 70.1897 32.5792 70.1897 33.6419C70.1897 34.7046 70.5015 35.5619 71.1249 36.2137C71.7625 36.8655 72.5702 37.1914 73.5479 37.1914Z" fill="black"/>
<path d="M61.4706 39.4655C60.2945 39.4655 59.2389 39.2176 58.3037 38.7217C57.3685 38.2257 56.6388 37.5385 56.1145 36.66C55.5903 35.7673 55.3281 34.7613 55.3281 33.6419C55.3281 32.5226 55.5903 31.5236 56.1145 30.6451C56.6388 29.7666 57.3614 29.0794 58.2824 28.5835C59.2176 28.0876 60.2803 27.8396 61.4706 27.8396C62.5899 27.8396 63.5676 28.0663 64.4036 28.5197C65.2538 28.9731 65.8914 29.6249 66.3165 30.4751L64.2761 31.6653C63.9502 31.1411 63.5393 30.7514 63.0434 30.4964C62.5616 30.2271 62.0303 30.0925 61.4493 30.0925C60.4575 30.0925 59.6356 30.4184 58.9838 31.0702C58.332 31.7078 58.0061 32.5651 58.0061 33.6419C58.0061 34.7188 58.325 35.5831 58.9626 36.2349C59.6144 36.8726 60.4433 37.1914 61.4493 37.1914C62.0303 37.1914 62.5616 37.0638 63.0434 36.8088C63.5393 36.5396 63.9502 36.1428 64.2761 35.6186L66.3165 36.8088C65.8772 37.659 65.2325 38.3178 64.3824 38.7854C63.5464 39.2388 62.5758 39.4655 61.4706 39.4655Z" fill="black"/>
<path d="M84.2917 24.2353C83.3707 24.2353 82.4709 24.1149 81.5924 23.874C80.7139 23.6331 80.0125 23.3285 79.4883 22.9601L80.5085 20.9409C81.0186 21.281 81.6279 21.5573 82.3363 21.7699C83.059 21.9682 83.7674 22.0674 84.4617 22.0674C86.0487 22.0674 86.8422 21.6494 86.8422 20.8134C86.8422 20.4167 86.6367 20.1404 86.2258 19.9845C85.8291 19.8287 85.1844 19.6799 84.2917 19.5382C83.3565 19.3965 82.5914 19.2335 81.9963 19.0493C81.4153 18.8651 80.9052 18.5463 80.466 18.0929C80.0409 17.6253 79.8283 16.9806 79.8283 16.1588C79.8283 15.0819 80.2747 14.2247 81.1674 13.5871C82.0742 12.9353 83.2928 12.6094 84.8231 12.6094C85.6024 12.6094 86.3817 12.7015 87.161 12.8857C87.9403 13.0557 88.578 13.2895 89.0739 13.5871L88.0537 15.6062C87.0902 15.0394 86.0062 14.756 84.8018 14.756C84.0225 14.756 83.4274 14.8765 83.0165 15.1173C82.6197 15.3441 82.4213 15.6487 82.4213 16.0313C82.4213 16.4564 82.6339 16.761 83.059 16.9452C83.4982 17.1152 84.1713 17.2782 85.0781 17.434C85.985 17.5757 86.7288 17.7387 87.3098 17.9229C87.8907 18.1071 88.3867 18.4188 88.7976 18.8581C89.2227 19.2973 89.4352 19.9208 89.4352 20.7284C89.4352 21.7911 88.9747 22.6413 88.0537 23.2789C87.1327 23.9165 85.8787 24.2353 84.2917 24.2353Z" fill="black"/>
<path d="M78.2336 18.4755C78.2336 18.6597 78.2195 18.9218 78.1911 19.2619H69.2857C69.4415 20.0979 69.8454 20.7638 70.4972 21.2598C71.1631 21.7415 71.9849 21.9824 72.9626 21.9824C74.2095 21.9824 75.2368 21.5715 76.0445 20.7497L77.4685 22.3862C76.9584 22.9955 76.3137 23.456 75.5344 23.7677C74.7551 24.0795 73.8766 24.2353 72.8989 24.2353C71.652 24.2353 70.5538 23.9874 69.6045 23.4914C68.6551 22.9955 67.9183 22.3083 67.3941 21.4298C66.884 20.5371 66.6289 19.5311 66.6289 18.4117C66.6289 17.3065 66.8769 16.3147 67.3728 15.4362C67.8829 14.5435 68.5843 13.8492 69.477 13.3533C70.3696 12.8573 71.3757 12.6094 72.495 12.6094C73.6003 12.6094 74.585 12.8573 75.4494 13.3533C76.3279 13.835 77.008 14.5222 77.4898 15.4149C77.9857 16.2934 78.2336 17.3136 78.2336 18.4755ZM72.495 14.7348C71.6449 14.7348 70.9222 14.9898 70.3271 15.4999C69.7462 15.9958 69.3919 16.6618 69.2644 17.4978H75.7044C75.5911 16.676 75.2439 16.01 74.663 15.4999C74.082 14.9898 73.3594 14.7348 72.495 14.7348Z" fill="black"/>
<path d="M60.1316 24.2353C59.2105 24.2353 58.3108 24.1149 57.4323 23.874C56.5538 23.6331 55.8524 23.3285 55.3281 22.9601L56.3483 20.9409C56.8584 21.281 57.4677 21.5573 58.1762 21.7699C58.8988 21.9682 59.6073 22.0674 60.3016 22.0674C61.8886 22.0674 62.682 21.6494 62.682 20.8134C62.682 20.4167 62.4766 20.1404 62.0657 19.9845C61.6689 19.8287 61.0242 19.6799 60.1316 19.5382C59.1964 19.3965 58.4312 19.2335 57.8361 19.0493C57.2552 18.8651 56.7451 18.5463 56.3058 18.0929C55.8807 17.6253 55.6682 16.9806 55.6682 16.1588C55.6682 15.0819 56.1145 14.2247 57.0072 13.5871C57.914 12.9353 59.1326 12.6094 60.6629 12.6094C61.4422 12.6094 62.2215 12.7015 63.0009 12.8857C63.7802 13.0557 64.4178 13.2895 64.9137 13.5871L63.8935 15.6062C62.93 15.0394 61.846 14.756 60.6417 14.756C59.8623 14.756 59.2672 14.8765 58.8563 15.1173C58.4596 15.3441 58.2612 15.6487 58.2612 16.0313C58.2612 16.4564 58.4737 16.761 58.8988 16.9452C59.3381 17.1152 60.0111 17.2782 60.918 17.434C61.8248 17.5757 62.5687 17.7387 63.1496 17.9229C63.7306 18.1071 64.2265 18.4188 64.6374 18.8581C65.0625 19.2973 65.275 19.9208 65.275 20.7284C65.275 21.7911 64.8145 22.6413 63.8935 23.2789C62.9725 23.9165 61.7185 24.2353 60.1316 24.2353Z" fill="black"/>
<path d="M111.785 10.4283C112.15 9.72098 112.445 9.13152 112.669 8.65995C112.893 8.17659 113.076 7.7345 113.217 7.33366C113.37 6.92104 113.5 6.50842 113.606 6.09579C113.724 5.68317 113.848 5.18802 113.978 4.61035L118.54 5.56528C118.481 6.06043 118.41 6.50842 118.328 6.90925C118.257 7.31008 118.157 7.71092 118.027 8.11175C117.897 8.5008 117.738 8.90752 117.55 9.33194C117.373 9.74456 117.155 10.2043 116.895 10.7113L112.015 20.4551H117.532V16.5469H122.271V20.4551L125.242 20.4551V24.0803H122.271V28.9256H117.532V24.0803L106.692 24.0803L105.984 21.8875L111.785 10.4283Z" fill="#4361EE"/>
<path d="M92.6538 6.57331C93.7502 6.04279 94.9586 5.63606 96.279 5.35312C97.5994 5.07018 98.9021 4.92871 100.187 4.92871C101.166 4.92871 102.079 5.02302 102.928 5.21165C103.777 5.38849 104.514 5.68322 105.139 6.09584C105.763 6.50847 106.253 7.05667 106.606 7.74044C106.96 8.42422 107.137 9.26715 107.137 10.2692C107.137 11.2359 107.007 12.0435 106.748 12.6919C106.489 13.3403 106.105 13.9003 105.598 14.3719C105.092 14.8434 104.455 15.2679 103.689 15.6451C102.934 16.0106 102.062 16.4055 101.071 16.8299C100.494 17.0775 99.9926 17.2956 99.5682 17.4842C99.1556 17.6611 98.8078 17.832 98.5249 17.9971C98.2419 18.1503 98.0121 18.3095 97.8352 18.4745C97.6584 18.6278 97.5228 18.8046 97.4285 19.005C97.3342 19.2055 97.2693 19.4354 97.234 19.6947C97.1986 19.9541 97.175 20.2665 97.1632 20.632H106.872V24.0803L92.4062 24.0803V21.6223C92.4062 20.4787 92.5536 19.4943 92.8483 18.6691C93.1431 17.8438 93.5675 17.1306 94.1216 16.5293C94.6757 15.9281 95.3477 15.4034 96.1376 14.9554C96.9274 14.5075 97.8175 14.0889 98.8078 13.6999C99.3619 13.4759 99.8571 13.2755 100.293 13.0986C100.741 12.9218 101.119 12.7214 101.425 12.4974C101.732 12.2616 101.967 11.9846 102.132 11.6663C102.297 11.3362 102.38 10.9058 102.38 10.3753C102.38 9.96271 102.309 9.62082 102.168 9.34967C102.026 9.07852 101.832 8.86042 101.584 8.69537C101.337 8.53032 101.048 8.41832 100.718 8.35938C100.388 8.28864 100.034 8.25327 99.6567 8.25327C99.2676 8.25327 98.8373 8.28864 98.3657 8.35938C97.8942 8.41832 97.4108 8.50674 96.9156 8.62463C96.4205 8.74252 95.9195 8.88989 95.4125 9.06673C94.9174 9.24357 94.4458 9.44398 93.9978 9.66798L92.6538 6.57331Z" fill="#4361EE"/>
</svg>
