<svg width="98" height="100" viewBox="0 0 98 100" fill="none" xmlns="http://www.w3.org/2000/svg">
<g filter="url(#filter0_d_8_5661)">
<path d="M6.156 66.756C6.268 66.6493 6.36267 66.5547 6.44 66.472C6.51733 66.3867 6.57867 66.308 6.624 66.236C6.672 66.1613 6.70667 66.0907 6.728 66.024C6.752 65.9547 6.764 65.884 6.764 65.812C6.764 65.6973 6.73467 65.6013 6.676 65.524C6.61733 65.4467 6.54267 65.3893 6.452 65.352C6.364 65.312 6.27067 65.292 6.172 65.292C6.09467 65.292 6.01467 65.3053 5.932 65.332C5.84933 65.356 5.76933 65.3973 5.692 65.456C5.61733 65.5147 5.54933 65.592 5.488 65.688C5.48267 65.6987 5.472 65.7053 5.456 65.708C5.44267 65.7107 5.42667 65.7067 5.408 65.696L5.232 65.592C5.21333 65.5787 5.20267 65.5653 5.2 65.552C5.2 65.536 5.20533 65.52 5.216 65.504C5.33867 65.3253 5.48667 65.196 5.66 65.116C5.836 65.0333 6.01733 64.992 6.204 64.992C6.372 64.992 6.52667 65.0227 6.668 65.084C6.80933 65.1453 6.92267 65.2373 7.008 65.36C7.09333 65.4827 7.136 65.6373 7.136 65.824C7.136 65.9413 7.11467 66.052 7.072 66.156C7.032 66.26 6.964 66.368 6.868 66.48C6.77467 66.592 6.64933 66.7227 6.492 66.872L5.688 67.628C5.672 67.6387 5.66533 67.6493 5.668 67.66C5.67333 67.6707 5.688 67.676 5.712 67.676L7.116 67.676C7.15067 67.676 7.168 67.6907 7.168 67.72L7.168 67.952C7.168 67.968 7.164 67.98 7.156 67.988C7.15067 67.996 7.13733 68 7.116 68L5.26 68C5.236 68 5.21867 67.996 5.208 67.988C5.2 67.98 5.196 67.9627 5.196 67.936L5.196 67.772C5.196 67.7533 5.19733 67.7373 5.2 67.724C5.20533 67.708 5.216 67.6907 5.232 67.672C5.248 67.6533 5.272 67.6307 5.304 67.604L6.156 66.756ZM11.63 64.992C11.7873 64.992 11.9327 65.0253 12.066 65.092C12.202 65.156 12.3193 65.2533 12.418 65.384C12.5193 65.5147 12.598 65.676 12.654 65.868C12.71 66.0573 12.738 66.276 12.738 66.524C12.738 66.8547 12.6887 67.132 12.59 67.356C12.494 67.58 12.362 67.7493 12.194 67.864C12.026 67.9787 11.8367 68.036 11.626 68.036C11.4127 68.036 11.222 67.9787 11.054 67.864C10.886 67.7493 10.754 67.58 10.658 67.356C10.562 67.132 10.514 66.856 10.514 66.528C10.514 66.28 10.542 66.0613 10.598 65.872C10.654 65.68 10.7327 65.5187 10.834 65.388C10.9353 65.2547 11.054 65.156 11.19 65.092C11.326 65.0253 11.4727 64.992 11.63 64.992ZM11.63 67.744C11.7767 67.744 11.9033 67.7027 12.01 67.62C12.1167 67.5373 12.1993 67.4067 12.258 67.228C12.3167 67.0467 12.346 66.812 12.346 66.524C12.346 66.2307 12.3153 65.9933 12.254 65.812C12.1953 65.6307 12.1113 65.4973 12.002 65.412C11.8953 65.3267 11.77 65.284 11.626 65.284C11.482 65.284 11.3553 65.3267 11.246 65.412C11.1393 65.4973 11.0553 65.632 10.994 65.816C10.9353 65.9973 10.906 66.2333 10.906 66.524C10.906 66.812 10.9353 67.0467 10.994 67.228C11.0553 67.4067 11.1407 67.5373 11.25 67.62C11.3593 67.7027 11.486 67.744 11.63 67.744ZM17.0154 66.756C17.1274 66.6493 17.222 66.5547 17.2994 66.472C17.3767 66.3867 17.438 66.308 17.4834 66.236C17.5314 66.1613 17.566 66.0907 17.5874 66.024C17.6114 65.9547 17.6234 65.884 17.6234 65.812C17.6234 65.6973 17.594 65.6013 17.5354 65.524C17.4767 65.4467 17.402 65.3893 17.3114 65.352C17.2234 65.312 17.13 65.292 17.0314 65.292C16.954 65.292 16.874 65.3053 16.7914 65.332C16.7087 65.356 16.6287 65.3973 16.5514 65.456C16.4767 65.5147 16.4087 65.592 16.3474 65.688C16.342 65.6987 16.3314 65.7053 16.3154 65.708C16.302 65.7107 16.286 65.7067 16.2674 65.696L16.0914 65.592C16.0727 65.5787 16.062 65.5653 16.0594 65.552C16.0594 65.536 16.0647 65.52 16.0754 65.504C16.198 65.3253 16.346 65.196 16.5194 65.116C16.6954 65.0333 16.8767 64.992 17.0634 64.992C17.2314 64.992 17.386 65.0227 17.5274 65.084C17.6687 65.1453 17.782 65.2373 17.8674 65.36C17.9527 65.4827 17.9954 65.6373 17.9954 65.824C17.9954 65.9413 17.974 66.052 17.9314 66.156C17.8914 66.26 17.8234 66.368 17.7274 66.48C17.634 66.592 17.5087 66.7227 17.3514 66.872L16.5474 67.628C16.5314 67.6387 16.5247 67.6493 16.5274 67.66C16.5327 67.6707 16.5474 67.676 16.5714 67.676L17.9754 67.676C18.01 67.676 18.0274 67.6907 18.0274 67.72L18.0274 67.952C18.0274 67.968 18.0234 67.98 18.0154 67.988C18.01 67.996 17.9967 68 17.9754 68L16.1194 68C16.0954 68 16.078 67.996 16.0674 67.988C16.0594 67.98 16.0554 67.9627 16.0554 67.936L16.0554 67.772C16.0554 67.7533 16.0567 67.7373 16.0594 67.724C16.0647 67.708 16.0754 67.6907 16.0914 67.672C16.1074 67.6533 16.1314 67.6307 16.1634 67.604L17.0154 66.756ZM23.2854 65.032C23.312 65.032 23.3294 65.036 23.3374 65.044C23.3454 65.052 23.348 65.068 23.3454 65.092L23.3294 65.308C23.3267 65.3267 23.3227 65.3387 23.3174 65.344C23.3147 65.3493 23.3 65.352 23.2734 65.352L21.9134 65.352C21.8814 65.352 21.8654 65.3667 21.8654 65.396L21.7934 66.264C21.7907 66.2827 21.7947 66.2973 21.8054 66.308C21.816 66.316 21.828 66.3173 21.8414 66.312C21.94 66.2613 22.0387 66.2173 22.1374 66.18C22.2387 66.14 22.3614 66.12 22.5054 66.12C22.6814 66.12 22.8454 66.152 22.9974 66.216C23.1494 66.28 23.2707 66.3787 23.3614 66.512C23.4547 66.6453 23.5014 66.8173 23.5014 67.028C23.5014 67.2413 23.452 67.424 23.3534 67.576C23.2574 67.7253 23.1227 67.84 22.9494 67.92C22.7787 68 22.5827 68.04 22.3614 68.04C22.1587 68.04 21.9667 68.0053 21.7854 67.936C21.6067 67.864 21.4547 67.76 21.3294 67.624C21.3187 67.608 21.312 67.5947 21.3094 67.584C21.3094 67.5707 21.3187 67.5573 21.3374 67.544L21.5094 67.404C21.5307 67.388 21.5534 67.392 21.5774 67.416C21.6494 67.4827 21.72 67.5413 21.7894 67.592C21.8587 67.6427 21.9347 67.6827 22.0174 67.712C22.1027 67.7387 22.2014 67.752 22.3134 67.752C22.4867 67.752 22.6334 67.7213 22.7534 67.66C22.8734 67.5987 22.9654 67.5147 23.0294 67.408C23.0934 67.2987 23.1254 67.176 23.1254 67.04C23.1254 66.896 23.0947 66.7787 23.0334 66.688C22.972 66.5947 22.8894 66.5253 22.7854 66.48C22.684 66.4347 22.5707 66.412 22.4454 66.412C22.304 66.412 22.1774 66.4373 22.0654 66.488C21.9534 66.5387 21.8507 66.592 21.7574 66.648C21.736 66.6587 21.7227 66.6627 21.7174 66.66C21.712 66.6573 21.7014 66.652 21.6854 66.644L21.4894 66.532C21.4654 66.5187 21.4534 66.5093 21.4534 66.504C21.456 66.496 21.4587 66.476 21.4614 66.444L21.5694 65.088C21.572 65.064 21.5774 65.0493 21.5854 65.044C21.596 65.036 21.62 65.032 21.6574 65.032L23.2854 65.032Z" fill="black"/>
</g>
<path d="M84.875 40.8576C84.821 41.0201 84.7435 41.163 84.6425 41.286C84.5444 41.4076 84.4153 41.5094 84.2552 41.5917C84.0239 41.7104 83.8105 41.745 83.6151 41.6955C83.4227 41.6444 83.2761 41.5229 83.1754 41.3311C83.0933 41.1747 83.0673 41.0176 83.0973 40.8597C83.1259 40.699 83.2106 40.5412 83.3515 40.3864C83.4908 40.2287 83.6841 40.077 83.9313 39.9313L84.2643 39.7267C84.2806 39.7146 84.2938 39.7003 84.304 39.6838C84.3142 39.6674 84.313 39.6473 84.3007 39.6237L84.2379 39.5042C84.1542 39.3448 84.038 39.2452 83.8891 39.2055C83.7417 39.1613 83.5835 39.1826 83.4144 39.2694C83.284 39.3364 83.1808 39.4268 83.1051 39.5406C83.0323 39.6529 82.9854 39.7894 82.9643 39.9501C82.9602 39.971 82.9552 39.9866 82.9494 39.9971C82.945 40.0031 82.9324 40.0077 82.9115 40.0109L82.6295 40.0546C82.6175 40.0532 82.6062 40.0497 82.5956 40.0438C82.588 40.0365 82.5839 40.018 82.5834 39.9883C82.5918 39.7892 82.6528 39.6042 82.7665 39.4334C82.8831 39.2612 83.0585 39.1149 83.2928 38.9946C83.4915 38.8926 83.6723 38.8391 83.8353 38.8341C83.9998 38.8246 84.1448 38.8607 84.2705 38.9423C84.3975 39.0194 84.5021 39.1362 84.5842 39.2926L85.4069 40.8598C85.4209 40.8864 85.4257 40.9064 85.4215 40.9198C85.4172 40.9332 85.4047 40.9453 85.384 40.9559L85.1571 41.0724C85.1364 41.083 85.1185 41.0847 85.1034 41.0775C85.0867 41.0673 85.0715 41.0527 85.0577 41.0335L84.9463 40.8322C84.9157 40.7954 84.892 40.8039 84.875 40.8576ZM84.4912 39.9867C84.4649 39.9366 84.4317 39.9236 84.3918 39.9479L84.1121 40.1251C83.9788 40.2011 83.8665 40.2812 83.7753 40.3655C83.6825 40.4469 83.6106 40.5288 83.5597 40.6111C83.5088 40.6934 83.4804 40.7755 83.4744 40.8572C83.4668 40.9361 83.484 41.0153 83.5258 41.095C83.594 41.2249 83.6919 41.3038 83.8196 41.332C83.9487 41.3556 84.0903 41.3278 84.2445 41.2487C84.3394 41.1999 84.4214 41.1373 84.4903 41.0607C84.5607 40.9796 84.6145 40.8957 84.6519 40.8091C84.6906 40.718 84.7123 40.6338 84.7169 40.5565C84.7245 40.4777 84.7136 40.4102 84.6841 40.3542L84.4912 39.9867Z" fill="black"/>
<path d="M87.3494 39.7341C87.3137 39.7642 87.2817 39.7628 87.2533 39.7301L85.6031 37.8256C85.5747 37.7928 85.5745 37.7646 85.6026 37.741L85.8318 37.5474C85.8598 37.5238 85.8858 37.5258 85.9098 37.5535L86.0997 37.7727C86.1107 37.7853 86.1198 37.7907 86.127 37.7889C86.1343 37.7871 86.1399 37.7758 86.1439 37.755C86.1712 37.6185 86.2009 37.4975 86.2329 37.392C86.2653 37.2818 86.3099 37.1831 86.3667 37.0959C86.4212 37.0062 86.4918 36.9248 86.5784 36.8516C86.7771 36.6839 86.9745 36.6089 87.1706 36.6265C87.3692 36.642 87.5417 36.7342 87.6879 36.9029L88.9092 38.3124C88.9442 38.3528 88.9425 38.389 88.9043 38.4213L88.6904 38.6019C88.6725 38.617 88.6565 38.6239 88.6423 38.6228C88.626 38.6192 88.6112 38.6098 88.5981 38.5947L87.4292 37.2457C87.3223 37.1222 87.2075 37.0534 87.0849 37.0391C86.9601 37.0224 86.8289 37.072 86.6914 37.1881C86.6175 37.2505 86.5584 37.3222 86.514 37.4033C86.47 37.4798 86.4345 37.5686 86.4076 37.6699C86.3784 37.7686 86.3526 37.8864 86.33 38.0232L87.5677 39.4516C87.6004 39.4894 87.5977 39.5244 87.5595 39.5567L87.3494 39.7341Z" fill="black"/>
<path d="M91.2893 35.8645C91.1415 36.0661 90.9642 36.212 90.7576 36.3022C90.5502 36.3877 90.3322 36.4145 90.1034 36.3826C89.874 36.346 89.6507 36.2504 89.4334 36.0957C89.2081 35.9353 89.0428 35.7521 88.9375 35.5462C88.8315 35.3357 88.7871 35.1199 88.8044 34.8991C88.8218 34.6782 88.9043 34.4669 89.0522 34.2653C89.202 34.061 89.3809 33.9184 89.5891 33.8375C89.7965 33.7519 90.0162 33.7284 90.2484 33.7669C90.4798 33.8007 90.7055 33.896 90.9254 34.0526C91.1427 34.2073 91.3039 34.3875 91.4092 34.5934C91.5117 34.7974 91.5543 35.0098 91.537 35.2307C91.5217 35.4489 91.4391 35.6602 91.2893 35.8645ZM91.0386 35.6737C91.1411 35.5339 91.1949 35.3901 91.1999 35.2423C91.2023 35.0926 91.1584 34.9468 91.0682 34.8048C90.9773 34.6582 90.8422 34.5212 90.663 34.3935C90.4838 34.2659 90.3107 34.1836 90.1437 34.1465C89.9739 34.1074 89.8173 34.1125 89.6737 34.1617C89.5302 34.2108 89.4072 34.3053 89.3047 34.4451C89.2042 34.5822 89.1518 34.727 89.1474 34.8794C89.1431 35.0318 89.1855 35.1826 89.2744 35.3319C89.3626 35.4765 89.4963 35.6127 89.6755 35.7403C89.852 35.866 90.0251 35.9483 90.1949 35.9874C90.3666 36.0237 90.5252 36.016 90.6707 35.9641C90.8135 35.9103 90.9361 35.8135 91.0386 35.6737Z" fill="black"/>
<path d="M91.78 30.745C91.6613 30.7677 91.549 30.8219 91.443 30.9077C91.337 30.9935 91.2509 31.1129 91.1849 31.2659C91.1135 31.4311 91.0895 31.5836 91.1127 31.7233C91.1372 31.86 91.2094 31.9533 91.3294 32.0034C91.394 32.0304 91.4661 32.0316 91.5457 32.007C91.6222 31.9811 91.7174 31.9035 91.8313 31.7741L92.2584 31.2643C92.408 31.0775 92.5579 30.9613 92.7083 30.9157C92.86 30.8671 93.0081 30.8729 93.1527 30.9333C93.2973 30.9936 93.4049 31.0891 93.4756 31.2197C93.5463 31.3504 93.58 31.5035 93.5768 31.6791C93.5705 31.8535 93.5264 32.0355 93.4445 32.2253C93.3401 32.4671 93.2013 32.6583 93.028 32.7991C92.8516 32.9386 92.6746 33.0164 92.497 33.0325C92.4777 33.0353 92.4619 33.0341 92.4495 33.029C92.4372 33.0238 92.4298 33.0117 92.4272 32.9925L92.4029 32.7711C92.4003 32.752 92.4032 32.7369 92.4115 32.726C92.4168 32.7137 92.4254 32.7065 92.4373 32.7042C92.5397 32.6856 92.6347 32.6548 92.7222 32.6118C92.811 32.5658 92.8928 32.5025 92.9676 32.4217C93.0437 32.3379 93.1095 32.2318 93.165 32.1032C93.2121 31.9856 93.2408 31.873 93.251 31.7653C93.2612 31.6576 93.249 31.564 93.2143 31.4845C93.1765 31.4037 93.1177 31.3467 93.0377 31.3133C92.9547 31.2786 92.8694 31.2827 92.7819 31.3257C92.6913 31.3673 92.5872 31.4611 92.4698 31.6071L92.1318 32.0241C91.9712 32.228 91.8182 32.3555 91.6726 32.4067C91.5284 32.4549 91.3849 32.4509 91.2421 32.3949C91.0944 32.3333 90.9839 32.2402 90.9106 32.1157C90.8342 31.9899 90.7956 31.8438 90.7949 31.6774C90.7954 31.5078 90.8354 31.3313 90.9146 31.1476C91.0031 30.9426 91.1217 30.7772 91.2704 30.6514C91.4173 30.5213 91.5732 30.4419 91.7381 30.4132C91.7544 30.4092 91.7687 30.4097 91.781 30.4149C91.7902 30.4187 91.7968 30.4287 91.8007 30.4448L91.8236 30.6819C91.8245 30.6967 91.8223 30.7102 91.817 30.7225C91.8099 30.7304 91.7976 30.7379 91.78 30.745Z" fill="black"/>
<path d="M53.5061 42.2083C55.3878 42.2083 56.8783 42.7983 57.9775 43.9783C59.0767 45.1384 59.6263 46.8884 59.6263 49.2285V58.4088H56.133V49.7085C56.133 48.3085 55.8442 47.2584 55.2667 46.5584C54.6891 45.8384 53.8601 45.4784 52.7795 45.4784C51.6057 45.4784 50.6649 45.8984 49.9569 46.7384C49.2489 47.5584 48.8949 48.7385 48.8949 50.2785V58.4088H45.4017V49.7085C45.4017 48.3085 45.1129 47.2584 44.5353 46.5584C43.9578 45.8384 43.1287 45.4784 42.0481 45.4784C40.8558 45.4784 39.9056 45.8884 39.1976 46.7084C38.5083 47.5284 38.1636 48.7185 38.1636 50.2785V58.4088H34.6703V42.3883H37.9959V44.4283C38.5548 43.7083 39.2535 43.1583 40.0919 42.7783C40.9303 42.3983 41.8618 42.2083 42.8865 42.2083C44.0044 42.2083 44.9918 42.4383 45.8488 42.8983C46.7245 43.3383 47.4138 43.9983 47.9168 44.8783C48.5317 44.0383 49.3235 43.3883 50.2923 42.9283C51.2611 42.4483 52.3323 42.2083 53.5061 42.2083Z" fill="url(#paint0_linear_8_5661)"/>
<path d="M23.9569 57.8988C22.4478 57.8988 21.0877 57.5488 19.8767 56.8487C18.6657 56.1487 17.7156 55.1787 17.0262 53.9386C16.3555 52.6786 16.0202 51.2585 16.0202 49.6785C16.0202 48.0984 16.3555 46.6884 17.0262 45.4484C17.7156 44.2083 18.6657 43.2383 19.8767 42.5383C21.0877 41.8382 22.4478 41.4882 23.9569 41.4882C25.4846 41.4882 26.854 41.8382 28.065 42.5383C29.276 43.2383 30.2168 44.2083 30.8876 45.4484C31.5769 46.6884 31.9216 48.0984 31.9216 49.6785C31.9216 51.2585 31.5769 52.6786 30.8876 53.9386C30.2168 55.1787 29.276 56.1487 28.065 56.8487C26.854 57.5488 25.4846 57.8988 23.9569 57.8988ZM23.9569 54.6887C25.2424 54.6887 26.3044 54.2287 27.1428 53.3086C27.9812 52.3886 28.4003 51.1785 28.4003 49.6785C28.4003 48.1784 27.9812 46.9684 27.1428 46.0484C26.3044 45.1283 25.2424 44.6683 23.9569 44.6683C22.6714 44.6683 21.6094 45.1283 20.771 46.0484C19.9513 46.9684 19.5414 48.1784 19.5414 49.6785C19.5414 51.1785 19.9513 52.3886 20.771 53.3086C21.6094 54.2287 22.6714 54.6887 23.9569 54.6887Z" fill="black"/>
<path d="M8.0765 57.8988C6.53014 57.8988 5.14214 57.5488 3.91251 56.8487C2.68288 56.1487 1.72339 55.1787 1.03405 53.9386C0.344709 52.6786 3.8147e-05 51.2585 3.8147e-05 49.6785C3.8147e-05 48.0984 0.344709 46.6884 1.03405 45.4484C1.72339 44.2083 2.67356 43.2383 3.88457 42.5383C5.1142 41.8382 6.51151 41.4882 8.0765 41.4882C9.54833 41.4882 10.8339 41.8082 11.9331 42.4483C13.0509 43.0883 13.8893 44.0083 14.4482 45.2083L11.7654 46.8884C11.3369 46.1484 10.7966 45.5984 10.1445 45.2383C9.51107 44.8583 8.81242 44.6683 8.04855 44.6683C6.7444 44.6683 5.66381 45.1283 4.80679 46.0484C3.94977 46.9484 3.52126 48.1584 3.52126 49.6785C3.52126 51.1985 3.94046 52.4186 4.77884 53.3386C5.63586 54.2387 6.72577 54.6887 8.04855 54.6887C8.81242 54.6887 9.51107 54.5087 10.1445 54.1486C10.7966 53.7686 11.3369 53.2086 11.7654 52.4686L14.4482 54.1486C13.8707 55.3487 13.023 56.2787 11.9051 56.9387C10.8059 57.5788 9.5297 57.8988 8.0765 57.8988Z" fill="black"/>
<path d="M38.0832 36.4007C36.8722 36.4007 35.6891 36.2307 34.534 35.8906C33.3789 35.5506 32.4567 35.1206 31.7674 34.6006L33.1088 31.7505C33.7795 32.2305 34.5806 32.6205 35.5121 32.9205C36.4623 33.2006 37.3939 33.3406 38.3068 33.3406C40.3934 33.3406 41.4367 32.7505 41.4367 31.5705C41.4367 31.0105 41.1666 30.6205 40.6263 30.4005C40.1046 30.1805 39.2569 29.9705 38.0832 29.7704C36.8536 29.5704 35.8475 29.3404 35.065 29.0804C34.3011 28.8204 33.6304 28.3704 33.0529 27.7304C32.494 27.0704 32.2145 26.1603 32.2145 25.0003C32.2145 23.4802 32.8014 22.2702 33.9751 21.3702C35.1675 20.4501 36.7697 19.9901 38.7819 19.9901C39.8066 19.9901 40.8312 20.1201 41.8559 20.3801C42.8806 20.6201 43.719 20.9501 44.3711 21.3702L43.0297 24.2203C41.7628 23.4202 40.3375 23.0202 38.7539 23.0202C37.7292 23.0202 36.9467 23.1902 36.4064 23.5302C35.8848 23.8502 35.6239 24.2803 35.6239 24.8203C35.6239 25.4203 35.9034 25.8503 36.4623 26.1103C37.0399 26.3503 37.9248 26.5803 39.1172 26.8003C40.3096 27.0003 41.2877 27.2304 42.0516 27.4904C42.8154 27.7504 43.4675 28.1904 44.0078 28.8104C44.5667 29.4304 44.8462 30.3105 44.8462 31.4505C44.8462 32.9506 44.2407 34.1506 43.0297 35.0506C41.8187 35.9507 40.1699 36.4007 38.0832 36.4007Z" fill="black"/>
<path d="M30.1163 28.2704C30.1163 28.5304 30.0977 28.9004 30.0604 29.3804H18.351C18.5559 30.5605 19.0869 31.5005 19.9439 32.2005C20.8195 32.8805 21.9001 33.2206 23.1857 33.2206C24.8252 33.2206 26.1759 32.6405 27.2379 31.4805L29.1103 33.7906C28.4395 34.6506 27.5918 35.3006 26.5671 35.7406C25.5425 36.1807 24.3873 36.4007 23.1018 36.4007C21.4623 36.4007 20.0184 36.0507 18.7702 35.3506C17.5219 34.6506 16.5531 33.6806 15.8637 32.4405C15.193 31.1805 14.8577 29.7604 14.8577 28.1804C14.8577 26.6203 15.1837 25.2203 15.8358 23.9802C16.5065 22.7202 17.4287 21.7402 18.6025 21.0401C19.7762 20.3401 21.099 19.9901 22.5708 19.9901C24.024 19.9901 25.3189 20.3401 26.4554 21.0401C27.6105 21.7202 28.5048 22.6902 29.1382 23.9502C29.7903 25.1903 30.1163 26.6303 30.1163 28.2704ZM22.5708 22.9902C21.453 22.9902 20.5028 23.3502 19.7203 24.0703C18.9565 24.7703 18.4907 25.7103 18.323 26.8903H26.7907C26.6417 25.7303 26.1852 24.7903 25.4214 24.0703C24.6575 23.3502 23.7073 22.9902 22.5708 22.9902Z" fill="black"/>
<path d="M6.31588 36.4007C5.10488 36.4007 3.92182 36.2307 2.76671 35.8906C1.6116 35.5506 0.689378 35.1206 3.8147e-05 34.6006L1.34146 31.7505C2.01217 32.2305 2.81329 32.6205 3.74483 32.9206C4.695 33.2006 5.62654 33.3406 6.53945 33.3406C8.62611 33.3406 9.66943 32.7505 9.66943 31.5705C9.66943 31.0105 9.39928 30.6205 8.85899 30.4005C8.33733 30.1805 7.48962 29.9705 6.31588 29.7704C5.08625 29.5704 4.08019 29.3404 3.29769 29.0804C2.53383 28.8204 1.86312 28.3704 1.28556 27.7304C0.72664 27.0704 0.447178 26.1603 0.447178 25.0003C0.447178 23.4802 1.03405 22.2702 2.20779 21.3702C3.40016 20.4501 5.00241 19.9901 7.01454 19.9901C8.03923 19.9901 9.06393 20.1201 10.0886 20.3801C11.1133 20.6201 11.9517 20.9501 12.6038 21.3702L11.2624 24.2203C9.99547 23.4202 8.57021 23.0202 6.98659 23.0202C5.9619 23.0202 5.1794 23.1902 4.63911 23.5302C4.11745 23.8502 3.85662 24.2803 3.85662 24.8203C3.85662 25.4203 4.13608 25.8503 4.695 26.1103C5.27256 26.3503 6.15752 26.5803 7.34989 26.8003C8.54227 27.0003 9.52038 27.2304 10.2842 27.4904C11.0481 27.7504 11.7002 28.1904 12.2405 28.8104C12.7994 29.4304 13.0789 30.3105 13.0789 31.4505C13.0789 32.9506 12.4734 34.1506 11.2624 35.0506C10.0514 35.9507 8.40254 36.4007 6.31588 36.4007Z" fill="black"/>
<path d="M70.8408 42.7892C72.2574 42.7892 73.5197 43.0882 74.6276 43.6861C75.7536 44.284 76.6345 45.1282 77.2702 46.2185C77.9059 47.3089 78.2237 48.5663 78.2237 49.9908C78.2237 51.4153 77.9059 52.6815 77.2702 53.7894C76.6345 54.8798 75.7536 55.7239 74.6276 56.3218C73.5197 56.9198 72.2574 57.2187 70.8408 57.2187C68.8792 57.2187 67.3264 56.5856 66.1822 55.3194V62.1517H62.7767V42.9475H66.0187V44.794C66.5817 44.1258 67.2719 43.6245 68.0892 43.2904C68.9247 42.9563 69.8418 42.7892 70.8408 42.7892ZM70.4594 54.3961C71.7126 54.3961 72.7387 53.9917 73.5379 53.1827C74.3552 52.3737 74.7638 51.3097 74.7638 49.9908C74.7638 48.6718 74.3552 47.6078 73.5379 46.7989C72.7387 45.9899 71.7126 45.5854 70.4594 45.5854C69.6421 45.5854 68.9065 45.7701 68.2526 46.1394C67.5988 46.4911 67.0812 47.0011 66.6998 47.6694C66.3184 48.3377 66.1277 49.1115 66.1277 49.9908C66.1277 50.8701 66.3184 51.6439 66.6998 52.3122C67.0812 52.9804 67.5988 53.4992 68.2526 53.8685C68.9065 54.2203 69.6421 54.3961 70.4594 54.3961Z" fill="black"/>
<path d="M75.114 38.0208H75.1609C83.0928 38.0208 89.5229 31.972 89.5229 24.5104C89.5229 17.0488 83.0928 11 75.1609 11H75.114C67.1821 11 60.752 17.0488 60.752 24.5104C60.752 31.972 67.1821 38.0208 75.114 38.0208Z" fill="url(#paint1_linear_8_5661)"/>
<path fill-rule="evenodd" clip-rule="evenodd" d="M78.6786 26.0953L74.9557 29.5718L76.7936 31.244L80.4929 27.7895V27.7895L82.3072 26.0953L80.5754 24.4781L80.5754 24.4781L77.6065 21.7057L75.7922 23.3999L78.6786 26.0953L78.6786 26.0953Z" fill="#091336"/>
<path fill-rule="evenodd" clip-rule="evenodd" d="M72.0813 23.3998L75.8042 19.9234L73.9899 18.2292L70.267 21.7056L70.267 21.7056L68.4527 23.3998L70.267 25.0941L70.267 25.094L73.1534 27.7894L74.9677 26.0952L72.0813 23.3998ZM72.0813 23.3999V23.3998L72.0809 23.4002L72.0813 23.3999Z" fill="#091336"/>
<path fill-rule="evenodd" clip-rule="evenodd" d="M71.5504 22.9042L75.2733 19.4277L73.4589 17.7335L69.7361 21.21V21.2099L67.9218 22.9042L69.7361 24.5984L72.6225 27.2937L74.4368 25.5995L71.5504 22.9042ZM71.5504 22.9042L71.5504 22.9042L71.55 22.9045L71.5504 22.9042Z" fill="white"/>
<path fill-rule="evenodd" clip-rule="evenodd" d="M78.148 25.5996L74.4251 29.0761L76.263 30.7483L79.9622 27.2938H79.9623L81.7766 25.5996L80.0447 23.9824L79.9623 23.9054L77.0758 21.21L75.2615 22.9042L78.148 25.5996Z" fill="white"/>
<path d="M46.4716 17.8014V11H58.772V38.0208H50.5851V17.8014H46.4716Z" fill="url(#paint2_linear_8_5661)"/>
<defs>
<filter id="filter0_d_8_5661" x="1.196" y="64.992" width="26.3054" height="11.048" filterUnits="userSpaceOnUse" color-interpolation-filters="sRGB">
<feFlood flood-opacity="0" result="BackgroundImageFix"/>
<feColorMatrix in="SourceAlpha" type="matrix" values="0 0 0 0 0 0 0 0 0 0 0 0 0 0 0 0 0 0 127 0" result="hardAlpha"/>
<feOffset dy="4"/>
<feGaussianBlur stdDeviation="2"/>
<feComposite in2="hardAlpha" operator="out"/>
<feColorMatrix type="matrix" values="0 0 0 0 0 0 0 0 0 0 0 0 0 0 0 0 0 0 0.25 0"/>
<feBlend mode="normal" in2="BackgroundImageFix" result="effect1_dropShadow_8_5661"/>
<feBlend mode="normal" in="SourceGraphic" in2="effect1_dropShadow_8_5661" result="shape"/>
</filter>
<linearGradient id="paint0_linear_8_5661" x1="47.7394" y1="41.4882" x2="47.7394" y2="57.6888" gradientUnits="userSpaceOnUse">
<stop stop-color="#16168B"/>
<stop offset="0.0001"/>
</linearGradient>
<linearGradient id="paint1_linear_8_5661" x1="75.1374" y1="11" x2="75.1374" y2="38.0208" gradientUnits="userSpaceOnUse">
<stop stop-color="#4828AB"/>
<stop offset="0.9999" stop-color="#45BF76"/>
</linearGradient>
<linearGradient id="paint2_linear_8_5661" x1="52.6218" y1="11" x2="52.6218" y2="38.0208" gradientUnits="userSpaceOnUse">
<stop stop-color="#4828AB"/>
<stop offset="1" stop-color="#45BF76"/>
</linearGradient>
</defs>
</svg>
